<?xml version="1.0" encoding="utf-8"?>
<!-- Generator: Adobe Illustrator 26.0.3, SVG Export Plug-In . SVG Version: 6.00 Build 0)  -->
<svg version="1.1" id="Layer_1" xmlns="http://www.w3.org/2000/svg" xmlns:xlink="http://www.w3.org/1999/xlink" x="0px" y="0px"
	 viewBox="0 0 24 24" style="enable-background:new 0 0 24 24;" xml:space="preserve">
<style type="text/css">
	.st0{opacity:0.7;}
	.st1{fill:rgba(234, 127, 66, 1);}
</style>
<g class="st0">
	<path class="st1" d="M12.5,12.1l10.8-6c-0.6-1.2-1.8-2-3.2-2H4.9c-1.4,0-2.6,0.8-3.2,2L12.5,12.1z"/>
	<path class="st1" d="M23.2,18.1c0.3-0.5,0.5-1.1,0.5-1.8V8L17,11.7L23.2,18.1z"/>
	<path class="st1" d="M1.3,8v8.4c0,0.6,0.2,1.2,0.5,1.8l6.2-6.5L1.3,8z"/>
	<path class="st1" d="M15.4,12.6L13,13.9C12.8,14,12.7,14,12.5,14s-0.3,0-0.4-0.1l-2.4-1.3l-6.6,6.8c0.5,0.3,1.1,0.5,1.7,0.5h15.4
		c0.6,0,1.2-0.2,1.7-0.5L15.4,12.6z"/>
</g>
</svg>
