<?xml version="1.0" encoding="utf-8"?>
<!-- Generator: Adobe Illustrator 26.0.3, SVG Export Plug-In . SVG Version: 6.00 Build 0)  -->
<svg version="1.1" id="Layer_1" xmlns="http://www.w3.org/2000/svg" xmlns:xlink="http://www.w3.org/1999/xlink" x="0px" y="0px"
	 viewBox="0 0 24 24" style="enable-background:new 0 0 24 24;" xml:space="preserve">
<style type="text/css">
	.st0{opacity:0.7;fill:rgba(234, 127, 66, 1);}
</style>
<path class="st0" d="M17.4,2H6.6C4.1,2,2,4.1,2,6.6v4.3h9.5L9.4,8.5C9,8,9,7.2,9.5,6.8c0.5-0.4,1.2-0.4,1.6,0.1l3.8,4.3
	c0.4,0.4,0.4,1.1,0,1.5L11.1,17c-0.2,0.3-0.5,0.4-0.9,0.4c-0.3,0-0.5-0.1-0.8-0.3C9,16.8,9,16,9.4,15.6l2.1-2.4H2v4.3
	c0,2.5,2,4.6,4.6,4.6h10.8c2.5,0,4.6-2,4.6-4.6V6.6C22,4.1,19.9,2,17.4,2z"/>
</svg>
