<?xml version="1.0" encoding="UTF-8"?><svg id="Layer_1" xmlns="http://www.w3.org/2000/svg" viewBox="0 0 200 200"><defs><style>.cls-1,.cls-2{fill:#fff;}.cls-1,.cls-3,.cls-4{stroke-linecap:round;}.cls-1,.cls-3,.cls-4,.cls-5{stroke-miterlimit:10;}.cls-1,.cls-4,.cls-5{stroke:#dbdbdb;}.cls-6{fill:#dbdbdb;}.cls-3{stroke:#fff;}.cls-3,.cls-4,.cls-5{fill:none;}</style></defs><g><g><g><path class="cls-6" d="M180.99,188.2l8.49-6.7c2.11-2.05,4.03-4.29,5.73-6.68l4.33-7.22c.03-.2,.06-.41,.07-.61,.02-.16,.04-.32,.05-.49,.66-9.43-5.61-20.65-13.5-21.61-.9-.1-4.28-.52-7.16,1.88-3.07,2.56-4.11,7.13-4.99,12-.84,4.66-1.54,9.61-3.75,13.35-.29,.48-1.09,1.78-1.59,3.76-.78,3.07-.31,5.79,0,7.52,.05,.23,.09,.49,.15,.77,.1,.52,.23,1.1,.42,1.73,0,.02,0,.03,0,.04v.02c.36,1.23,.9,2.62,1.81,4.03,.49,.76,1.06,1.64,1.8,2.38,2.68-1.07,5.25-2.37,7.68-3.87l.44-.29Z"/><path class="cls-3" d="M195.04,173.38c-.74-.87-.83-.59-1.85-1.85-1.4-1.88-2.81-3.31-4.18-5.59-.9-1.5-1.82-3.09-2.81-4.85-.35-.62-.66-1.27-.9-1.95-2.18-5.68-1.31-12.7-1.31-12.7"/><path class="cls-3" d="M189.5,180.77c-.5-.41-2.3-1.24-4.34-3.97-1.43-1.91-2.98-4.39-4.31-7.45-.06-.12-.11-.25-.16-.37-.99-2.35-1.61-4.56-1.98-6.52-.9-4.75-.38-7.99-.38-7.99"/><path class="cls-3" d="M172.61,172.3s.6,2.05,2.02,6.37c.18,.53,.36,1.08,.55,1.67,.68,2.04,1.74,3.7,2.81,5,.96,1.18,1.94,2.04,2.64,2.59h0"/><path class="cls-3" d="M175.64,162.85s2.19,.47,7.33-2.1,9.76-11.8,9.76-11.8"/><path class="cls-3" d="M174.25,169.33s5.73,.27,10.72-1.29c4.99-1.55,9.61-7.29,9.61-7.29l2.12-4.34"/><path class="cls-3" d="M170.06,178.34s6.28,.77,10.78,0,13.18-5.8,17.89-10.5"/><path class="cls-3" d="M170.83,184.69c-.92-.05,6.62,1.93,15.9-2.07"/></g><g><path class="cls-2" d="M130.99,135.31l-1.04-.07c-.64-.15-2.12-.55-3.49-1.49-1.29-.89-1.99-2.7-1.67-4.07,.32-1.37,2.21-2.13,4.38-1.72l3.11,.58c.9,.33,1.64,.64,2.19,.89,1.67,.75,2.04,1.08,2.23,1.29,.35,.39,.46,.75,.5,1l-.24,1.08c-.13,.25-.35,.6-.71,.96-.38,.38-1.04,1.02-2.34,1.36-1.15,.3-2.26,.26-2.9,.2Z"/><path class="cls-2" d="M131.02,135.36l-.69-.07c-.43-.09-1.42-.34-2.36-.87-.88-.49-1.4-1.43-1.23-2.12,.17-.69,1.41-1.01,2.85-.74l2.08,.39c.61,.2,1.11,.38,1.48,.52,1.13,.43,1.38,.61,1.52,.72,.24,.21,.33,.4,.36,.52l-.12,.54c-.08,.12-.21,.29-.45,.47-.24,.18-.66,.49-1.51,.62-.75,.12-1.49,.06-1.92,.01Z"/></g><g><path class="cls-2" d="M130.99,135.31l-1.04-.07c-.64-.15-2.12-.55-3.49-1.49-1.29-.89-1.99-2.7-1.67-4.07,.32-1.37,2.21-2.13,4.38-1.72l3.11,.58c.9,.33,1.64,.64,2.19,.89,1.67,.75,2.04,1.08,2.23,1.29,.35,.39,.46,.75,.5,1l-.24,1.08c-.13,.25-.35,.6-.71,.96-.38,.38-1.04,1.02-2.34,1.36-1.15,.3-2.26,.26-2.9,.2Z"/><path class="cls-2" d="M131.02,135.36l-.69-.07c-.43-.09-1.42-.34-2.36-.87-.88-.49-1.4-1.43-1.23-2.12,.17-.69,1.41-1.01,2.85-.74l2.08,.39c.61,.2,1.11,.38,1.48,.52,1.13,.43,1.38,.61,1.52,.72,.24,.21,.33,.4,.36,.52l-.12,.54c-.08,.12-.21,.29-.45,.47-.24,.18-.66,.49-1.51,.62-.75,.12-1.49,.06-1.92,.01Z"/></g><g><path class="cls-2" d="M130.99,135.31l-1.04-.07c-.64-.15-2.12-.55-3.49-1.49-1.29-.89-1.99-2.7-1.67-4.07,.32-1.37,2.21-2.13,4.38-1.72l3.11,.58c.9,.33,1.64,.64,2.19,.89,1.67,.75,2.04,1.08,2.23,1.29,.35,.39,.46,.75,.5,1l-.24,1.08c-.13,.25-.35,.6-.71,.96-.38,.38-1.04,1.02-2.34,1.36-1.15,.3-2.26,.26-2.9,.2Z"/><path class="cls-6" d="M131.02,135.36l-.69-.07c-.43-.09-1.42-.34-2.36-.87-.88-.49-1.4-1.43-1.23-2.12,.17-.69,1.41-1.01,2.85-.74l2.08,.39c.61,.2,1.11,.38,1.48,.52,1.13,.43,1.38,.61,1.52,.72,.24,.21,.33,.4,.36,.52l-.12,.54c-.08,.12-.21,.29-.45,.47-.24,.18-.66,.49-1.51,.62-.75,.12-1.49,.06-1.92,.01Z"/></g><g><path class="cls-2" d="M167.72,135.67h1.04c.65-.09,2.16-.35,3.62-1.06,1.37-.67,2.25-2.13,2.08-3.29-.18-1.15-1.98-1.88-4.17-1.66l-3.15,.32c-.93,.23-1.7,.44-2.27,.62-1.74,.53-2.13,.78-2.35,.95-.39,.3-.54,.6-.6,.8l.12,.91c.1,.21,.28,.51,.61,.83,.34,.33,.93,.9,2.19,1.25,1.11,.31,2.22,.33,2.86,.32Z"/><path class="cls-6" d="M167.69,135.7l.7-.02c.44-.06,1.45-.21,2.43-.59,.93-.36,1.54-1.11,1.44-1.69-.1-.58-1.29-.92-2.76-.77l-2.1,.21c-.63,.13-1.14,.25-1.52,.35-1.17,.3-1.44,.43-1.58,.52-.26,.16-.37,.31-.41,.42l.07,.46c.07,.11,.18,.25,.39,.41,.22,.16,.6,.44,1.44,.6,.73,.14,1.48,.13,1.91,.11Z"/></g><path class="cls-2" d="M135.75,128.22c-1,.87-2.45,2.37-3.83,4.06-.94,1.16-1.94,2.38-2.87,4.06-.6,1.07-1.91,3.69-2.39,7.1-.76,5.44,1.04,9.84,1.91,11.66,.61,1.39,2.35,4.86,6.15,7.02,1.84,1.04,3.58,1.44,4.81,1.61h18.46c1.36-.2,3.06-.64,4.81-1.61,5.63-3.1,7.27-9.11,7.63-10.56v-8.62c-.13-2.19-.6-3.91-1.01-5.07-1.02-2.87-2.52-4.79-3.55-6.09-.13-.17-1.39-1.74-2.86-3.04-6.68-5.94-14.82-5.58-14.82-5.58-6.17,.24-10.71,3.56-12.43,5.07Z"/><path class="cls-2" d="M180.87,184.99c-.03,.94-.24,2.94-.24,2.94h0l-.08,.56c-2.43,1.5-5,2.8-7.68,3.87-1.06,.43-2.13,.82-3.23,1.17-4.94,1.61-10.21,2.47-15.69,2.47-1.4,0-2.79-.06-4.15-.17-4.18-.58-9.45-1.91-14.86-3.52l-2.65-1.15c-3.59-1.7-6.95-3.8-10.02-6.25h0c.35-3.19,1.38-7.14,2.21-11.3,1.14-5.79,1.77-6.77,2.59-10.03,.62-2.45,.9-3.63,1.52-4.93,.07-.17,.16-.33,.25-.51,.11-.21,.31-.58,.72-1.14,.73-.99,2.11-2.57,4.76-4.88,2.39-2.06,4.27-3.67,6.06-4.86,.28-.18,.55-.35,.83-.52,.02,0,.04-.03,.06-.03,.02-.02,.05-.03,.06-.04,1.6-.91,3.16-1.47,5-1.64,.06,0,.1,0,.16-.02,.04,0,.06,0,.1,0,.05,0,.08,0,.13,0,.05,0,.09,0,.15,0,.05,0,.09,0,.14,0h.02c.26-.02,.52-.03,.79-.03,.09,0,.18,.03,.29,.04h0c.44,.06,.97,.13,1.58,.22,1.17,.17,2.61,.39,4.21,.66,0,0,.02,0,.03,0,.18,.04,.36,.06,.54,.1,3.8,.67,8.31,1.67,11.89,3.03,1.04,.4,2.29,.93,3.55,2.03,.18,.16,.35,.31,.51,.48h0v.02c.54,.54,.96,1.11,1.34,1.75,.78,1.36,1.33,3.02,2.21,5.36,.02,.04,.03,.08,.05,.12,.8,2.14,1.29,3.26,1.66,4.08h0c.61,1.3,.93,1.82,1.84,4.41,.24,.7,.47,1.36,.68,1.97,1.32,3.83,2.06,6.22,2.35,9.15h0s0,.04,0,.05c.11,1.1,.42,3.58,.3,6.56Z"/><ellipse class="cls-2" cx="135.74" cy="149.3" rx="11.8" ry="11.74"/><ellipse class="cls-2" cx="161.09" cy="148.29" rx="11.8" ry="11.74"/><ellipse class="cls-2" cx="145.9" cy="138.19" rx="1.65" ry="1.42"/><polygon class="cls-2" points="147.11 152.82 142.7 154.22 140.93 144.45 148.19 144.45 147.11 152.82"/><polygon class="cls-2" points="148.02 152.42 152.44 153.75 154.2 144.45 146.95 144.45 148.02 152.42"/><line class="cls-4" x1="148.74" y1="152.65" x2="146.39" y2="143.04"/><path class="cls-1" d="M146.46,142.17c.85,1.05,.18,3.43-1.66,4.31s-4.24,.47-5.37-.93-.56-3.24,1.27-4.12,4.91-.31,5.76,.74Z"/><path class="cls-1" d="M146.6,143.09c.46-1.19,3.22-2.37,5.3-1.9s3.26,2.14,2.65,3.71-2.78,2.47-4.86,2-3.55-2.63-3.09-3.81Z"/><path class="cls-6" d="M141.63,138.68c-.85,1.08,.52,4.44,1.79,5.1s4.57,.66,5.84,0,2.64-4.02,1.79-5.1c-1.39-1.76-8.03-1.76-9.42,0Z"/><ellipse class="cls-2" cx="144.73" cy="138.64" rx="2.25" ry="1.29"/><path class="cls-6" d="M154.98,137.59c.06-.33,.37-.59,.71-.58s.63,.32,.66,.65v-.84s-.04,.01-.07,0h-.1l-.17-.04-.36-.05-.72-.1v.92h1.02v-.92c-.1,.05-.21,.09-.32,.09-.08,0-.19-.05-.2-.14v.85h0v.05c0-.09,.17-.26,.22-.12,0-.02,0-.12,0-.13,0-.11,0-.22,0-.32s0-.22,0-.32c0-.04,0-.1,0-.13-.03-.08-.11-.06-.16-.01-.03,.03-.05,.06-.06,.1,0,.03,0,.06,0,.09,0,.15,0,.31,0,.46,0,.13,0,.25,0,.38,0,.02,0,.04,.01,.06,.02,.05,.08,.08,.13,.09,.13,.03,.27-.03,.38-.08,0,0,0-.15,0-.13,0-.11,0-.22,0-.32,0-.03,0-.46,0-.46h-1.02s0,.42,0,.46-.01,.46,0,.46l.92,.13,.22,.03,.11,.02s.1,.02,.14,.02c.03,0,.02,.02,.03-.02,0,0,0-.03,0-.04,0-.08,0-.15,0-.23,0-.23,0-.46,0-.69-.02-.45-.47-.82-.92-.64-.23,.09-.41,.29-.45,.54,0,.04,0,.09,0,.13,0,.11,0,.22,0,.32s0,.22,0,.32c0,.04,.01,.09,0,.13h0Z"/><path class="cls-6" d="M137.23,137.79l.44-.35,.22-.18s.04-.04,.05-.04c.01-.02,.02-.01,.02,0v.03s.03,.08,.04,.11c.1,.29,.28,.54,.52,.73v-.92c-.54-.18-1.12-.18-1.67-.02v.92c.3-.1,.62-.14,.94-.12,0,0,0-.82,0-.9-.01-.22-.14-.43-.35-.52-.05-.02-.1-.04-.16-.04h-.03s-.04,0-.04,.02c-.03,.02-.04,.06-.06,.09l-.27,.39v.92c.24-.63,1.28-.68,1.59-.08,0-.02,0-.13,0-.13,0-.11,0-.22,0-.32s0-.22,0-.32c0-.03,.01-.1,0-.13-.31-.6-1.34-.55-1.59,.08-.01,.03,0,.11,0,.13,0,.11,0,.22,0,.32s0,.22,0,.32c0,.03,.02,.12,0,.13l.26-.37,.05-.08s.03-.06,.08-.05,.1,.02,.15,.04c.2,.08,.36,.28,.37,.49v-.9c-.32-.02-.63,.02-.94,.12,0,0,0,.15,0,.13,0,.11,0,.22,0,.32s0,.22,0,.32c0,.01,0,.13,0,.13,.54-.16,1.13-.16,1.67,.02,0,0,0-.16,0-.13,0-.11,0-.22,0-.32s0-.22,0-.32c0-.02,.01-.12,0-.13-.23-.19-.41-.45-.52-.73-.01-.03-.02-.07-.03-.1,0,0,0-.05-.01-.05,0,0-.05,.04-.05,.04l-.22,.18-.46,.36s0,.14,0,.13c0,.11,0,.22,0,.32s0,.22,0,.32c0,.02,.01,.13,0,.13h0Z"/><path class="cls-6" d="M169.92,190.6c0,.63-.05,1.66-.28,2.93-4.94,1.61-10.21,2.47-15.69,2.47-1.4,0-2.79-.06-4.15-.17-4.24-.21-9.52-1.44-14.86-3.52l-2.65-1.15c-.3-3.78,.21-7.98,1.63-12.22,.34-1.02,.67-2.03,1.02-3.05,.09-.22,.6-1.48,1.58-3.06h0s.05-.08,.07-.12c.09-.16,.19-.31,.3-.47,0,0,0,0,0,0,.05-.07,.09-.15,.16-.23,0,0,0-.02,.03-.04,0,0,0-.02,.03-.04,.3-.44,.66-.91,1.04-1.38,.02-.03,.04-.05,.06-.07,.1-.12,.2-.24,.31-.36,.31-.36,.66-.72,1.02-1.07h0c.16-.16,.3-.3,.47-.44,0,0,.03-.03,.05-.04l.19-.17h0l.02-.03c.21-.18,.43-.36,.66-.54h0s.07-.06,.11-.09c.05-.04,.09-.07,.14-.1,0,0,.03-.03,.05-.03,0,0,0,0,0,0,1.54-1.12,3.38-2,5.56-2.35,4.48-.73,8.21,1.16,10.81,2.96,.12,.08,.24,.17,.35,.25t.02,0h0c.43,.31,.83,.62,1.19,.9,.06,.05,.12,.09,.18,.13,.06,.05,.11,.09,.16,.13,.08,.06,.17,.12,.24,.18h0c.13,.1,.25,.2,.37,.31,.14,.1,.27,.21,.4,.33,.21,.18,.42,.35,.62,.54,.31,.3,.63,.59,.91,.89,.07,.07,.14,.14,.2,.21,.44,.46,.86,.93,1.25,1.41,.1,.11,.19,.23,.28,.35,.06,.06,.1,.12,.15,.18,.17,.21,.32,.43,.48,.65h0c2.3,3.19,3.62,6.59,4.39,9.49,.16,.6,.3,1.18,.42,1.73,0,.02,0,.03,0,.04v.02c.44,2.09,.59,3.76,.66,4.65Z"/><g><path class="cls-2" d="M168.09,159.88c-4.93,2.93-8.35,7.87-9.12,13.18-.18,1.26,.19,2.98,1.59,3.04,.11-1.71,.79-3.38,1.93-4.73-.38,1.04-.38,2.18-.01,3.22l1.63-1.66c.44,.69,1.21,1.21,2.06,1.4,.11-2.3,1.04-4.57,2.62-6.37,1.01-1.15,2.36-2.42,1.95-3.85-3.63,1.02-6.72,3.49-8.3,6.63,2.95-.67,4.96-3.34,5.43-6.08-2.56,.9-4.69,2.75-5.82,5.03,2.52,.15,4.96-1.83,5.08-4.12-1.9,.66-2.74,2.63-3.37,4.39-.16,.44-.32,.9-.23,1.36s.53,.89,1.04,.84c.29-.03,.54-.2,.77-.37,1.57-1.19,3.01-3.03,2.35-4.79-.14-.37-.4-.74-.81-.87-.52-.17-1.09,.11-1.54,.4-1.34,.86-2.46,1.99-3.26,3.29-.28,.45-.53,.93-.97,1.26s-1.13,.45-1.57,.12c2.02-3.52,4.53-6.82,7.43-9.78,.36-.37,.78-.76,1.32-.8,.64-.05,1.21,.43,1.42,.98s.15,1.15,.09,1.73l.07-2.1c.58,.39,1,.97,1.17,1.61-1.16-.65-2.15-1.56-2.85-2.62,1.56-.31,3.31,.51,3.93,1.84-.94,.46-2.09,.23-3.14,.34s-2.24,.98-1.82,1.87c0-1.2,.38-2.4,1.08-3.42-5.93,1.98-10.1,7.66-9.84,13.39,.33-2.43,.77-5.08,2.77-6.73-1.17,1.21-2.37,2.45-2.98,3.96s-.51,3.37,.7,4.54c-.67-.76-.89-1.82-.58-2.75-1,.82-1.2,2.32-.45,3.33-.03-1.13,.17-2.27,.6-3.33-.61,1.32-1.02,2.72-1.21,4.14l4.79-4.63c-.79,1.08-1.2,2.39-1.16,3.69,.23-.46,0-1.06-.51-1.29l-.46,1.98c-.37-1.77-.6-3.56-.68-5.36-1.81,1.79-2.86,4.19-2.92,6.62l3.31-4.07,1.26,2.64,3.23-3.47c-.26,.63-.28,1.34-.05,1.98,1.67-3.81,4.22-7.3,7.44-10.17,.31-.28,.66-.61,.63-1-.03-.47-.55-.76-1.01-.97l-3.78-1.75c-.39-.18-.79-.37-1.23-.4-.52-.04-1.03,.15-1.5,.36-3.07,1.36-5.46,3.83-6.96,6.63-1.5,2.79-2.18,5.91-2.43,9.01-.22-7.23,5.72-14.22,13.47-15.85-2.12-.19-4.24,.6-5.92,1.79-1.68,1.2-2.96,2.78-4.13,4.4-1,1.38-1.94,2.83-2.41,4.43s-.43,3.38,.45,4.82l-1.02-.84-.04,2.19c-.1-.57,0-1.16,.28-1.68l-.25,.84"/><path class="cls-2" d="M166.24,156.72c-4.48,2.84-7.97,6.73-9.84,11.74-1.55,4.14-1.96,9.62,3.18,11.18,2.53,.77,4.34-1.28,4.64-3.54,.15-1.13,.78-2,1.43-2.88l-6.7-2.82c-.44,1.84-.43,3.34-.01,5.17,.62,2.7,4.26,3.53,6.13,1.62l1.63-1.66h-5.18c1.04,1.21,2.21,1.81,3.68,2.34,2.46,.88,4.41-1.37,4.64-3.54,.44-4.08,4.61-5.94,4.57-10.22-.02-2.29-2.34-4.29-4.64-3.54-4.5,1.46-8.15,4.16-10.49,8.32-1.52,2.7,1.01,6.36,4.14,5.39,4.16-1.3,7-4.39,7.99-8.64,.56-2.42-1.76-5.65-4.51-4.51-3.46,1.44-6.12,3.41-8.01,6.71-1.32,2.3,.33,5.67,3.17,5.52,4.13-.23,7.79-2.54,8.61-6.81,.62-3.21-2.43-5.61-5.39-4.14-3.11,1.55-6.27,6.24-5.28,9.89,1.31,4.86,6.61,3.74,9.24,.85s3.5-8.14-.51-10.17c-1.7-.86-3.64-.53-5.24,.4-.91,.53-1.82,1.3-2.57,2.06-.48,.51-.93,1.04-1.34,1.61-1.13,1.14-.82,1.35,.94,.64l2.19,5.39c1.09-1.84,2.24-3.65,3.57-5.33,.51-.65,1.05-1.28,1.59-1.89,.41-.47,.83-.92,1.27-1.37,.82-.71,.5-.72-.95-.04l-2.19-1.68,.14,.59h7.33l.07-2.1-6.26,2.59,.6,.87,5.02-5.02c-.61-.32-1.12-.76-1.53-1.31l-3.17,5.52,.77,.03,2.19-5.39c-1.92,.51-3.68,.14-5.43,1.33-1.64,1.12-2.12,2.5-2.23,4.41-.27,4.77,6.86,4.61,7.33,0l.58-1.57c1.44-2.58-1-6.57-4.14-5.39-7.26,2.73-12.54,8.94-12.53,16.93,0,3.98,6.6,5.18,7.2,.97,.27-1.86,.44-3.73,1.82-5.11l-5.18-5.18c-3.91,4.1-6.09,8.75-2.27,13.68,2.57,3.32,7.89-.95,5.76-4.44l-.21,.07c.44-3.14-3.49-6.76-6.13-3.57-2.06,2.49-2.38,4.85-1.03,7.78,1.62,3.51,6.69,1.49,6.83-1.85-.02-.82,.14-1.61,.47-2.36,1.5-4.61-5.3-6.16-7.07-1.95-.57,1.37-.96,2.68-1.21,4.14-.59,3.47,3.32,6.28,6.13,3.57l4.79-4.63-5.76-4.44c-1.08,1.76-1.55,3.48-1.66,5.54h7.33c.05-1.69-.45-2.68-1.58-3.88-1.85-1.96-5.51-1.05-6.13,1.62l-.46,1.98h7.07c-.28-1.47-.45-2.9-.55-4.39-.19-2.97-3.99-5.1-6.26-2.59-2.44,2.7-3.7,5.59-3.99,9.21-.24,3.04,4.28,5.02,6.26,2.59l3.31-4.07-5.76-.74,1.26,2.64c1,2.11,4.25,2.36,5.76,.74l3.23-3.47-6.13-3.57c-.3,1.44-.28,2.49-.05,3.93,.47,3.04,5.43,3.63,6.7,.88,1.08-2.33,2.34-4.53,4.01-6.51,1.37-1.62,3.5-2.94,4.24-5,1.67-4.58-4.41-6.99-7.78-7.98-4.06-1.19-8.36,2.13-10.85,5.07-3.45,4.08-4.76,9.04-5.29,14.26h7.33c.05-6.29,4.94-10.89,10.78-12.31,4.04-.99,3.14-7.2-.97-7.2-9.46,0-19.6,11.7-15.17,20.96l5.76-4.44-1.02-.84c-2.39-1.98-6.2-.77-6.26,2.59l-.04,2.19h7.33l.14-.7-7.07-1.95-.25,.84c-1.37,4.53,5.7,6.46,7.07,1.95l.25-.84c1.38-4.55-5.55-6.37-7.07-1.95-.32,.93-.41,1.66-.41,2.65,.04,4.72,7.24,4.72,7.33,0l.04-2.19-6.26,2.59,1.02,.84c3.22,2.67,7.6-.59,5.76-4.44-.98-2.05,1.23-4.65,2.41-6.14,1.69-2.14,3.54-3.79,6.43-3.79l-.97-7.2c-9.01,2.2-16.09,9.9-16.17,19.38-.04,4.81,6.87,4.6,7.33,0,.34-3.4,1.23-6.83,3.5-9.48,.71-.82,1.96-2.28,3.07-2.5,.93-.05,1.78,.19,2.55,.71,1.28,.8,1.6,.88,.96,.24l-.37-2.82c.57-1.66-.96,.58-1.37,1.01-.92,.95-1.75,1.97-2.55,3.02-1.5,1.97-2.73,4.02-3.77,6.27l6.7,.88,.05-.03c.72-3.39-3.48-6.4-6.13-3.57l-3.23,3.47,5.76,.74-1.26-2.64c-.95-2-4.33-2.49-5.76-.74l-3.31,4.07,6.26,2.59c.13-1.62,.76-2.84,1.84-4.03l-6.26-2.59c.14,2.14,.41,4.23,.81,6.34,.68,3.57,6.28,3.42,7.07,0l.46-1.98-6.13,1.62,.52,.56-1.07-2.59-.02,.73c-.13,4.74,7.07,4.69,7.33,0-.02-.7,.2-1.31,.66-1.84,2.2-3.6-2.79-7.31-5.76-4.44l-4.79,4.63,6.13,3.57c.25-1.46,.64-2.78,1.21-4.14l-7.07-1.95c-.47,1.43-.67,2.8-.73,4.3l6.83-1.85-.12,1.11-6.13-3.57c-.3,2.13-.2,3.69,.95,5.58l5.76-4.44c-.54-.7,1.89-2.91,2.27-3.31,3.26-3.41-1.84-8.53-5.18-5.18-2.34,2.34-3.25,5.14-3.71,8.35l7.2,.97c0-4.54,2.94-8.28,7.15-9.86l-4.14-5.39c-.98,1.75-1.38,3.29-1.58,5.27h7.33l.05-.86-1.07,2.59c.22-.21,2.8-.28,3.29-.41,2.16-.58,3.53-3.41,2.19-5.39-1.69-2.48-4.06-3.84-7.1-3.66-2.48,.15-4.96,3.12-3.17,5.52,1.21,1.62,2.45,2.85,4.16,3.94,3.32,2.11,6.5-1.93,5.02-5.02-.49-1.02-.93-1.57-1.74-2.35-2.33-2.24-6.15-.58-6.26,2.59l-.07,2.1c-.16,4.75,7.01,4.67,7.33,0,.29-4.2-3.59-8.06-7.75-5.6-3.89,2.3-7.11,7.84-9.34,11.62-1.18,1.99-.11,4.82,2.19,5.39,2.09,.51,3.8,.18,5.4-1.35,.69-.66,1.1-1.52,1.7-2.25,.41-.58,.91-1.06,1.52-1.44-1.63-1.65-3.12-1.88-4.46-.7l2.82-.37-.67-.23,2.19,1.68c.13,1.15,.33,1.14,.59-.04,.21-.67,.65-1.11,1.33-1.3l-5.39-4.14c0,.98-.51,1.46-1.54,1.43l3.17,5.52c.87-1.53,1.97-2.65,3.63-3.34l-4.51-4.51c-.4,1.71-1.12,2.97-2.87,3.52l4.14,5.39c1.41-2.51,3.37-4.05,6.11-4.95l-4.64-3.54c.01,.99-2.51,3.37-3.06,4.47-.93,1.85-1.29,3.71-1.51,5.75l4.64-3.54-.45-.46c-1.29-1.49-3.88-1.34-5.18,0l-1.63,1.66,6.13,1.62v-1.27c1.02-4.24-4.28-6.08-6.69-2.82-1.51,2.05-2.1,4.09-2.43,6.59l4.64-3.54c.79,1.42,1.17,1.56,1.16,.42l.26-1.04c.36-1.28,.9-2.45,1.59-3.58,1.36-2.23,3.2-3.92,5.4-5.31,3.98-2.52,.3-8.87-3.7-6.33h0Z"/></g><g><path class="cls-2" d="M135.76,164.31c1.57-.14,3.11,.71,4.32,1.94s2.12,2.84,2.99,4.46c-1.45-2.97-4.17-4.94-6.99-5.05,2.68,.56,5.05,2.96,6.02,6.09l-2.32-3.53c1.67,1.8,2.7,4.48,2.77,7.21l-1.07-2.98c.56,.56,.9,1.42,.92,2.3,.06-1.6-.12-3.22-.54-4.74,.75,1.79,1.18,3.79,1.25,5.8-.61-1.67-1.48-3.19-2.53-4.48l.62,3.47c-.82-1.46-1.79-2.79-2.89-3.95,.59,1.51,1.29,2.95,2.09,4.3-.53-1.52-1.29-2.9-2.24-4.07,.66,1.3,.94,2.89,.77,4.41-.25-.7-.51-1.4-.84-2.04-1.21-2.36-3.31-3.75-5.31-5.05,1.19,1.38,2.45,2.68,3.77,3.89-1.22-1.83-2.66-3.43-4.27-4.73,2.38,.65,4.65,1.84,6.67,3.51l-5.56-3.56c1.67,.21,3.3,.9,4.71,2.01l-2.72-2.78,3.34,2.06c-1.14-1.79-3.09-2.75-4.93-2.43-.76,.13-1.53,.47-2.26,.19s-1.23-1.57-.63-2.16c.29-.28,.69-.27,1.05-.22,1.78,.24,3.51,1.04,4.98,2.31-.54-2.09-2.4-3.53-4.16-3.23-.2,.03-.4,.1-.53,.28-.21,.3-.13,.76,0,1.12,.33,.96,.88,1.81,1.57,2.41l-3.18-2.39c.17-.82,1.09-.85,1.77-.7,2.81,.63,5.68,1.28,8.14,3.05s4.47,4.92,4.45,8.43c-.8-1.38-1.54-2.82-2.2-4.31,.78,1.12,1.18,2.63,1.07,4.1-.67-.28-1.29-.74-1.8-1.34,.68,.99,1.51,1.83,2.43,2.46,.08-.93-.09-1.89-.5-2.67l.58,2.02-.24-.9,.07,1.38c-1.21-2.38-2.95-4.34-4.98-5.63-.5-.32-1.05-.6-1.61-.57s-1.15,.47-1.27,1.15,.42,1.46,.96,1.26l-2.24-2.03,1.83,3.6-1.62-3.97c1.43,1,2.33,3.03,2.24,5.05,.49-.73,.77-1.69,.76-2.64l-.31,2.95c.07-.6,.4-1.14,.85-1.39l2.5,3.34c-.31-.95-.75-1.83-1.3-2.6l1.5,2.43c.11-1.06,.04-2.15-.21-3.18,1.63,.79,3.07,2.18,4.08,3.94,.18-5.54-3.39-10.9-7.84-11.77,1.88,.87,3.36,2.96,3.81,5.38"/><path class="cls-2" d="M135.76,167.98c2.08,.03,3.31,3.05,4.14,4.58l6.33-3.7c-2.18-4-5.63-6.41-10.16-6.87-4.19-.42-4.87,6.13-.97,7.2,1.78,.49,2.85,1.82,3.46,3.53l6.7-2.82-2.32-3.53-5.76,4.44c1.09,1.3,1.59,2.94,1.7,4.62l7.2-.97-1.07-2.98-6.7,2.82c.43,.37,.61,.85,.55,1.43,.6,4.18,7.16,3.03,7.2-.97,.02-1.94-.21-3.83-.67-5.72l-7.07,1.95c.6,1.59,1.01,3.13,1.12,4.83l7.2-.97c-.78-1.94-1.63-3.69-2.9-5.35-2.51-3.28-7.47-1.44-6.7,2.82l.62,3.47,6.7-2.82c-1-1.68-2.15-3.23-3.46-4.69-2.33-2.61-7.53,.14-6.13,3.57,.73,1.78,1.51,3.5,2.46,5.17,2,3.49,8.23,1.15,6.7-2.82-.69-1.79-1.45-3.41-2.61-4.94-2.86-3.79-8.21-.66-6.33,3.7,.36,.83,.31,1.69,.27,2.56l7.2-.97c-1.59-4.25-4.08-6.83-7.83-9.28-3.64-2.38-7.09,2.77-4.44,5.76,1.2,1.36,2.45,2.65,3.77,3.89,2.9,2.73,8.23-.88,5.76-4.44-1.41-2.03-2.95-3.87-4.85-5.47l-3.57,6.13c1.84,.56,3.54,1.38,5.06,2.57l4.44-5.76-5.56-3.56-2.82,6.7c1.51,.26,2.6,.75,3.84,1.64,3.46,2.47,7.27-2.86,4.44-5.76l-2.72-2.78-4.44,5.76,3.34,2.06c2.95,1.81,7.28-2,5.02-5.02-1.57-2.1-3.36-3.68-6.03-4.15-.94-.17-2.54-.35-3.42,.12-1.04,.1-1.2,.95-.48,2.53-.85,1.55-.74,2.41,.34,2.57,.54,.43,1.46,.61,2.04,1.07,2.56,2.02,7.46,.28,6.13-3.57-1.22-3.5-4.59-6.92-8.67-5.79-5.14,1.42-3.21,7.16-.59,9.94l4.44-5.76-3.18-2.39,1.32,5.02c-2.15,.57-2.63,.97-1.44,1.2,.63,.14,1.25,.3,1.87,.47,1.26,.35,2.51,.75,3.62,1.46,2.07,1.32,3.36,3.34,3.47,5.81l6.83-1.85c-.8-1.41-1.53-2.84-2.2-4.31l-6.33,3.7c.49,.84,.58,1.27,.57,2.25l5.52-3.17c-.44-.14-.79-.39-1.06-.76-2.82-2.87-8.33,1.04-5.76,4.44,1.13,1.49,2.26,2.64,3.75,3.77,2.29,1.75,5.52-.64,5.52-3.17,0-1.29-.16-2.45-.63-3.65-1.68-4.29-8.41-2.69-7.07,1.95l.58,2.02c1.31,4.52,8.32,2.62,7.07-1.95l-.24-.9c-1.07-3.9-7.42-3.24-7.2,.97l.07,1.38,6.83-1.85c-1.95-3.56-6.28-9.11-11.01-7.8-4.48,1.25-5.08,8.55-.04,9.4,3.29,.55,6.54-3.44,3.57-6.13l-2.24-2.03c-3.11-2.81-7.67,.7-5.76,4.44l1.83,3.6c1.85,3.63,8.29,1.06,6.7-2.82l-1.62-3.97-6.13,3.57c.87,.73,1.14,1.32,1.17,2.46,.08,3.48,5.09,5.19,6.83,1.85,.78-1.5,1.11-2.81,1.26-4.49,.42-4.72-6.84-4.63-7.33,0l-.31,2.95c-.46,4.32,5.94,4.67,7.2,.97l-.1,.22-5.76-.74,2.5,3.34c2.25,3,8.31,1.42,6.7-2.82-.47-1.23-.96-2.36-1.67-3.47-2.54-3.95-8.82-.34-6.33,3.7l1.5,2.43c1.95,3.17,6.65,1.76,6.83-1.85,.07-1.43-.08-2.75-.34-4.15l-5.39,4.14c1.22,.67,2.03,1.45,2.76,2.63,1.89,3.03,6.85,1.87,6.83-1.85-.03-6.64-3.73-13.58-10.53-15.3-3.96-1-6.54,4.63-2.82,6.7,1.32,.74,1.78,1.76,2.12,3.19,1.1,4.59,8.17,2.64,7.07-1.95-.77-3.21-2.58-5.94-5.49-7.57l-2.82,6.7c3.61,.92,5.13,4.82,5.15,8.23l6.83-1.85c-1.38-2.2-3.1-4.01-5.39-5.26-2.97-1.62-5.96,1.04-5.39,4.14,.15,.73,.17,1.46,.08,2.2l6.83-1.85-1.5-2.43-6.33,3.7c.39,.53,.7,1.1,.93,1.72l6.7-2.82-2.5-3.34c-1.39-1.85-3.94-2.57-5.76-.74-.93,.93-1.37,1.77-1.79,3.01l7.2,.97,.31-2.95h-7.33l-.26,.79,6.83,1.85c-.07-2.93-1.03-5.71-3.31-7.64-2.46-2.08-7.65-.17-6.13,3.57l1.62,3.97,6.7-2.82-1.83-3.6-5.76,4.44,2.24,2.03,3.57-6.13-.52-.09,2.19,1.68c-3.03,1.6-3.65,2.86-1.86,3.78,.36,.3,.69,.63,1.01,.97,.8,.86,1.37,1.8,1.93,2.82,1.71,3.12,7.02,1.8,6.83-1.85l-.07-1.38-7.2,.97,.24,.9,7.07-1.95-.58-2.02-7.07,1.95c.31,.53,.43,1.09,.37,1.7l5.52-3.17c-.41-.35-.78-.73-1.12-1.14l-5.76,4.44c.76,.77,1.58,1.41,2.54,1.91,2.44,1.26,5.51-.28,5.52-3.17,0-2.17-.47-4.08-1.57-5.95-2.44-4.15-8.26-.52-6.33,3.7,.67,1.47,1.4,2.91,2.2,4.31,1.75,3.09,7,1.82,6.83-1.85-.24-5.37-3.15-10.13-7.97-12.62-3.54-1.83-10.75-4.69-13.23-.01-1.01,1.91-.33,3.78,1.32,5.02l3.18,2.39c3.43,2.58,7.18-2.84,4.44-5.76-.55-1.03-.76-1.02-.62,.03l-1.68,2.19c-1.13,.59-1.03-.22-.69,.76l6.13-3.57c-3.13-2.47-10.16-5.99-12.23-.37-.81,2.19,.17,4.77,2.14,6.01,1.01,.63,2.15,.79,3.33,.72,1.08-.07,2.01-.67,2.79,.39l5.02-5.02-3.34-2.06c-3.58-2.21-7.33,2.8-4.44,5.76l2.72,2.78,4.44-5.76c-1.69-1.21-3.54-2.02-5.59-2.38-4-.69-6.49,4.36-2.82,6.7l5.56,3.56c3.44,2.2,7.76-3.16,4.44-5.76-2.55-2-5.17-3.51-8.29-4.46-3.37-1.02-6.41,3.72-3.57,6.13,1.41,1.19,2.64,2.47,3.7,3.99l5.76-4.44c-1.32-1.24-2.57-2.53-3.77-3.89l-4.44,5.76c2.05,1.34,3.58,2.53,4.47,4.9,1.43,3.82,6.97,3.31,7.2-.97,.12-2.29-.37-4.18-1.27-6.26l-6.33,3.7c.76,1,1.41,2.01,1.87,3.19l6.7-2.82c-.64-1.11-1.24-2.24-1.72-3.42l-6.13,3.57c.9,1.01,1.62,2.05,2.31,3.21,2.22,3.74,7.41,1.14,6.7-2.82l-.62-3.47-6.7,2.82c.86,1.13,1.63,2.28,2.17,3.6,1.41,3.49,7.5,3.53,7.2-.97-.16-2.35-.54-4.57-1.38-6.78-1.65-4.34-8.19-2.72-7.07,1.95,.31,1.28,.42,2.46,.4,3.77l7.2-.97c-.17-1.19-.57-2.21-1.29-3.18-2.26-3.04-8.22-1.43-6.7,2.82l1.07,2.98c1.3,3.65,7.49,3.42,7.2-.97-.25-3.75-1.42-6.92-3.85-9.8-2.67-3.18-8.04,.97-5.76,4.44l2.32,3.53c2.16,3.29,8.17,1.29,6.7-2.82-1.48-4.14-4.22-7.46-8.58-8.65l-.97,7.2c1.85,.19,3.01,1.74,3.82,3.24,2.26,4.15,8.59,.45,6.33-3.7-2.26-4.17-5.31-8.15-10.47-8.21-4.72-.06-4.72,7.27,0,7.33h0Z"/></g></g><g><path class="cls-2" d="M144.13,124.59c-1.8,.05-3.85-.11-4.96-1.53-.78-1-.84-2.51-.14-3.57,.38,1.44,.94,2.84,1.66,4.14,.22,.4,.45,.79,.78,1.11,.76,.74,1.88,.94,2.93,1.11-1.44-.68-2.92-1.39-3.99-2.57s-1.63-2.97-.94-4.41c.02,.83-.4,1.67-.16,2.46,.12,.39,.39,.72,.67,1.02,1.26,1.32,2.96,2.22,4.76,2.52-1.17-.11-2.27-.64-3.26-1.27-.85-.54-1.68-1.17-2.2-2.03s-.69-1.99-.2-2.88c-1.12,1.37-.56,3.57,.77,4.73s3.17,1.54,4.93,1.72c-1.64-.28-3.14-1.33-3.98-2.77s-.99-3.26-.41-4.83c-1.08,1.03-2.08,2.33-2.04,3.82,.03,1.11,.67,2.16,1.56,2.83s2.01,.99,3.12,1.07c-.65-.36-1.38-.81-1.5-1.55-.08-.52,.17-1.04,.42-1.51l1.11-2.07c-.7,.8-1.44,1.84-1.04,2.82,.15,.37,.44,.65,.74,.91,.62,.55,1.35,1.05,2.18,1.1-1-.31-1.86-1.13-2.12-2.14s.18-2.2,1.08-2.73c-.78,.39-1.01,1.46-.7,2.27s1.04,1.39,1.8,1.82c-1.24-.87-1.88-2.52-1.55-4-.67,1.16-.07,2.72,.98,3.56s2.42,1.12,3.73,1.38c-.86-.2-1.72-.58-2.25-1.28s-.63-1.78-.05-2.44c-.38,.46-.78,.93-.95,1.51s-.05,1.28,.44,1.62c-.27-.66-.54-1.34-.51-2.05s.47-1.45,1.17-1.6c-.5,.68-.57,1.65-.16,2.39s1.26,1.21,2.1,1.15c-2.32,.17-4.65,.05-6.94-.36-1.29-.23-2.82-.79-3.03-2.09-.15-.95,.5-1.82,1.12-2.56-.74,2.17,.52,4.83,2.67,5.62-1.26-.98-2.07-2.51-2.18-4.09-.43,.74-.88,1.65-.5,2.42,.48,.98,1.85,.97,2.85,1.41-1.03-.18-2.1-.38-2.91-1.05s-1.21-1.94-.58-2.77c-.29,.65-.33,1.41-.05,2.06,.59,1.35,2.27,1.75,3.73,1.98-.95-.21-1.97-.16-2.86-.53s-1.65-1.43-1.21-2.3c-.34,.75,.08,1.67,.75,2.16s1.51,.64,2.32,.79c-.8,.02-1.52-.43-2.19-.86-.84-.54-1.77-1.23-1.87-2.22-.09-.83,.44-1.59,1.01-2.2,.79-.85,1.71-1.58,2.72-2.15-1.83,.47-3.39,1.88-4.04,3.65,.84-1.61,2.21-2.95,3.84-3.76-.58,.65-.82,1.56-.84,2.43-.06,2.02,.95,4.04,2.59,5.21"/><path class="cls-2" d="M144.13,124.13c-1.31,.03-2.77,0-3.91-.72-1.25-.8-1.57-2.44-.8-3.69l-.84-.11c.44,1.61,1.06,3.25,1.95,4.67s2.23,1.76,3.73,2.01c.47,.08,.86-.6,.35-.84-1.37-.65-2.79-1.31-3.84-2.43-.95-1.02-1.53-2.59-.93-3.92l-.85-.23c0,.86-.39,1.72-.14,2.58,.21,.73,.83,1.31,1.39,1.78,1.25,1.07,2.75,1.78,4.37,2.08l.12-.9c-1.43-.16-2.84-.95-3.95-1.85s-2-2.27-1.32-3.64c.27-.54-.44-.92-.79-.46-1.13,1.47-.68,3.57,.45,4.9,1.37,1.61,3.64,2.03,5.63,2.24,.51,.05,.63-.8,.12-.9-3.25-.61-5.16-3.91-4.07-7.04,.16-.45-.45-.75-.77-.45-1.43,1.38-2.72,3.32-1.93,5.38s2.84,2.97,4.89,3.13c.46,.04,.61-.64,.23-.85-.78-.43-1.55-.93-1.15-1.94,.35-.88,.9-1.72,1.34-2.56,.23-.44-.37-.97-.72-.56-.83,.96-1.77,2.32-1,3.59,.64,1.06,1.98,1.89,3.19,2.02,.54,.06,.59-.74,.12-.9-.84-.28-1.59-.94-1.8-1.82-.2-.84,.14-1.75,.87-2.22,.49-.32,.05-1.08-.46-.79-.86,.49-1.19,1.5-1.01,2.44,.23,1.12,1.18,1.89,2.11,2.44,.52,.31,.93-.45,.46-.79-1.07-.79-1.6-2.18-1.34-3.49,.1-.48-.58-.84-.84-.35-.67,1.27-.26,2.77,.7,3.78,1.1,1.17,2.78,1.53,4.29,1.83,.57,.11,.82-.74,.24-.88-.71-.17-1.45-.45-1.93-1.03-.43-.52-.61-1.36-.16-1.93,.36-.45-.27-1.11-.65-.65-.85,1.01-1.84,2.69-.51,3.78,.31,.25,.96,.03,.77-.45-.35-.87-1.03-2.71,.34-3.09l-.52-.67c-1.24,1.84,.12,4.28,2.33,4.23v-.92c-2.35,.16-4.8,.1-7.11-.4-.75-.16-1.64-.42-2.13-1.05-.73-.94,.11-2.04,.72-2.78l-.77-.45c-.79,2.48,.59,5.25,2.99,6.19,.42,.16,.8-.48,.45-.77-1.16-.94-1.92-2.27-2.05-3.77-.04-.43-.61-.65-.85-.23-.58,1-1.12,2.33-.2,3.31,.72,.77,1.89,.81,2.82,1.2l.24-.88c-.9-.16-1.91-.31-2.66-.89-.68-.52-1.08-1.49-.56-2.25l-.84-.35c-.48,1.21-.24,2.58,.78,3.42,.9,.75,2.1,1,3.22,1.18,.57,.09,.83-.77,.24-.88-.86-.17-1.76-.15-2.59-.43-.65-.22-1.54-.94-1.21-1.73l-.84-.35c-.32,.84,0,1.77,.61,2.39,.73,.73,1.79,.95,2.77,1.12l.12-.9c-.89-.02-1.68-.59-2.39-1.08-.63-.45-1.35-1.09-1.21-1.95s.84-1.49,1.41-2.03c.63-.59,1.33-1.1,2.08-1.53,.45-.26,.15-.97-.35-.84-2.02,.55-3.61,2.03-4.36,3.97-.19,.49,.6,.81,.84,.35,.84-1.56,2.1-2.79,3.68-3.59l-.56-.72c-2.16,2.58-.57,6.59,1.84,8.36,.48,.35,.93-.45,.46-.79-1.05-.77-1.81-1.89-2.16-3.14s-.36-2.76,.5-3.78c.33-.4-.08-.96-.56-.72-1.71,.87-3.1,2.23-4.01,3.92l.84,.35c.63-1.64,2.04-2.87,3.72-3.33l-.35-.84c-.98,.57-1.89,1.26-2.68,2.08-.69,.72-1.36,1.62-1.27,2.67,.07,.94,.75,1.64,1.46,2.18,.89,.67,1.91,1.33,3.06,1.36,.51,.01,.64-.81,.12-.9-1.13-.2-3.38-.74-2.75-2.38,.18-.48-.64-.83-.84-.35-.41,.97-.01,1.94,.79,2.57,1.01,.79,2.36,.69,3.56,.93l.24-.88c-.87-.14-1.78-.31-2.55-.77-.99-.6-1.23-1.66-.81-2.71,.2-.51-.56-.76-.84-.35-.64,.93-.38,2.16,.31,2.99,.84,1,2.22,1.28,3.45,1.5,.59,.11,.78-.66,.24-.88-.67-.28-1.46-.34-2.09-.71-.98-.57-.42-1.69,.01-2.45l-.85-.23c.15,1.73,.96,3.32,2.32,4.42l.45-.77c-1.95-.76-2.98-3.09-2.35-5.06,.13-.42-.47-.8-.77-.45-.73,.88-1.51,1.94-1.21,3.15,.24,.98,1.12,1.57,2.01,1.91,1.16,.45,2.47,.56,3.7,.68,1.56,.15,3.12,.16,4.68,.05,.58-.04,.6-.93,0-.92-1.54,.04-2.39-1.59-1.54-2.85,.23-.34-.15-.78-.52-.67-.71,.2-1.21,.76-1.41,1.47-.27,.93,.08,1.89,.43,2.75l.77-.45c-.89-.73-.03-1.84,.51-2.48l-.65-.65c-.63,.8-.68,1.84-.19,2.73,.55,.99,1.64,1.5,2.69,1.75l.24-.88c-1.19-.24-2.48-.48-3.48-1.23-.9-.67-1.53-1.97-.96-3.04l-.84-.35c-.34,1.74,.34,3.47,1.76,4.52l.46-.79c-.65-.38-1.32-.86-1.6-1.59-.23-.61-.1-1.37,.5-1.71l-.46-.79c-1.03,.66-1.55,1.89-1.32,3.1,.24,1.28,1.28,2.22,2.47,2.62l.12-.9c-.86-.09-1.76-.74-2.29-1.41-.7-.9,.15-1.95,.74-2.64l-.72-.56c-.34,.63-.67,1.26-1.01,1.88-.27,.51-.57,1.04-.6,1.63-.05,1.1,.87,1.76,1.73,2.24l.23-.85c-1.68-.13-3.48-.91-4.06-2.62s.6-3.21,1.75-4.32l-.77-.45c-1.25,3.57,1,7.47,4.71,8.17l.12-.9c-1.66-.18-3.54-.51-4.77-1.74-1.04-1.04-1.47-2.78-.52-4.02l-.79-.46c-1.74,3.52,3.14,6.55,6.06,6.87,.51,.06,.63-.81,.12-.9-1.4-.25-2.72-.82-3.82-1.72-.51-.41-1.18-.95-1.32-1.62-.15-.72,.19-1.49,.2-2.21,0-.43-.66-.66-.85-.23-.68,1.52-.32,3.23,.66,4.54,1.1,1.48,2.81,2.3,4.43,3.07l.35-.84c-.66-.11-1.34-.21-1.95-.49-.67-.3-1.08-.81-1.43-1.44-.73-1.3-1.27-2.68-1.66-4.12-.11-.39-.63-.44-.84-.11-.91,1.46-.67,3.45,.65,4.59s3.18,1.24,4.84,1.2c.59-.01,.59-.93,0-.92h0Z"/></g></g><path class="cls-6" d="M.95,59.76c0,31.92,30.29,57.79,67.64,57.79,4.64,.02,9.27-.37,13.84-1.16l24.55,13.21c.65,.35,1.38,.5,2.11,.44,.73-.07,1.43-.35,2-.81,.57-.46,.99-1.08,1.21-1.78,.22-.7,.22-1.45,.01-2.15l-5.32-17.95c17.65-10.43,29.22-27.84,29.22-47.56,0-31.92-30.29-57.79-67.63-57.79-37.36,0-67.64,25.85-67.64,57.76Z"/><path class="cls-2" d="M48.82,43.42v20.49h4.18v5.02h-4.18v8.04h-5.38v-8.04h-15.73v-4.98c2.61-3.41,5.17-6.83,7.69-10.27,2.52-3.44,5.08-6.86,7.69-10.27h5.73Zm-5.38,20.58v-11.47c.03-.53,.06-1.1,.09-1.69l-9.78,13.16h9.69Z"/><path class="cls-2" d="M78.85,60.49c0,2.93-.31,5.48-.93,7.64-.62,2.13-1.5,3.91-2.62,5.33-1.1,1.39-2.4,2.43-3.91,3.11s-3.16,1.02-4.93,1.02-3.33-.34-4.84-1.02c-1.48-.68-2.79-1.72-3.91-3.11-1.1-1.42-1.96-3.2-2.58-5.33-.62-2.16-.93-4.71-.93-7.64s.31-5.51,.93-7.64c.62-2.16,1.48-3.94,2.58-5.33,1.13-1.42,2.43-2.47,3.91-3.16,1.51-.68,3.13-1.02,4.84-1.02s3.42,.34,4.93,1.02c1.51,.68,2.81,1.73,3.91,3.16,1.13,1.39,2,3.17,2.62,5.33,.62,2.13,.93,4.68,.93,7.64Zm-6.22,0c0-2.37-.18-4.33-.53-5.87-.33-1.57-.77-2.8-1.33-3.69-.56-.92-1.23-1.56-2-1.91-.74-.39-1.51-.58-2.31-.58s-1.53,.19-2.27,.58c-.71,.36-1.35,.99-1.91,1.91-.56,.89-1.02,2.12-1.38,3.69-.33,1.54-.49,3.5-.49,5.87s.16,4.28,.49,5.82c.36,1.54,.81,2.77,1.38,3.69,.56,.92,1.2,1.56,1.91,1.91,.74,.35,1.5,.53,2.27,.53s1.57-.18,2.31-.53c.77-.36,1.44-.99,2-1.91,.56-.92,1.01-2.15,1.33-3.69,.36-1.54,.53-3.48,.53-5.82Z"/><path class="cls-2" d="M101.77,43.42v20.49h4.18v5.02h-4.18v8.04h-5.38v-8.04h-15.73v-4.98c2.61-3.41,5.17-6.83,7.69-10.27,2.52-3.44,5.08-6.86,7.69-10.27h5.73Zm-5.38,20.58v-11.47c.03-.53,.06-1.1,.09-1.69l-9.78,13.16h9.69Z"/><path class="cls-5" d="M166.16,145.88c-.12,.75,.02,2.26,1.1,2.26s1.18-1.5,1.1-2.26"/><path class="cls-5" d="M163.36,140.26c-.12,.75,.02,2.26,1.1,2.26s1.18-1.5,1.1-2.26"/><path class="cls-5" d="M170.1,117.48c1.03-.72,2.59-2.66,1.21-4.04s-3.27,.23-4.04,1.21"/><path class="cls-5" d="M168.4,126.42c1.03-.72,2.59-2.66,1.21-4.04s-3.27,.23-4.04,1.21"/><path class="cls-5" d="M178.56,119.51c1.34-1.03,3.52-3.59,2.14-4.97s-3.89,.85-4.97,2.14"/></svg>