<?xml version="1.0" encoding="utf-8"?>
<!-- Generator: Adobe Illustrator 26.3.1, SVG Export Plug-In . SVG Version: 6.00 Build 0)  -->
<svg version="1.1" id="Layer_1" xmlns="http://www.w3.org/2000/svg" xmlns:xlink="http://www.w3.org/1999/xlink" x="0px" y="0px"
	 viewBox="0 0 300 300" style="enable-background:new 0 0 300 300;" xml:space="preserve">
<style type="text/css">
	.st0{fill:#939393;}
	.st1{fill:none;stroke:#EDEDED;stroke-linecap:round;stroke-miterlimit:10;}
	.st2{fill:#EDEDED;}
	.st3{fill:none;stroke:#EDEDED;stroke-linecap:round;stroke-linejoin:round;stroke-miterlimit:10;}
	.st4{fill:none;stroke:#939393;stroke-linecap:round;stroke-miterlimit:10;}
	.st5{fill:#EDEDED;stroke:#939393;stroke-linecap:round;stroke-miterlimit:10;}
	.st6{fill:none;stroke:#939393;stroke-miterlimit:10;}
</style>
<g>
	<g>
		<g>
			<path class="st0" d="M271.75,283.31l12.81-10.12c3.18-3.09,6.08-6.48,8.65-10.09l6.54-10.9c0.04-0.31,0.08-0.61,0.11-0.92
				c0.03-0.24,0.06-0.49,0.07-0.74c0.99-14.23-8.47-31.17-20.37-32.61c-1.35-0.15-6.47-0.78-10.8,2.84
				c-4.64,3.86-6.2,10.76-7.53,18.12c-1.27,7.04-2.33,14.51-5.66,20.15c-0.43,0.72-1.64,2.69-2.4,5.67c-1.17,4.64-0.47,8.74,0,11.34
				c0.07,0.35,0.14,0.74,0.22,1.16c0.15,0.78,0.35,1.66,0.63,2.61c0,0.03,0.01,0.04,0.01,0.06c0,0.01,0,0.01,0,0.03
				c0.54,1.85,1.37,3.96,2.73,6.08c0.74,1.14,1.6,2.48,2.72,3.6c4.04-1.62,7.93-3.58,11.59-5.84L271.75,283.31z"/>
			<path class="st1" d="M292.95,260.94c-1.11-1.31-1.25-0.89-2.79-2.79c-2.12-2.84-4.24-4.99-6.31-8.43
				c-1.35-2.26-2.75-4.67-4.24-7.32c-0.53-0.93-0.99-1.92-1.37-2.94c-3.29-8.57-1.98-19.18-1.98-19.18"/>
			<path class="st1" d="M284.59,272.09c-0.75-0.61-3.47-1.87-6.55-5.99c-2.16-2.88-4.5-6.63-6.51-11.25
				c-0.08-0.18-0.17-0.38-0.24-0.56c-1.49-3.54-2.42-6.88-2.98-9.84c-1.35-7.16-0.57-12.05-0.57-12.05"/>
			<path class="st1" d="M259.1,259.31c0,0,0.91,3.09,3.05,9.62c0.26,0.79,0.54,1.63,0.84,2.52c1.03,3.08,2.62,5.59,4.24,7.54
				c1.45,1.78,2.93,3.08,3.99,3.9v0.01"/>
			<path class="st1" d="M263.67,245.05c0,0,3.31,0.71,11.07-3.17c7.76-3.88,14.72-17.81,14.72-17.81"/>
			<path class="st1" d="M261.57,254.83c0,0,8.65,0.4,16.19-1.94c7.53-2.34,14.5-11.01,14.5-11.01l3.2-6.55"/>
			<path class="st1" d="M255.25,268.43c0,0,9.48,1.17,16.28,0c6.8-1.17,19.9-8.75,27-15.85"/>
			<path class="st1" d="M256.4,278.01c-1.39-0.07,9.99,2.91,24-3.13"/>
		</g>
		<g>
			<g>
				<path class="st2" d="M196.28,203.48c-0.53-0.04-1.05-0.07-1.58-0.11c-0.97-0.22-3.2-0.83-5.27-2.26c-1.94-1.34-3-4.08-2.53-6.15
					c0.48-2.07,3.34-3.21,6.61-2.6l4.69,0.88c1.36,0.5,2.48,0.97,3.31,1.34c2.53,1.13,3.08,1.62,3.37,1.94
					c0.53,0.58,0.7,1.14,0.76,1.51c-0.12,0.54-0.24,1.09-0.36,1.63c-0.2,0.38-0.52,0.9-1.08,1.45c-0.57,0.57-1.57,1.54-3.54,2.06
					C198.93,203.64,197.24,203.57,196.28,203.48z"/>
			</g>
			<path class="st2" d="M196.32,203.55c-0.35-0.03-0.7-0.07-1.05-0.1c-0.65-0.14-2.14-0.52-3.57-1.31c-1.33-0.74-2.12-2.16-1.86-3.2
				s2.12-1.53,4.3-1.12l3.14,0.59c0.92,0.29,1.67,0.57,2.24,0.78c1.71,0.65,2.09,0.92,2.29,1.09c0.37,0.31,0.5,0.6,0.55,0.79
				c-0.06,0.27-0.12,0.54-0.19,0.82c-0.12,0.19-0.32,0.44-0.67,0.71c-0.36,0.27-0.99,0.73-2.29,0.94
				C198.08,203.71,196.96,203.63,196.32,203.55z"/>
		</g>
		<g>
			<g>
				<path class="st2" d="M196.28,203.48c-0.53-0.04-1.05-0.07-1.58-0.11c-0.97-0.22-3.2-0.83-5.27-2.26c-1.94-1.34-3-4.08-2.53-6.15
					c0.48-2.07,3.34-3.21,6.61-2.6l4.69,0.88c1.36,0.5,2.48,0.97,3.31,1.34c2.53,1.13,3.08,1.62,3.37,1.94
					c0.53,0.58,0.7,1.14,0.76,1.51c-0.12,0.54-0.24,1.09-0.36,1.63c-0.2,0.38-0.52,0.9-1.08,1.45c-0.57,0.57-1.57,1.54-3.54,2.06
					C198.93,203.64,197.24,203.57,196.28,203.48z"/>
			</g>
			<path class="st2" d="M196.32,203.55c-0.35-0.03-0.7-0.07-1.05-0.1c-0.65-0.14-2.14-0.52-3.57-1.31c-1.33-0.74-2.12-2.16-1.86-3.2
				s2.12-1.53,4.3-1.12l3.14,0.59c0.92,0.29,1.67,0.57,2.24,0.78c1.71,0.65,2.09,0.92,2.29,1.09c0.37,0.31,0.5,0.6,0.55,0.79
				c-0.06,0.27-0.12,0.54-0.19,0.82c-0.12,0.19-0.32,0.44-0.67,0.71c-0.36,0.27-0.99,0.73-2.29,0.94
				C198.08,203.71,196.96,203.63,196.32,203.55z"/>
		</g>
		<g>
			<g>
				<path class="st2" d="M196.28,203.48c-0.53-0.04-1.05-0.07-1.58-0.11c-0.97-0.22-3.2-0.83-5.27-2.26c-1.94-1.34-3-4.08-2.53-6.15
					c0.48-2.07,3.34-3.21,6.61-2.6l4.69,0.88c1.36,0.5,2.48,0.97,3.31,1.34c2.53,1.13,3.08,1.62,3.37,1.94
					c0.53,0.58,0.7,1.14,0.76,1.51c-0.12,0.54-0.24,1.09-0.36,1.63c-0.2,0.38-0.52,0.9-1.08,1.45c-0.57,0.57-1.57,1.54-3.54,2.06
					C198.93,203.64,197.24,203.57,196.28,203.48z"/>
			</g>
			<path class="st0" d="M196.32,203.55c-0.35-0.03-0.7-0.07-1.05-0.1c-0.65-0.14-2.14-0.52-3.57-1.31c-1.33-0.74-2.12-2.16-1.86-3.2
				s2.12-1.53,4.3-1.12l3.14,0.59c0.92,0.29,1.67,0.57,2.24,0.78c1.71,0.65,2.09,0.92,2.29,1.09c0.37,0.31,0.5,0.6,0.55,0.79
				c-0.06,0.27-0.12,0.54-0.19,0.82c-0.12,0.19-0.32,0.44-0.67,0.71c-0.36,0.27-0.99,0.73-2.29,0.94
				C198.08,203.71,196.96,203.63,196.32,203.55z"/>
		</g>
		<g>
			<path class="st2" d="M251.71,204.02c0.53,0,1.05-0.01,1.58-0.01c0.98-0.13,3.26-0.52,5.47-1.59c2.07-1,3.4-3.22,3.13-4.96
				c-0.26-1.74-2.99-2.84-6.3-2.5l-4.75,0.48c-1.41,0.34-2.56,0.67-3.42,0.93c-2.62,0.8-3.22,1.18-3.54,1.43
				c-0.58,0.46-0.81,0.9-0.91,1.21c0.06,0.46,0.13,0.91,0.19,1.37c0.16,0.32,0.43,0.77,0.92,1.26c0.51,0.5,1.4,1.36,3.31,1.89
				C249.06,204.01,250.74,204.04,251.71,204.02z"/>
			<path class="st0" d="M251.66,204.07c0.35-0.01,0.7-0.02,1.05-0.03c0.66-0.08,2.18-0.31,3.67-0.89c1.4-0.54,2.32-1.68,2.17-2.56
				c-0.15-0.87-1.95-1.38-4.16-1.16l-3.18,0.32c-0.94,0.2-1.72,0.38-2.3,0.53c-1.76,0.45-2.17,0.65-2.39,0.78
				c-0.4,0.24-0.55,0.47-0.62,0.63c0.03,0.23,0.07,0.46,0.1,0.69c0.1,0.16,0.27,0.38,0.6,0.62c0.33,0.24,0.91,0.66,2.17,0.9
				C249.9,204.11,251.02,204.1,251.66,204.07z"/>
		</g>
		<path class="st2" d="M203.46,192.78c-1.5,1.32-3.7,3.58-5.77,6.12c-1.43,1.75-2.93,3.6-4.33,6.12c-0.9,1.62-2.89,5.57-3.61,10.72
			c-1.15,8.21,1.57,14.85,2.89,17.6c0.92,2.1,3.55,7.34,9.28,10.59c2.78,1.58,5.4,2.18,7.25,2.42h12.48h15.39
			c2.06-0.31,4.62-0.97,7.25-2.42c8.5-4.68,10.98-13.75,11.52-15.95c0-4.34,0-8.67,0-13.01c-0.19-3.3-0.91-5.91-1.53-7.65
			c-1.54-4.33-3.8-7.23-5.36-9.18c-0.2-0.25-2.1-2.62-4.31-4.59c-10.09-8.97-22.37-8.42-22.37-8.42
			C212.91,185.49,206.06,190.51,203.46,192.78z"/>
		<path class="st2" d="M271.57,278.46c-0.04,1.42-0.36,4.43-0.36,4.43v0.01c-0.04,0.28-0.08,0.56-0.13,0.84
			c-3.67,2.26-7.55,4.22-11.59,5.84c-1.6,0.65-3.22,1.24-4.88,1.77c-7.46,2.42-15.41,3.73-23.68,3.73c-2.12,0-4.21-0.08-6.27-0.25
			c-6.31-0.88-14.27-2.88-22.42-5.31l-4-1.74c-5.42-2.56-10.49-5.74-15.12-9.43v-0.01c0.53-4.79,2.09-10.76,3.33-17.04
			c1.73-8.74,2.68-10.21,3.92-15.13c0.93-3.69,1.35-5.48,2.3-7.44c0.11-0.25,0.24-0.5,0.38-0.77c0.17-0.32,0.47-0.88,1.09-1.73
			c1.1-1.49,3.18-3.87,7.19-7.36c3.61-3.11,6.45-5.55,9.14-7.33c0.42-0.28,0.84-0.53,1.25-0.78c0.03-0.01,0.06-0.04,0.08-0.04
			c0.03-0.03,0.07-0.04,0.1-0.06c2.41-1.38,4.77-2.22,7.54-2.48c0.08-0.01,0.15-0.01,0.24-0.03c0.06-0.01,0.1-0.01,0.15-0.01
			c0.07-0.01,0.13-0.01,0.2-0.01c0.07-0.01,0.14-0.01,0.22-0.01c0.07-0.01,0.14-0.01,0.21-0.01h0.03c0.39-0.03,0.78-0.04,1.2-0.04
			c0.14,0.01,0.28,0.04,0.43,0.06h0.01c0.67,0.08,1.46,0.2,2.38,0.33c1.77,0.25,3.94,0.59,6.35,0.99c0.01,0.01,0.03,0.01,0.04,0.01
			c0.26,0.06,0.54,0.1,0.82,0.15c5.74,1.02,12.54,2.52,17.95,4.57c1.57,0.6,3.46,1.41,5.35,3.07c0.28,0.24,0.53,0.47,0.77,0.72
			l0.01,0.01v0.01c0.82,0.81,1.45,1.67,2.02,2.65c1.18,2.05,2.01,4.56,3.33,8.08c0.03,0.06,0.04,0.13,0.07,0.18
			c1.21,3.23,1.95,4.92,2.51,6.16v0.01c0.92,1.95,1.41,2.73,2.77,6.65c0.36,1.06,0.71,2.05,1.03,2.97
			c1.99,5.78,3.11,9.39,3.55,13.81v0.01c0.01,0.01,0.01,0.04,0.01,0.06C271.28,270.22,271.74,273.97,271.57,278.46z"/>
		<ellipse class="st2" cx="203.45" cy="224.6" rx="17.82" ry="17.73"/>
		<ellipse class="st2" cx="241.71" cy="223.07" rx="17.82" ry="17.73"/>
		<ellipse class="st2" cx="218.78" cy="207.83" rx="2.48" ry="2.15"/>
		<polygon class="st2" points="220.61,229.91 213.95,232.02 211.29,217.28 222.23,217.28 		"/>
		<polygon class="st2" points="221.99,229.3 228.65,231.31 231.31,217.28 220.37,217.28 		"/>
		<line class="st4" x1="223.06" y1="229.66" x2="219.52" y2="215.15"/>
		<path class="st5" d="M219.63,213.83c1.29,1.59,0.27,5.17-2.5,6.5c-2.77,1.33-6.4,0.7-8.11-1.4c-1.71-2.11-0.85-4.89,1.92-6.22
			S218.34,212.24,219.63,213.83z"/>
		<path class="st5" d="M219.84,215.23c0.69-1.79,4.86-3.58,7.99-2.86c3.13,0.72,4.92,3.23,4,5.61c-0.92,2.38-4.2,3.73-7.33,3.01
			C221.37,220.27,219.15,217.02,219.84,215.23z"/>
		<path class="st0" d="M212.34,208.56c-1.29,1.64,0.79,6.7,2.7,7.7c1.92,1,6.9,1,8.82,0c1.91-0.99,3.99-6.06,2.7-7.7
			C224.47,205.91,214.43,205.91,212.34,208.56z"/>
		<ellipse class="st2" cx="217.02" cy="208.51" rx="3.4" ry="1.95"/>
		<g>
			<path class="st0" d="M232.49,206.92c0.08-0.5,0.56-0.89,1.06-0.88c0.52,0.02,0.95,0.48,0.99,0.99c0-0.01,0-0.02,0-0.02
				c0-0.4,0-0.81,0-1.21c0-0.01,0-0.02,0-0.02c0,0.05-0.06,0.02-0.11,0.01c-0.05-0.01-0.1-0.01-0.15-0.02
				c-0.08-0.01-0.17-0.02-0.25-0.04c-0.18-0.03-0.36-0.05-0.54-0.08c-0.36-0.05-0.73-0.1-1.09-0.16c0,0.46,0,0.92,0,1.38
				c0.51,0,1.03,0,1.54,0c0-0.46,0-0.92,0-1.38c-0.15,0.07-0.32,0.14-0.49,0.13c-0.12-0.01-0.28-0.07-0.3-0.21c0,0.43,0,0.86,0,1.29
				c0-0.01,0-0.01,0-0.02c0,0.03,0,0.06,0,0.09c0.01-0.13,0.26-0.4,0.34-0.17c-0.01-0.04,0-0.18,0-0.2c0-0.16,0-0.33,0-0.49
				c0-0.16,0-0.33,0-0.49c0-0.06,0.01-0.15,0-0.2c-0.04-0.12-0.16-0.09-0.24-0.02c-0.04,0.04-0.08,0.1-0.09,0.16
				c-0.01,0.04-0.01,0.09-0.01,0.14c0,0.23,0,0.47,0,0.7c0,0.19-0.01,0.38,0,0.58c0,0.03,0,0.06,0.02,0.09
				c0.04,0.07,0.12,0.11,0.19,0.13c0.19,0.05,0.4-0.04,0.57-0.12c0.01,0,0.01-0.23,0-0.2c0-0.16,0-0.33,0-0.49
				c0-0.05,0-0.69-0.01-0.69c-0.51,0-1.03,0-1.54,0c-0.01,0-0.01,0.64-0.01,0.69c0,0.05-0.02,0.69,0.01,0.69
				c0.46,0.07,0.92,0.13,1.38,0.2c0.11,0.02,0.22,0.03,0.34,0.05c0.06,0.01,0.11,0.02,0.17,0.02c0.06,0.01,0.14,0.04,0.21,0.03
				c0.05,0,0.03,0.02,0.04-0.02c0-0.01,0-0.04,0-0.05c0.01-0.12,0-0.23,0-0.35c0-0.35,0.01-0.7,0-1.05
				c-0.03-0.69-0.71-1.23-1.38-0.97c-0.35,0.13-0.62,0.44-0.68,0.81c-0.01,0.06,0,0.14,0,0.2c0,0.16,0,0.33,0,0.49
				c0,0.16,0,0.33,0,0.49C232.48,206.78,232.5,206.86,232.49,206.92L232.49,206.92z"/>
		</g>
		<g>
			<path class="st0" d="M205.69,207.22c0.22-0.18,0.45-0.35,0.67-0.53c0.11-0.09,0.22-0.18,0.33-0.27c0.02-0.01,0.06-0.06,0.08-0.06
				c0.02-0.02,0.02-0.02,0.02,0c0,0.01,0.01,0.03,0.01,0.04c0.02,0.06,0.03,0.12,0.05,0.17c0.15,0.43,0.43,0.81,0.78,1.11
				c0-0.46,0-0.92,0-1.38c-0.82-0.26-1.69-0.27-2.51-0.03c0,0.46,0,0.92,0,1.38c0.46-0.15,0.93-0.21,1.41-0.18c0,0,0.01-1.24,0-1.36
				c-0.02-0.34-0.22-0.64-0.53-0.78c-0.08-0.03-0.15-0.06-0.24-0.07c-0.02,0-0.04,0-0.05,0c-0.03-0.01-0.05,0-0.06,0.04
				c-0.04,0.04-0.07,0.1-0.1,0.14c-0.13,0.19-0.27,0.39-0.4,0.58c0,0.46,0,0.92,0,1.38c0.37-0.95,1.93-1.03,2.39-0.12
				c-0.01-0.03,0-0.2,0-0.2c0-0.16,0-0.33,0-0.49c0-0.16,0-0.33,0-0.49c0-0.05,0.02-0.16,0-0.2c-0.46-0.91-2.02-0.83-2.39,0.12
				c-0.02,0.04,0,0.17,0,0.2c0,0.16,0,0.33,0,0.49c0,0.16,0,0.33,0,0.49c0,0.04,0.02,0.17,0,0.2c0.13-0.19,0.26-0.38,0.39-0.56
				c0.03-0.04,0.06-0.08,0.08-0.12c0.04-0.06,0.05-0.08,0.13-0.08c0.08,0.01,0.15,0.03,0.22,0.05c0.3,0.12,0.54,0.42,0.56,0.75
				c0-0.45,0-0.91,0-1.36c-0.48-0.03-0.96,0.03-1.41,0.18c-0.01,0-0.01,0.23,0,0.2c0,0.16,0,0.33,0,0.49c0,0.16,0,0.33,0,0.49
				c0,0.02,0.01,0.2,0,0.2c0.82-0.25,1.7-0.24,2.51,0.03c0,0,0.01-0.23,0-0.2c0-0.16,0-0.33,0-0.49c0-0.16,0-0.33,0-0.49
				c0-0.03,0.02-0.18,0-0.2c-0.35-0.29-0.62-0.67-0.78-1.11c-0.02-0.05-0.03-0.1-0.05-0.15c0-0.01-0.01-0.07-0.02-0.08
				c-0.01,0-0.07,0.06-0.08,0.06c-0.11,0.09-0.22,0.18-0.33,0.27c-0.23,0.18-0.46,0.36-0.69,0.55c-0.01,0.01-0.01,0.22,0,0.2
				c0,0.16,0,0.33,0,0.49c0,0.16,0,0.33,0,0.49C205.69,207.05,205.71,207.21,205.69,207.22L205.69,207.22z"/>
		</g>
		<path class="st0" d="M255.03,286.93c-0.01,0.95-0.07,2.51-0.42,4.42c-7.46,2.42-15.41,3.73-23.68,3.73
			c-2.12,0-4.21-0.08-6.27-0.25c-6.39-0.32-14.38-2.17-22.42-5.31l-4-1.74c-0.46-5.7,0.32-12.04,2.45-18.45
			c0.52-1.53,1.02-3.07,1.53-4.6c0.14-0.33,0.91-2.23,2.38-4.61v-0.01c0.04-0.06,0.07-0.11,0.11-0.17c0.14-0.24,0.29-0.47,0.46-0.71
			c0,0,0-0.01,0.01-0.01c0.07-0.11,0.14-0.22,0.24-0.35c0-0.01,0.01-0.03,0.04-0.06c0-0.01,0.01-0.03,0.04-0.06
			c0.46-0.67,0.99-1.38,1.57-2.09c0.03-0.04,0.06-0.07,0.08-0.11c0.15-0.18,0.31-0.36,0.47-0.54c0.47-0.54,0.99-1.09,1.53-1.62
			l0.01-0.01c0.24-0.22,0.46-0.43,0.71-0.65c0.01-0.01,0.04-0.04,0.07-0.06c0.1-0.08,0.2-0.17,0.29-0.25l0.01-0.01l0.03-0.03
			c0.32-0.28,0.65-0.54,1-0.81h0.01c0.06-0.06,0.11-0.1,0.17-0.14c0.07-0.06,0.14-0.11,0.21-0.15c0.01-0.01,0.04-0.04,0.07-0.04
			c0,0,0.01,0,0.01-0.01c2.33-1.69,5.1-3.02,8.39-3.55c6.76-1.1,12.39,1.76,16.32,4.47c0.18,0.13,0.36,0.25,0.53,0.38
			c0.01,0,0.01,0,0.03,0.01l0.01,0.01c0.65,0.46,1.25,0.92,1.8,1.34c0.1,0.07,0.18,0.14,0.26,0.2c0.08,0.07,0.17,0.14,0.24,0.2
			c0.13,0.1,0.25,0.18,0.36,0.28l0.01,0.01c0.2,0.14,0.38,0.29,0.56,0.46c0.21,0.15,0.4,0.32,0.6,0.5c0.32,0.26,0.63,0.53,0.93,0.81
			c0.47,0.45,0.95,0.89,1.38,1.34c0.11,0.11,0.21,0.21,0.31,0.32c0.67,0.7,1.3,1.41,1.88,2.13c0.15,0.17,0.29,0.35,0.42,0.53
			c0.08,0.08,0.15,0.18,0.22,0.26c0.25,0.32,0.49,0.65,0.72,0.98v0.01c3.47,4.81,5.46,9.94,6.63,14.31
			c0.24,0.91,0.45,1.78,0.63,2.61c0,0.03,0.01,0.04,0.01,0.06s0,0.01,0,0.03C254.71,283.06,254.93,285.58,255.03,286.93z"/>
		<g>
			<path class="st2" d="M252.27,240.57c-7.45,4.42-12.61,11.88-13.77,19.9c-0.27,1.9,0.29,4.5,2.39,4.58
				c0.17-2.57,1.2-5.1,2.92-7.15c-0.57,1.56-0.58,3.29-0.02,4.86c0.82-0.84,1.64-1.67,2.45-2.51c0.67,1.04,1.82,1.82,3.11,2.11
				c0.17-3.48,1.57-6.89,3.95-9.62c1.52-1.74,3.56-3.66,2.94-5.8c-5.47,1.54-10.15,5.27-12.53,10.01c4.46-1.02,7.49-5.05,8.19-9.17
				c-3.86,1.37-7.09,4.15-8.78,7.58c3.81,0.23,7.49-2.76,7.67-6.22c-2.87,0.99-4.14,3.97-5.09,6.62c-0.24,0.67-0.48,1.37-0.34,2.05
				c0.14,0.69,0.8,1.34,1.56,1.28c0.44-0.04,0.82-0.3,1.16-0.56c2.37-1.8,4.55-4.57,3.54-7.23c-0.21-0.56-0.61-1.11-1.22-1.31
				c-0.79-0.25-1.64,0.16-2.33,0.6c-2.02,1.3-3.71,3.01-4.92,4.97c-0.42,0.68-0.8,1.41-1.47,1.91c-0.66,0.5-1.71,0.68-2.36,0.18
				c3.05-5.32,6.83-10.29,11.22-14.76c0.54-0.56,1.18-1.14,1.99-1.2c0.96-0.07,1.82,0.65,2.14,1.48c0.32,0.83,0.23,1.73,0.13,2.61
				c0.04-1.05,0.07-2.11,0.11-3.16c0.88,0.59,1.51,1.47,1.77,2.43c-1.76-0.98-3.25-2.35-4.3-3.96c2.36-0.47,4.99,0.77,5.94,2.78
				c-1.42,0.69-3.15,0.34-4.75,0.51c-1.6,0.17-3.38,1.48-2.74,2.83c-0.01-1.81,0.57-3.63,1.64-5.16
				c-8.95,2.98-15.25,11.56-14.85,20.21c0.49-3.67,1.16-7.67,4.17-10.16c-1.77,1.82-3.57,3.7-4.5,5.98
				c-0.92,2.28-0.78,5.08,1.06,6.85c-1.01-1.15-1.34-2.75-0.88-4.16c-1.51,1.23-1.81,3.5-0.68,5.03c-0.05-1.71,0.26-3.42,0.91-5.03
				c-0.93,1.99-1.54,4.11-1.82,6.25c2.41-2.33,4.82-4.65,7.23-6.98c-1.19,1.64-1.81,3.61-1.76,5.57c0.35-0.69-0.01-1.61-0.76-1.94
				c-0.23,1-0.46,1.99-0.69,2.99c-0.57-2.67-0.91-5.38-1.02-8.09c-2.73,2.7-4.32,6.33-4.4,9.99c1.67-2.05,3.33-4.09,5-6.14
				c0.63,1.33,1.26,2.66,1.9,3.98c1.63-1.74,3.25-3.49,4.88-5.23c-0.39,0.95-0.42,2.02-0.08,2.99c2.52-5.75,6.37-11.01,11.23-15.35
				c0.47-0.42,0.99-0.92,0.95-1.52c-0.05-0.71-0.84-1.15-1.53-1.47c-1.9-0.88-3.8-1.76-5.7-2.64c-0.59-0.27-1.2-0.55-1.86-0.6
				c-0.79-0.06-1.55,0.23-2.26,0.54c-4.64,2.06-8.23,5.79-10.5,10c-2.27,4.22-3.29,8.91-3.66,13.59
				c-0.34-10.91,8.64-21.46,20.34-23.92c-3.2-0.28-6.4,0.9-8.93,2.7c-2.53,1.8-4.47,4.19-6.23,6.64c-1.51,2.09-2.92,4.28-3.64,6.69
				c-0.71,2.41-0.66,5.1,0.68,7.28c-0.51-0.42-1.02-0.85-1.53-1.27c-0.02,1.1-0.04,2.21-0.06,3.31c-0.16-0.85-0.01-1.75,0.42-2.53
				c-0.13,0.42-0.25,0.84-0.38,1.26"/>
			<g>
				<path class="st2" d="M249.47,235.79c-6.77,4.29-12.02,10.16-14.86,17.72c-2.34,6.24-2.95,14.53,4.8,16.87
					c3.82,1.16,6.55-1.93,7-5.34c0.23-1.71,1.17-3.01,2.16-4.35c-3.37-1.42-6.74-2.84-10.11-4.26c-0.66,2.77-0.65,5.04-0.02,7.8
					c0.93,4.08,6.42,5.33,9.25,2.44c0.82-0.84,1.64-1.67,2.45-2.51c-2.61,0-5.22,0-7.83,0c1.57,1.82,3.33,2.73,5.56,3.53
					c3.71,1.33,6.65-2.06,7-5.34c0.66-6.15,6.96-8.97,6.89-15.42c-0.04-3.45-3.53-6.47-7-5.34c-6.79,2.21-12.3,6.28-15.83,12.55
					c-2.29,4.07,1.52,9.6,6.25,8.13c6.27-1.96,10.57-6.63,12.06-13.04c0.85-3.65-2.65-8.53-6.81-6.81
					c-5.23,2.17-9.24,5.14-12.09,10.13c-1.99,3.48,0.49,8.56,4.78,8.33c6.24-0.35,11.76-3.84,13-10.28
					c0.94-4.84-3.67-8.47-8.13-6.25c-4.69,2.34-9.46,9.42-7.97,14.93c1.98,7.34,9.97,5.64,13.94,1.29
					c3.8-4.17,5.28-12.28-0.77-15.35c-2.56-1.3-5.49-0.81-7.91,0.6c-1.38,0.8-2.75,1.97-3.88,3.1c-0.73,0.76-1.41,1.57-2.03,2.43
					c-1.71,1.72-1.23,2.04,1.42,0.96c1.1,2.71,2.2,5.42,3.31,8.13c1.65-2.78,3.38-5.51,5.39-8.04c0.77-0.98,1.58-1.93,2.41-2.86
					c0.62-0.7,1.26-1.39,1.91-2.07c1.23-1.06,0.76-1.08-1.43-0.06c-1.1-0.85-2.2-1.7-3.31-2.54c0.07,0.3,0.14,0.59,0.21,0.89
					c3.69,0,7.38,0,11.07,0c0.04-1.05,0.07-2.11,0.11-3.16c-3.15,1.3-6.3,2.61-9.45,3.91c0.3,0.44,0.6,0.88,0.9,1.31
					c2.52-2.52,5.05-5.05,7.57-7.57c-0.92-0.48-1.69-1.14-2.31-1.98c-1.59,2.78-3.19,5.55-4.78,8.33c0.39,0.01,0.77,0.03,1.16,0.04
					c1.1-2.71,2.2-5.42,3.31-8.13c-2.9,0.78-5.55,0.22-8.19,2.01c-2.48,1.69-3.2,3.78-3.36,6.66c-0.41,7.2,10.36,6.96,11.07,0
					c0.29-0.79,0.59-1.58,0.88-2.37c2.17-3.89-1.51-9.91-6.25-8.13c-10.96,4.12-18.93,13.5-18.91,25.55
					c0.01,6.01,9.96,7.82,10.87,1.47c0.4-2.81,0.66-5.63,2.75-7.72c-2.61-2.61-5.22-5.22-7.83-7.83c-5.9,6.19-9.19,13.21-3.43,20.65
					c3.87,5.01,11.91-1.43,8.69-6.71c-0.11,0.04-0.21,0.07-0.32,0.11c0.67-4.74-5.27-10.2-9.25-5.38
					c-3.11,3.76-3.59,7.32-1.55,11.74c2.45,5.3,10.1,2.25,10.31-2.79c-0.03-1.24,0.21-2.42,0.71-3.56c2.27-6.95-8.01-9.3-10.67-2.94
					c-0.86,2.06-1.45,4.05-1.82,6.25c-0.89,5.24,5.01,9.47,9.25,5.38c2.41-2.33,4.82-4.65,7.23-6.98c-2.9-2.24-5.79-4.47-8.69-6.71
					c-1.62,2.66-2.34,5.26-2.51,8.36c3.69,0,7.38,0,11.07,0c0.07-2.55-0.67-4.05-2.38-5.86c-2.79-2.96-8.32-1.58-9.25,2.44
					c-0.23,1-0.46,1.99-0.69,2.99c3.56,0,7.11,0,10.67,0c-0.42-2.22-0.68-4.37-0.83-6.62c-0.28-4.48-6.02-7.69-9.45-3.91
					c-3.69,4.07-5.58,8.43-6.02,13.9c-0.37,4.58,6.46,7.58,9.45,3.91c1.67-2.05,3.33-4.09,5-6.14c-2.9-0.37-5.79-0.75-8.69-1.12
					c0.63,1.33,1.26,2.66,1.9,3.98c1.52,3.18,6.41,3.57,8.69,1.12c1.63-1.74,3.25-3.49,4.88-5.23c-3.08-1.79-6.17-3.59-9.25-5.38
					c-0.46,2.17-0.42,3.75-0.08,5.93c0.72,4.58,8.19,5.48,10.11,1.32c1.63-3.52,3.54-6.84,6.05-9.82c2.07-2.45,5.28-4.44,6.41-7.54
					c2.52-6.92-6.66-10.55-11.75-12.04c-6.13-1.8-12.62,3.21-16.38,7.66c-5.21,6.16-7.19,13.64-7.98,21.52c3.69,0,7.38,0,11.07,0
					c0.07-9.49,7.46-16.43,16.27-18.58c6.1-1.49,4.74-10.87-1.47-10.87c-14.28,0-29.59,17.65-22.9,31.64
					c2.9-2.24,5.79-4.47,8.69-6.71c-0.51-0.42-1.02-0.85-1.53-1.27c-3.61-2.99-9.35-1.17-9.45,3.91c-0.02,1.1-0.04,2.21-0.06,3.31
					c3.69,0,7.38,0,11.07,0c0.07-0.35,0.15-0.71,0.22-1.06c-3.56-0.98-7.11-1.96-10.67-2.94c-0.13,0.42-0.25,0.84-0.38,1.26
					c-2.07,6.83,8.61,9.75,10.67,2.94c0.13-0.42,0.25-0.84,0.38-1.26c2.08-6.87-8.37-9.62-10.67-2.94c-0.49,1.41-0.62,2.51-0.61,4
					c0.06,7.13,10.93,7.13,11.07,0c0.02-1.1,0.04-2.21,0.06-3.31c-3.15,1.3-6.3,2.61-9.45,3.91c0.51,0.42,1.02,0.85,1.53,1.27
					c4.86,4.03,11.47-0.9,8.69-6.71c-1.48-3.09,1.86-7.01,3.64-9.26c2.55-3.24,5.34-5.72,9.7-5.72c-0.49-3.62-0.98-7.25-1.47-10.87
					c-13.61,3.31-24.29,14.94-24.4,29.25c-0.06,7.26,10.37,6.95,11.07,0c0.52-5.13,1.85-10.31,5.28-14.3
					c1.06-1.24,2.96-3.44,4.63-3.77c1.4-0.08,2.68,0.28,3.85,1.07c1.94,1.21,2.42,1.33,1.45,0.37c-0.19-1.42-0.37-2.84-0.56-4.26
					c0.86-2.51-1.44,0.87-2.08,1.53c-1.38,1.44-2.65,2.97-3.86,4.55c-2.27,2.97-4.12,6.07-5.69,9.46c3.37,0.44,6.74,0.88,10.11,1.32
					c0.03-0.02,0.05-0.03,0.08-0.05c1.08-5.12-5.26-9.66-9.25-5.38c-1.63,1.74-3.25,3.49-4.88,5.23c2.9,0.37,5.79,0.75,8.69,1.12
					c-0.63-1.33-1.26-2.66-1.9-3.98c-1.44-3.02-6.54-3.76-8.69-1.12c-1.67,2.05-3.33,4.09-5,6.14c3.15,1.3,6.3,2.61,9.45,3.91
					c0.19-2.44,1.15-4.29,2.78-6.08c-3.15-1.3-6.3-2.61-9.45-3.91c0.2,3.23,0.62,6.39,1.22,9.56c1.03,5.4,9.48,5.16,10.67,0
					c0.23-1,0.46-1.99,0.69-2.99c-3.08,0.81-6.17,1.63-9.25,2.44c0.26,0.28,0.53,0.56,0.79,0.84c-0.54-1.3-1.08-2.61-1.62-3.91
					c-0.01,0.37-0.02,0.74-0.03,1.1c-0.19,7.16,10.67,7.07,11.07,0c-0.03-1.05,0.3-1.98,1-2.78c3.32-5.43-4.21-11.03-8.69-6.71
					c-2.41,2.33-4.82,4.65-7.23,6.98c3.08,1.79,6.17,3.59,9.25,5.38c0.38-2.2,0.96-4.19,1.82-6.25c-3.56-0.98-7.11-1.96-10.67-2.94
					c-0.71,2.16-1.01,4.23-1.11,6.5c3.44-0.93,6.87-1.86,10.31-2.79c-0.06,0.56-0.12,1.11-0.18,1.67c-3.08-1.79-6.17-3.59-9.25-5.38
					c-0.45,3.22-0.3,5.57,1.43,8.42c2.9-2.24,5.79-4.47,8.69-6.71c-0.81-1.05,2.85-4.39,3.43-5c4.92-5.15-2.77-12.88-7.83-7.83
					c-3.53,3.53-4.9,7.76-5.6,12.6c3.62,0.49,7.25,0.98,10.87,1.47c-0.01-6.85,4.44-12.49,10.79-14.88
					c-2.08-2.71-4.17-5.42-6.25-8.13c-1.48,2.65-2.09,4.97-2.39,7.95c3.69,0,7.38,0,11.07,0c0.02-0.43,0.05-0.86,0.07-1.29
					c-0.54,1.3-1.08,2.61-1.62,3.91c0.34-0.31,4.23-0.43,4.97-0.62c3.27-0.87,5.33-5.15,3.31-8.13c-2.55-3.74-6.13-5.79-10.72-5.52
					c-3.74,0.22-7.48,4.71-4.78,8.33c1.82,2.44,3.7,4.3,6.28,5.95c5.02,3.19,9.8-2.92,7.57-7.57c-0.74-1.54-1.4-2.37-2.63-3.55
					c-3.51-3.39-9.29-0.88-9.45,3.91c-0.04,1.05-0.07,2.11-0.11,3.16c-0.24,7.17,10.58,7.05,11.07,0c0.44-6.33-5.42-12.16-11.7-8.45
					c-5.87,3.48-10.73,11.83-14.1,17.53c-1.78,3.01-0.17,7.28,3.31,8.13c3.16,0.77,5.74,0.27,8.16-2.04
					c1.03-0.99,1.66-2.3,2.57-3.39c0.62-0.87,1.38-1.6,2.29-2.18c-2.47-2.48-4.71-2.84-6.73-1.06c1.42-0.19,2.84-0.37,4.26-0.56
					c-0.34-0.12-0.68-0.24-1.02-0.35c1.1,0.85,2.2,1.7,3.31,2.54c0.2,1.74,0.49,1.72,0.9-0.07c0.31-1.02,0.98-1.67,2-1.96
					c-2.71-2.08-5.42-4.17-8.13-6.25c0,1.48-0.77,2.2-2.33,2.16c1.59,2.78,3.19,5.55,4.78,8.33c1.32-2.3,2.97-4,5.48-5.04
					c-2.27-2.27-4.54-4.54-6.81-6.81c-0.6,2.58-1.7,4.49-4.33,5.31c2.08,2.71,4.17,5.42,6.25,8.13c2.13-3.79,5.09-6.12,9.22-7.47
					c-2.33-1.78-4.67-3.56-7-5.34c0.02,1.49-3.79,5.09-4.61,6.74c-1.4,2.8-1.95,5.6-2.28,8.68c2.33-1.78,4.67-3.56,7-5.34
					c-0.22-0.23-0.45-0.46-0.67-0.69c-1.94-2.25-5.85-2.02-7.83,0c-0.82,0.84-1.64,1.67-2.45,2.51c3.08,0.81,6.17,1.63,9.25,2.44
					c0.01-0.64,0.01-1.28,0.02-1.91c1.52-6.4-6.49-9.18-10.11-4.26c-2.28,3.09-3.18,6.18-3.67,9.94c2.33-1.78,4.67-3.56,7-5.34
					c1.19,2.15,1.77,2.36,1.76,0.63c0.13-0.53,0.26-1.05,0.39-1.58c0.54-1.93,1.36-3.7,2.4-5.41c2.06-3.36,4.84-5.91,8.15-8.01
					C261.06,241.55,255.51,231.97,249.47,235.79L249.47,235.79z"/>
			</g>
		</g>
		<g>
			<path class="st2" d="M203.48,247.25c2.36-0.21,4.69,1.07,6.52,2.93s3.21,4.29,4.51,6.72c-2.19-4.48-6.3-7.45-10.55-7.63
				c4.04,0.85,7.63,4.47,9.08,9.19c-1.17-1.78-2.33-3.55-3.5-5.33c2.52,2.72,4.07,6.76,4.19,10.88c-0.54-1.5-1.07-3-1.61-4.5
				c0.84,0.84,1.36,2.14,1.39,3.48c0.1-2.42-0.18-4.86-0.81-7.16c1.13,2.71,1.78,5.72,1.89,8.76c-0.92-2.52-2.23-4.82-3.83-6.76
				c0.31,1.74,0.63,3.49,0.94,5.23c-1.24-2.2-2.71-4.21-4.36-5.96c0.89,2.28,1.95,4.45,3.16,6.49c-0.79-2.29-1.95-4.38-3.38-6.14
				c1,1.96,1.41,4.36,1.16,6.65c-0.38-1.05-0.77-2.11-1.27-3.08c-1.83-3.56-4.99-5.67-8.02-7.62c1.8,2.09,3.7,4.05,5.69,5.87
				c-1.84-2.76-4.02-5.18-6.45-7.14c3.59,0.97,7.02,2.78,10.07,5.3c-2.8-1.79-5.6-3.58-8.4-5.37c2.52,0.31,4.98,1.36,7.12,3.03
				c-1.37-1.4-2.74-2.8-4.1-4.2c1.68,1.04,3.36,2.07,5.05,3.11c-1.73-2.7-4.67-4.15-7.44-3.67c-1.14,0.2-2.31,0.7-3.42,0.29
				s-1.86-2.38-0.95-3.26c0.43-0.42,1.04-0.4,1.58-0.33c2.69,0.36,5.3,1.57,7.52,3.48c-0.81-3.16-3.62-5.33-6.29-4.87
				c-0.3,0.05-0.61,0.15-0.81,0.42c-0.32,0.45-0.2,1.15-0.01,1.7c0.5,1.45,1.33,2.73,2.37,3.64c-1.6-1.2-3.19-2.41-4.79-3.61
				c0.25-1.23,1.65-1.28,2.66-1.06c4.24,0.95,8.57,1.94,12.29,4.61c3.72,2.67,6.75,7.42,6.72,12.72c-1.21-2.09-2.32-4.26-3.32-6.51
				c1.18,1.69,1.77,3.98,1.62,6.19c-1.01-0.42-1.94-1.11-2.71-2.02c1.03,1.49,2.28,2.76,3.67,3.71c0.13-1.4-0.14-2.85-0.75-4.03
				c0.29,1.01,0.59,2.03,0.88,3.04c-0.12-0.45-0.25-0.9-0.37-1.35c0.04,0.69,0.07,1.39,0.11,2.08c-1.83-3.59-4.45-6.55-7.51-8.49
				c-0.76-0.48-1.58-0.91-2.43-0.86s-1.73,0.71-1.92,1.73s0.63,2.21,1.45,1.9c-1.13-1.02-2.26-2.04-3.38-3.06
				c0.92,1.81,1.85,3.62,2.77,5.43c-0.82-2-1.63-4-2.45-6c2.16,1.51,3.52,4.58,3.38,7.62c0.74-1.11,1.15-2.54,1.14-3.98
				c-0.16,1.49-0.32,2.97-0.47,4.46c0.11-0.9,0.61-1.72,1.28-2.1c1.26,1.68,2.52,3.36,3.77,5.04c-0.46-1.43-1.13-2.77-1.96-3.92
				c0.75,1.22,1.5,2.45,2.26,3.67c0.17-1.6,0.06-3.25-0.32-4.8c2.46,1.19,4.63,3.29,6.15,5.95c0.27-8.37-5.11-16.45-11.83-17.76
				c2.84,1.32,5.08,4.47,5.74,8.12"/>
			<g>
				<path class="st2" d="M203.48,252.79c3.14,0.04,4.99,4.6,6.25,6.92c3.19-1.86,6.37-3.72,9.56-5.59
					c-3.29-6.04-8.5-9.68-15.33-10.37c-6.32-0.64-7.34,9.26-1.47,10.87c2.69,0.74,4.3,2.74,5.22,5.33
					c3.37-1.42,6.74-2.84,10.11-4.26c-1.17-1.78-2.33-3.55-3.5-5.33c-2.9,2.24-5.79,4.47-8.69,6.71c1.65,1.96,2.4,4.44,2.56,6.97
					c3.62-0.49,7.25-0.98,10.87-1.47c-0.54-1.5-1.07-3-1.61-4.5c-3.37,1.42-6.74,2.84-10.11,4.26c0.65,0.56,0.92,1.28,0.83,2.15
					c0.9,6.31,10.81,4.58,10.87-1.47c0.03-2.93-0.32-5.78-1.01-8.63c-3.56,0.98-7.11,1.96-10.67,2.94c0.91,2.4,1.52,4.72,1.69,7.29
					c3.62-0.49,7.25-0.98,10.87-1.47c-1.18-2.92-2.46-5.56-4.38-8.08c-3.79-4.95-11.27-2.17-10.11,4.26
					c0.31,1.74,0.63,3.49,0.94,5.23c3.37-1.42,6.74-2.84,10.11-4.26c-1.51-2.54-3.25-4.88-5.22-7.08
					c-3.52-3.94-11.36,0.21-9.25,5.38c1.1,2.69,2.27,5.29,3.72,7.81c3.02,5.27,12.42,1.73,10.11-4.26
					c-1.04-2.69-2.19-5.15-3.93-7.46c-4.31-5.72-12.39-0.99-9.56,5.59c0.54,1.25,0.47,2.54,0.4,3.86c3.62-0.49,7.25-0.98,10.87-1.47
					c-2.41-6.41-6.16-10.31-11.83-14.01c-5.49-3.59-10.69,4.18-6.71,8.69c1.81,2.05,3.69,4,5.69,5.87
					c4.38,4.11,12.42-1.33,8.69-6.71c-2.13-3.06-4.46-5.84-7.31-8.26c-1.79,3.08-3.59,6.17-5.38,9.25c2.78,0.84,5.34,2.08,7.63,3.88
					c2.24-2.9,4.47-5.79,6.71-8.69c-2.8-1.79-5.6-3.58-8.4-5.37c-1.42,3.37-2.84,6.74-4.26,10.11c2.28,0.4,3.92,1.13,5.79,2.47
					c5.23,3.73,10.98-4.32,6.71-8.69c-1.37-1.4-2.74-2.8-4.1-4.2c-2.24,2.9-4.47,5.79-6.71,8.69c1.68,1.04,3.36,2.07,5.05,3.11
					c4.45,2.74,10.99-3.01,7.57-7.57c-2.38-3.16-5.07-5.56-9.1-6.27c-1.42-0.25-3.84-0.53-5.16,0.19c-1.57,0.16-1.82,1.43-0.72,3.81
					c-1.29,2.34-1.12,3.63,0.51,3.88c0.81,0.66,2.2,0.92,3.08,1.62c3.87,3.05,11.26,0.42,9.25-5.38
					c-1.83-5.28-6.93-10.44-13.09-8.73c-7.76,2.15-4.84,10.8-0.89,15c2.24-2.9,4.47-5.79,6.71-8.69c-1.6-1.2-3.19-2.41-4.79-3.61
					c0.66,2.52,1.32,5.05,1.99,7.57c-3.24,0.86-3.96,1.46-2.17,1.81c0.95,0.21,1.89,0.45,2.83,0.7c1.9,0.53,3.79,1.13,5.46,2.2
					c3.12,1.99,5.07,5.05,5.24,8.77c3.44-0.93,6.87-1.86,10.31-2.79c-1.2-2.13-2.3-4.29-3.32-6.51c-3.19,1.86-6.37,3.72-9.56,5.59
					c0.74,1.26,0.87,1.92,0.86,3.4c2.78-1.59,5.55-3.19,8.33-4.78c-0.66-0.21-1.2-0.59-1.59-1.15c-4.26-4.34-12.57,1.57-8.69,6.71
					c1.7,2.25,3.4,3.98,5.65,5.7c3.46,2.63,8.33-0.97,8.33-4.78c0-1.94-0.24-3.69-0.95-5.51c-2.53-6.48-12.69-4.06-10.67,2.94
					c0.29,1.01,0.59,2.03,0.88,3.04c1.97,6.83,12.56,3.95,10.67-2.94c-0.12-0.45-0.25-0.9-0.37-1.35
					c-1.61-5.89-11.19-4.89-10.87,1.47c0.04,0.69,0.07,1.39,0.11,2.08c3.44-0.93,6.87-1.86,10.31-2.79
					c-2.95-5.37-9.47-13.76-16.61-11.77c-6.77,1.88-7.67,12.9-0.06,14.18c4.97,0.83,9.88-5.19,5.38-9.25
					c-1.13-1.02-2.26-2.04-3.38-3.06c-4.7-4.25-11.57,1.05-8.69,6.71c0.92,1.81,1.85,3.62,2.77,5.43c2.8,5.48,12.51,1.6,10.11-4.26
					c-0.82-2-1.63-4-2.45-6c-3.08,1.79-6.17,3.59-9.25,5.38c1.31,1.11,1.72,1.99,1.76,3.71c0.13,5.25,7.68,7.84,10.31,2.79
					c1.18-2.27,1.67-4.25,1.9-6.77c0.64-7.13-10.32-6.99-11.07,0c-0.16,1.49-0.32,2.97-0.47,4.46c-0.69,6.51,8.96,7.04,10.87,1.47
					c-0.05,0.11-0.1,0.23-0.14,0.34c-2.9-0.37-5.79-0.75-8.69-1.12c1.26,1.68,2.52,3.36,3.77,5.04c3.4,4.53,12.54,2.15,10.11-4.26
					c-0.7-1.86-1.45-3.57-2.52-5.24c-3.83-5.97-13.31-0.52-9.56,5.59c0.75,1.22,1.5,2.45,2.26,3.67c2.94,4.79,10.04,2.65,10.31-2.79
					c0.11-2.16-0.12-4.15-0.51-6.27c-2.71,2.08-5.42,4.17-8.13,6.25c1.85,1.01,3.06,2.19,4.17,3.97c2.86,4.57,10.34,2.82,10.31-2.79
					c-0.05-10.02-5.63-20.5-15.9-23.1c-5.97-1.51-9.86,6.99-4.26,10.11c2,1.11,2.68,2.65,3.2,4.81c1.66,6.92,12.34,3.99,10.67-2.94
					c-1.16-4.84-3.89-8.97-8.29-11.42c-1.42,3.37-2.84,6.74-4.26,10.11c5.45,1.38,7.75,7.28,7.77,12.43
					c3.44-0.93,6.87-1.86,10.31-2.79c-2.08-3.32-4.68-6.05-8.14-7.94c-4.48-2.44-8.99,1.57-8.13,6.25c0.22,1.1,0.26,2.21,0.12,3.32
					c3.44-0.93,6.87-1.86,10.31-2.79c-0.75-1.22-1.5-2.45-2.26-3.67c-3.19,1.86-6.37,3.72-9.56,5.59c0.59,0.8,1.06,1.66,1.4,2.6
					c3.37-1.42,6.74-2.84,10.11-4.26c-1.26-1.68-2.52-3.36-3.77-5.04c-2.09-2.79-5.95-3.88-8.69-1.12c-1.4,1.41-2.06,2.68-2.7,4.55
					c3.62,0.49,7.25,0.98,10.87,1.47c0.16-1.49,0.32-2.97,0.47-4.46c-3.69,0-7.38,0-11.07,0c-0.13,0.4-0.26,0.79-0.39,1.19
					c3.44,0.93,6.87,1.86,10.31,2.79c-0.11-4.42-1.55-8.62-5-11.54c-3.71-3.13-11.55-0.26-9.25,5.38c0.82,2,1.63,4,2.45,6
					c3.37-1.42,6.74-2.84,10.11-4.26c-0.92-1.81-1.85-3.62-2.77-5.43c-2.9,2.24-5.79,4.47-8.69,6.71c1.13,1.02,2.26,2.04,3.38,3.06
					c1.79-3.08,3.59-6.17,5.38-9.25c-0.26-0.04-0.52-0.09-0.78-0.13c1.1,0.85,2.2,1.7,3.31,2.54c-4.57,2.42-5.51,4.32-2.8,5.7
					c0.54,0.46,1.05,0.95,1.52,1.47c1.2,1.29,2.07,2.72,2.92,4.26c2.59,4.71,10.59,2.72,10.31-2.79c-0.04-0.69-0.07-1.39-0.11-2.08
					c-3.62,0.49-7.25,0.98-10.87,1.47c0.12,0.45,0.25,0.9,0.37,1.35c3.56-0.98,7.11-1.96,10.67-2.94c-0.29-1.01-0.59-2.03-0.88-3.04
					c-3.56,0.98-7.11,1.96-10.67,2.94c0.47,0.79,0.65,1.65,0.55,2.56c2.78-1.59,5.55-3.19,8.33-4.78c-0.62-0.52-1.18-1.1-1.68-1.73
					c-2.9,2.24-5.79,4.47-8.69,6.71c1.15,1.16,2.38,2.13,3.83,2.88c3.68,1.9,8.31-0.42,8.33-4.78c0.01-3.28-0.71-6.16-2.38-8.99
					c-3.68-6.26-12.46-0.78-9.56,5.59c1.02,2.22,2.12,4.39,3.32,6.51c2.64,4.66,10.56,2.75,10.31-2.79
					c-0.37-8.1-4.76-15.29-12.02-19.05c-5.34-2.76-16.22-7.09-19.96-0.02c-1.52,2.88-0.49,5.7,1.99,7.57
					c1.6,1.2,3.19,2.41,4.79,3.61c5.18,3.9,10.84-4.29,6.71-8.69c-0.83-1.55-1.14-1.53-0.93,0.05c-0.85,1.1-1.7,2.2-2.54,3.31
					c-1.71,0.89-1.55-0.34-1.04,1.14c3.08-1.79,6.17-3.59,9.25-5.38c-4.72-3.72-15.33-9.05-18.46-0.55
					c-1.22,3.31,0.25,7.2,3.23,9.06c1.53,0.95,3.24,1.2,5.02,1.09c1.63-0.1,3.03-1,4.22,0.58c2.52-2.52,5.05-5.05,7.57-7.57
					c-1.68-1.04-3.36-2.07-5.05-3.11c-5.41-3.33-11.06,4.23-6.71,8.69c1.37,1.4,2.74,2.8,4.1,4.2c2.24-2.9,4.47-5.79,6.71-8.69
					c-2.55-1.82-5.35-3.05-8.44-3.59c-6.03-1.05-9.79,6.58-4.26,10.11c2.8,1.79,5.6,3.58,8.4,5.37c5.19,3.32,11.71-4.77,6.71-8.69
					c-3.85-3.03-7.8-5.3-12.52-6.73c-5.08-1.53-9.68,5.62-5.38,9.25c2.13,1.8,3.99,3.73,5.58,6.02c2.9-2.24,5.79-4.47,8.69-6.71
					c-1.99-1.87-3.88-3.82-5.69-5.87c-2.24,2.9-4.47,5.79-6.71,8.69c3.1,2.03,5.4,3.82,6.74,7.4c2.17,5.77,10.52,4.99,10.87-1.47
					c0.19-3.46-0.56-6.3-1.91-9.45c-3.19,1.86-6.37,3.72-9.56,5.59c1.14,1.51,2.14,3.04,2.82,4.82c3.37-1.42,6.74-2.84,10.11-4.26
					c-0.96-1.68-1.87-3.37-2.6-5.17c-3.08,1.79-6.17,3.59-9.25,5.38c1.35,1.52,2.45,3.1,3.49,4.85c3.35,5.64,11.19,1.72,10.11-4.26
					c-0.31-1.74-0.63-3.49-0.94-5.23c-3.37,1.42-6.74,2.84-10.11,4.26c1.3,1.7,2.46,3.44,3.27,5.43c2.13,5.27,11.32,5.32,10.87-1.47
					c-0.24-3.55-0.82-6.89-2.09-10.23c-2.49-6.55-12.37-4.11-10.67,2.94c0.46,1.93,0.63,3.71,0.61,5.69
					c3.62-0.49,7.25-0.98,10.87-1.47c-0.26-1.79-0.86-3.34-1.95-4.8c-3.41-4.59-12.41-2.16-10.11,4.26c0.54,1.5,1.07,3,1.61,4.5
					c1.97,5.5,11.31,5.16,10.87-1.47c-0.38-5.66-2.14-10.44-5.81-14.79c-4.03-4.79-12.13,1.47-8.69,6.71
					c1.17,1.78,2.33,3.55,3.5,5.33c3.26,4.96,12.33,1.95,10.11-4.26c-2.23-6.25-6.36-11.25-12.95-13.06
					c-0.49,3.62-0.98,7.25-1.47,10.87c2.79,0.28,4.55,2.63,5.77,4.88c3.41,6.26,12.96,0.68,9.56-5.59
					c-3.42-6.29-8.01-12.3-15.81-12.4C196.35,241.63,196.35,252.7,203.48,252.79L203.48,252.79z"/>
			</g>
		</g>
	</g>
	<g>
		<path class="st2" d="M216.12,187.3c-2.71,0.08-5.81-0.17-7.48-2.31c-1.18-1.51-1.27-3.79-0.21-5.39c0.58,2.17,1.42,4.28,2.5,6.25
			c0.33,0.6,0.68,1.19,1.17,1.67c1.15,1.12,2.84,1.43,4.42,1.68c-2.18-1.03-4.41-2.1-6.03-3.89c-1.61-1.79-2.46-4.49-1.41-6.65
			c0.03,1.25-0.6,2.52-0.24,3.71c0.18,0.59,0.59,1.09,1.01,1.54c1.91,1.99,4.47,3.35,7.19,3.81c-1.77-0.16-3.42-0.97-4.93-1.92
			c-1.29-0.81-2.53-1.77-3.32-3.07c-0.79-1.3-1.04-3.01-0.31-4.34c-1.69,2.06-0.85,5.38,1.15,7.15c2,1.76,4.78,2.32,7.43,2.59
			c-2.48-0.43-4.74-2-6-4.18s-1.5-4.93-0.63-7.29c-1.63,1.55-3.13,3.52-3.08,5.77c0.04,1.68,1.01,3.26,2.35,4.28s3.03,1.5,4.71,1.61
			c-0.99-0.54-2.08-1.23-2.26-2.34c-0.13-0.79,0.26-1.57,0.64-2.27c0.56-1.04,1.11-2.08,1.67-3.13c-1.05,1.2-2.18,2.77-1.57,4.25
			c0.23,0.55,0.66,0.98,1.11,1.38c0.94,0.83,2.04,1.59,3.28,1.67c-1.51-0.47-2.81-1.7-3.19-3.24c-0.38-1.54,0.27-3.32,1.63-4.12
			c-1.17,0.59-1.53,2.21-1.05,3.43s1.58,2.09,2.71,2.74c-1.87-1.32-2.84-3.81-2.34-6.04c-1.01,1.75-0.1,4.11,1.48,5.37
			c1.58,1.26,3.65,1.69,5.63,2.09c-1.3-0.3-2.59-0.87-3.39-1.93c-0.8-1.06-0.96-2.68-0.08-3.68c-0.58,0.69-1.18,1.41-1.43,2.28
			s-0.07,1.93,0.66,2.45c-0.41-0.99-0.82-2.03-0.77-3.1c0.05-1.07,0.71-2.19,1.76-2.42c-0.75,1.02-0.85,2.49-0.24,3.6
			c0.61,1.12,1.9,1.82,3.16,1.74c-3.5,0.25-7.03,0.07-10.48-0.54c-1.95-0.34-4.25-1.2-4.57-3.15c-0.23-1.44,0.76-2.75,1.7-3.87
			c-1.12,3.28,0.78,7.28,4.03,8.49c-1.9-1.48-3.12-3.78-3.3-6.18c-0.66,1.12-1.33,2.49-0.75,3.65c0.73,1.48,2.79,1.47,4.29,2.13
			c-1.55-0.27-3.17-0.58-4.39-1.58c-1.22-1-1.82-2.93-0.87-4.18c-0.43,0.98-0.5,2.13-0.08,3.11c0.89,2.03,3.43,2.64,5.62,2.99
			c-1.44-0.31-2.97-0.23-4.32-0.8c-1.36-0.57-2.48-2.16-1.83-3.48c-0.52,1.13,0.12,2.52,1.13,3.25c1,0.73,2.28,0.97,3.5,1.19
			c-1.2,0.02-2.3-0.65-3.31-1.3c-1.27-0.82-2.67-1.85-2.82-3.36c-0.13-1.25,0.66-2.4,1.52-3.33c1.19-1.28,2.58-2.38,4.1-3.24
			c-2.76,0.71-5.12,2.83-6.1,5.5c1.27-2.44,3.33-4.45,5.8-5.67c-0.88,0.99-1.23,2.35-1.27,3.67c-0.09,3.05,1.43,6.09,3.91,7.86"/>
		<g>
			<path class="st2" d="M216.12,186.61c-1.97,0.05-4.18,0.01-5.89-1.09c-1.88-1.21-2.37-3.69-1.2-5.57
				c-0.42-0.06-0.84-0.11-1.26-0.17c0.66,2.43,1.6,4.91,2.94,7.05c1.29,2.06,3.36,2.66,5.64,3.04c0.71,0.12,1.3-0.9,0.53-1.26
				c-2.06-0.97-4.21-1.97-5.79-3.67c-1.43-1.54-2.31-3.91-1.4-5.92c-0.43-0.12-0.86-0.23-1.29-0.35c-0.01,1.3-0.6,2.6-0.21,3.9
				c0.32,1.09,1.26,1.97,2.09,2.69c1.88,1.61,4.15,2.69,6.59,3.13c0.06-0.45,0.12-0.91,0.18-1.36c-2.16-0.24-4.28-1.44-5.96-2.79
				c-1.59-1.28-3.03-3.43-2-5.5c0.4-0.82-0.66-1.39-1.19-0.7c-1.71,2.22-1.03,5.38,0.68,7.39c2.07,2.43,5.5,3.07,8.5,3.39
				c0.77,0.08,0.95-1.21,0.18-1.36c-4.91-0.92-7.79-5.9-6.15-10.63c0.24-0.68-0.68-1.13-1.16-0.67c-2.16,2.09-4.1,5.01-2.91,8.11
				c1.18,3.06,4.28,4.48,7.38,4.72c0.7,0.06,0.93-0.97,0.35-1.29c-1.18-0.66-2.33-1.4-1.73-2.92c0.53-1.33,1.35-2.6,2.03-3.87
				c0.35-0.66-0.55-1.46-1.09-0.84c-1.26,1.46-2.67,3.5-1.51,5.42c0.96,1.59,2.99,2.86,4.82,3.05c0.81,0.08,0.88-1.12,0.18-1.36
				c-1.26-0.43-2.4-1.42-2.71-2.75c-0.3-1.27,0.21-2.64,1.31-3.34c0.75-0.48,0.08-1.64-0.7-1.19c-1.29,0.73-1.8,2.26-1.52,3.68
				c0.34,1.69,1.77,2.86,3.18,3.69c0.79,0.46,1.4-0.68,0.7-1.19c-1.62-1.2-2.41-3.3-2.03-5.26c0.14-0.73-0.88-1.27-1.26-0.53
				c-1.01,1.92-0.39,4.18,1.05,5.71c1.66,1.77,4.2,2.31,6.48,2.77c0.86,0.17,1.24-1.12,0.37-1.33c-1.08-0.26-2.19-0.68-2.92-1.55
				c-0.65-0.78-0.92-2.05-0.25-2.91c0.54-0.69-0.4-1.67-0.98-0.98c-1.28,1.53-2.78,4.06-0.77,5.7c0.47,0.38,1.45,0.04,1.16-0.67
				c-0.54-1.32-1.56-4.09,0.51-4.67c-0.26-0.34-0.52-0.68-0.78-1.02c-1.88,2.78,0.19,6.47,3.52,6.39c0-0.46,0-0.92,0-1.38
				c-3.55,0.24-7.24,0.15-10.73-0.6c-1.13-0.24-2.48-0.63-3.22-1.58c-1.11-1.42,0.16-3.08,1.09-4.2c-0.39-0.22-0.77-0.45-1.16-0.67
				c-1.2,3.74,0.9,7.92,4.52,9.34c0.63,0.25,1.2-0.73,0.67-1.16c-1.76-1.42-2.89-3.43-3.09-5.69c-0.06-0.65-0.92-0.98-1.29-0.35
				c-0.87,1.51-1.69,3.52-0.3,5c1.09,1.16,2.86,1.22,4.25,1.81c0.12-0.44,0.25-0.89,0.37-1.33c-1.36-0.24-2.88-0.47-4.01-1.34
				c-1.02-0.79-1.62-2.25-0.84-3.4c-0.42-0.18-0.84-0.36-1.26-0.53c-0.73,1.83-0.37,3.89,1.17,5.17c1.35,1.13,3.16,1.51,4.86,1.79
				c0.86,0.14,1.25-1.16,0.37-1.33c-1.29-0.26-2.66-0.23-3.91-0.65c-0.98-0.32-2.33-1.42-1.83-2.61c-0.42-0.18-0.84-0.36-1.26-0.53
				c-0.49,1.27-0.01,2.67,0.92,3.6c1.1,1.1,2.71,1.43,4.18,1.69c0.06-0.45,0.12-0.91,0.18-1.36c-1.34-0.04-2.54-0.88-3.6-1.64
				c-0.95-0.67-2.04-1.64-1.83-2.94c0.2-1.23,1.26-2.25,2.13-3.06c0.95-0.9,2.01-1.65,3.14-2.31c0.68-0.39,0.23-1.47-0.53-1.26
				c-3.04,0.83-5.45,3.06-6.59,5.99c-0.28,0.73,0.9,1.22,1.26,0.53c1.26-2.36,3.17-4.21,5.55-5.42c-0.28-0.36-0.56-0.72-0.84-1.09
				c-3.25,3.89-0.86,9.94,2.78,12.62c0.72,0.53,1.41-0.67,0.7-1.19c-1.58-1.16-2.73-2.85-3.26-4.74c-0.51-1.85-0.54-4.16,0.75-5.71
				c0.5-0.6-0.11-1.45-0.84-1.09c-2.58,1.31-4.68,3.37-6.05,5.92c0.42,0.18,0.84,0.36,1.26,0.53c0.96-2.47,3.08-4.33,5.62-5.02
				c-0.18-0.42-0.36-0.84-0.53-1.26c-1.48,0.85-2.86,1.9-4.04,3.14c-1.04,1.08-2.05,2.45-1.92,4.03c0.11,1.42,1.13,2.48,2.21,3.29
				c1.35,1.01,2.88,2.01,4.61,2.06c0.76,0.02,0.96-1.22,0.18-1.36c-1.7-0.3-5.1-1.12-4.14-3.59c0.28-0.72-0.96-1.25-1.26-0.53
				c-0.62,1.46-0.02,2.93,1.2,3.89c1.52,1.2,3.57,1.05,5.37,1.41c0.12-0.44,0.25-0.89,0.37-1.33c-1.31-0.21-2.69-0.46-3.84-1.16
				c-1.49-0.91-1.86-2.51-1.22-4.1c0.31-0.77-0.85-1.14-1.26-0.53c-0.96,1.41-0.58,3.26,0.47,4.51c1.27,1.51,3.35,1.93,5.2,2.26
				c0.89,0.16,1.18-0.99,0.37-1.33c-1.01-0.42-2.2-0.51-3.15-1.07c-1.48-0.87-0.64-2.55,0.02-3.7c-0.43-0.12-0.86-0.23-1.29-0.35
				c0.23,2.61,1.45,5.01,3.5,6.67c0.22-0.39,0.45-0.77,0.67-1.16c-2.94-1.15-4.5-4.67-3.55-7.64c0.2-0.63-0.71-1.21-1.16-0.67
				c-1.1,1.32-2.28,2.92-1.83,4.75c0.37,1.47,1.69,2.37,3.03,2.89c1.75,0.68,3.73,0.85,5.58,1.02c2.35,0.22,4.71,0.24,7.06,0.08
				c0.88-0.06,0.9-1.4,0-1.38c-2.33,0.05-3.61-2.4-2.32-4.31c0.35-0.51-0.22-1.17-0.78-1.02c-1.07,0.3-1.82,1.15-2.13,2.21
				c-0.41,1.41,0.12,2.85,0.65,4.15c0.39-0.22,0.77-0.45,1.16-0.67c-1.34-1.09-0.04-2.78,0.77-3.75c-0.33-0.33-0.65-0.65-0.98-0.98
				c-0.95,1.2-1.02,2.78-0.28,4.12c0.82,1.49,2.48,2.26,4.06,2.65c0.12-0.44,0.25-0.89,0.37-1.33c-1.8-0.36-3.75-0.72-5.25-1.85
				c-1.36-1.02-2.31-2.97-1.45-4.59c-0.42-0.18-0.84-0.36-1.26-0.53c-0.52,2.63,0.51,5.24,2.66,6.82c0.23-0.4,0.47-0.8,0.7-1.19
				c-0.98-0.57-1.99-1.3-2.41-2.4c-0.35-0.92-0.15-2.07,0.75-2.58c-0.23-0.4-0.47-0.8-0.7-1.19c-1.55,1-2.34,2.86-2,4.67
				c0.37,1.92,1.93,3.35,3.73,3.95c0.06-0.45,0.12-0.91,0.18-1.36c-1.3-0.13-2.66-1.12-3.45-2.13c-1.06-1.35,0.22-2.94,1.12-3.99
				c-0.36-0.28-0.72-0.56-1.09-0.84c-0.51,0.95-1.01,1.89-1.52,2.84c-0.41,0.77-0.86,1.57-0.9,2.46c-0.07,1.66,1.32,2.65,2.62,3.38
				c0.12-0.43,0.23-0.86,0.35-1.29c-2.53-0.2-5.26-1.37-6.13-3.95c-0.87-2.55,0.91-4.85,2.64-6.52c-0.39-0.22-0.77-0.45-1.16-0.67
				c-1.88,5.39,1.5,11.27,7.11,12.33c0.06-0.45,0.12-0.91,0.18-1.36c-2.51-0.27-5.34-0.77-7.2-2.63c-1.58-1.57-2.22-4.2-0.79-6.06
				c-0.4-0.23-0.8-0.47-1.19-0.7c-2.63,5.31,4.75,9.88,9.15,10.37c0.77,0.09,0.95-1.22,0.18-1.36c-2.11-0.38-4.1-1.24-5.77-2.6
				c-0.76-0.62-1.78-1.44-1.99-2.45c-0.23-1.08,0.29-2.25,0.3-3.34c0.01-0.65-1-1-1.29-0.35c-1.03,2.3-0.48,4.88,1,6.85
				c1.66,2.23,4.24,3.48,6.69,4.63c0.18-0.42,0.36-0.84,0.53-1.26c-0.99-0.16-2.03-0.32-2.95-0.74c-1.01-0.45-1.63-1.22-2.16-2.17
				c-1.1-1.96-1.92-4.05-2.51-6.22c-0.16-0.59-0.95-0.66-1.26-0.17c-1.37,2.21-1.01,5.21,0.99,6.93c1.99,1.71,4.8,1.87,7.3,1.81
				C217.01,187.97,217.01,186.59,216.12,186.61L216.12,186.61z"/>
		</g>
	</g>
</g>
<path class="st0" d="M0,89.46c0,48.18,45.71,87.23,102.1,87.23c7,0.03,13.99-0.56,20.89-1.75l37.06,19.94
	c0.97,0.53,2.08,0.76,3.19,0.66c1.1-0.1,2.15-0.52,3.02-1.22c0.86-0.7,1.5-1.63,1.83-2.69c0.33-1.06,0.34-2.19,0.02-3.24
	l-8.02-27.09c26.64-15.75,44.1-42.02,44.1-71.79c0-48.18-45.71-87.23-102.08-87.23C45.71,2.27,0,41.28,0,89.46z"/>
<path class="st2" d="M65.89,55.59v41.9h8.54v10.27h-8.54v16.45h-11v-16.45H22.72V97.57c5.33-6.97,10.57-13.97,15.72-20.99
	c5.15-7.03,10.39-14.03,15.72-20.99H65.89z M54.89,97.67V76.49c0-0.42,0-1.18,0-2.27c0.06-1.09,0.12-2.24,0.18-3.45l-19.99,26.9
	H54.89z"/>
<path class="st2" d="M127.3,90.49c0,6-0.64,11.21-1.91,15.63c-1.27,4.36-3.06,8-5.36,10.9c-2.24,2.85-4.91,4.97-8,6.36
	c-3.09,1.39-6.45,2.09-10.09,2.09c-3.51,0-6.82-0.7-9.91-2.09c-3.03-1.39-5.7-3.51-8-6.36c-2.24-2.91-4-6.54-5.27-10.9
	c-1.27-4.42-1.91-9.63-1.91-15.63c0-6.06,0.64-11.27,1.91-15.63c1.27-4.42,3.03-8.06,5.27-10.91c2.3-2.91,4.97-5.06,8-6.45
	c3.09-1.39,6.39-2.09,9.91-2.09c3.64,0,7,0.7,10.09,2.09c3.09,1.39,5.76,3.54,8,6.45c2.3,2.85,4.09,6.48,5.36,10.91
	C126.66,79.22,127.3,84.43,127.3,90.49z M114.57,90.49c0-4.85-0.36-8.85-1.09-12c-0.67-3.21-1.58-5.73-2.73-7.54
	c-1.15-1.88-2.51-3.18-4.09-3.91c-1.51-0.79-3.09-1.18-4.73-1.18c-1.58,0-3.12,0.39-4.63,1.18c-1.45,0.73-2.76,2.03-3.91,3.91
	c-1.15,1.82-2.09,4.33-2.82,7.54c-0.67,3.15-1,7.15-1,12c0,4.79,0.33,8.75,1,11.91c0.73,3.15,1.67,5.66,2.82,7.54
	c1.15,1.88,2.45,3.18,3.91,3.91c1.51,0.73,3.06,1.09,4.63,1.09c1.64,0,3.21-0.36,4.73-1.09c1.58-0.73,2.94-2.03,4.09-3.91
	c1.15-1.88,2.06-4.39,2.73-7.54C114.21,99.24,114.57,95.27,114.57,90.49z"/>
<path class="st2" d="M174.16,55.59v41.9h8.54v10.27h-8.54v16.45h-11v-16.45H131V97.57c5.33-6.97,10.57-13.97,15.72-20.99
	c5.15-7.03,10.39-14.03,15.72-20.99H174.16z M163.17,97.67V76.49c0-0.42,0-1.18,0-2.27c0.06-1.09,0.12-2.24,0.18-3.45l-20,26.9
	H163.17z"/>
<path class="st6" d="M249.37,219.43c-0.18,1.13,0.04,3.4,1.66,3.4c1.62,0,1.78-2.27,1.66-3.4"/>
<path class="st6" d="M245.14,210.95c-0.18,1.13,0.04,3.4,1.66,3.4c1.62,0,1.78-2.27,1.66-3.4"/>
<path class="st6" d="M255.31,176.58c1.56-1.08,3.91-4.01,1.82-6.1c-2.09-2.09-4.94,0.34-6.1,1.82"/>
<path class="st6" d="M252.75,190.06c1.56-1.08,3.91-4.01,1.82-6.1c-2.09-2.09-4.94,0.34-6.1,1.82"/>
<path class="st6" d="M268.08,179.64c2.03-1.55,5.32-5.41,3.23-7.51c-2.09-2.09-5.88,1.28-7.51,3.23"/>
</svg>
