<?xml version="1.0" encoding="UTF-8"?><svg id="Layer_1" xmlns="http://www.w3.org/2000/svg" viewBox="0 0 200 200"><defs><style>.cls-1,.cls-2{fill:#fff;}.cls-3{fill:#ffdc73;}.cls-4{fill:#a67c52;}.cls-2,.cls-5,.cls-6{stroke-linecap:round;stroke-miterlimit:10;}.cls-2,.cls-6{stroke:#a67c52;}.cls-7{fill:#c69c6d;}.cls-5{stroke:#f2f2f2;}.cls-5,.cls-6{fill:none;}</style></defs><path class="cls-3" d="M157.46,124.11c-6.74,3.74-14.14,6.97-21.59,9.58h-.01c-1.74,.62-3.48,1.19-5.23,1.74-2.47,.76-4.92,1.46-7.34,2.07-1.79,.47-3.55,.89-5.29,1.26-7.09,1.52-13.73,2.34-19.3,2.34-6.09,0-16.06-2.53-25.98-5.62-4.22-1.32-8.43-2.73-12.32-4.1-10.53-3.7-18.78-7.04-18.78-7.04l.13-79.97S91.59,3.8,99.53,3.8s57.79,40.56,57.79,40.56l.13,79.75Z"/><g><g><path class="cls-4" d="M135.86,133.68h.01c2.54-1.9,4.36-3.71,5.31-4.67,5.54-5.67,9.16-9.35,11.6-16.01,.74-2.02,1.59-4.34,1.88-7.41,.02-.19,.04-.39,.06-.6,.8-11.48-6.83-25.15-16.43-26.3-1.09-.12-5.22-.63-8.71,2.29-3.74,3.11-5,8.68-6.07,14.61-1.02,5.68-1.88,11.7-4.56,16.26-.35,.58-1.33,2.17-1.93,4.58-.94,3.74-.38,7.05,0,9.15,.06,.28,.11,.6,.18,.93,.12,.63,.28,1.34,.51,2.1,0,.02,.01,.03,.01,.04v.02c.44,1.5,1.1,3.19,2.2,4.9,.84,1.3,1.88,2.91,3.39,3.9,2.42-.61,4.87-1.3,7.34-2.07l5.23-1.74Z"/><path class="cls-5" d="M135.62,80.6s-1.33,10.72,2.69,17.84,7.18,12.24,11.22,16.99"/><path class="cls-5" d="M128.73,90.37s-1.3,8.11,3.06,18.12c4.36,10.01,10.68,14.93,10.68,14.93"/><path class="cls-5" d="M132.77,131.99s-5.62-3.37-7.87-10.12c-2.22-6.65-3.14-9.79-3.14-9.79"/><path class="cls-5" d="M125.46,100.57s2.67,.57,8.93-2.56,11.88-14.37,11.88-14.37"/><path class="cls-5" d="M123.76,108.46s6.98,.32,13.06-1.57c6.08-1.89,11.7-8.88,11.7-8.88l2.58-5.29"/><path class="cls-5" d="M118.66,119.44s7.65,.94,13.13,0c5.48-.94,17.74-8.7,23.47-14.43"/><path class="cls-5" d="M119.59,127.16c-1.12-.06,8.62,2.95,19.93-1.92"/></g><g><path class="cls-1" d="M71.09,67.04l-1.27-.09c-.78-.18-2.58-.67-4.25-1.82-1.57-1.08-2.42-3.29-2.04-4.96,.39-1.67,2.7-2.59,5.33-2.09l3.78,.71c1.1,.4,2,.78,2.67,1.08,2.04,.91,2.48,1.31,2.72,1.57,.43,.47,.56,.92,.61,1.22l-.29,1.31c-.16,.3-.42,.72-.87,1.17-.46,.46-1.26,1.24-2.85,1.66-1.4,.37-2.75,.31-3.54,.24Z"/><path class="cls-7" d="M71.13,67.1l-.85-.08c-.52-.12-1.73-.42-2.88-1.05-1.07-.6-1.71-1.75-1.5-2.58,.21-.84,1.71-1.24,3.47-.9l2.53,.48c.74,.24,1.35,.46,1.8,.63,1.38,.52,1.69,.74,1.85,.88,.3,.25,.4,.48,.44,.64l-.15,.66c-.1,.15-.26,.36-.54,.57-.29,.22-.8,.59-1.84,.76-.91,.14-1.82,.08-2.34,.02Z"/></g><g><path class="cls-1" d="M71.09,67.04l-1.27-.09c-.78-.18-2.58-.67-4.25-1.82-1.57-1.08-2.42-3.29-2.04-4.96,.39-1.67,2.7-2.59,5.33-2.09l3.78,.71c1.1,.4,2,.78,2.67,1.08,2.04,.91,2.48,1.31,2.72,1.57,.43,.47,.56,.92,.61,1.22l-.29,1.31c-.16,.3-.42,.72-.87,1.17-.46,.46-1.26,1.24-2.85,1.66-1.4,.37-2.75,.31-3.54,.24Z"/><path class="cls-7" d="M71.13,67.1l-.85-.08c-.52-.12-1.73-.42-2.88-1.05-1.07-.6-1.71-1.75-1.5-2.58,.21-.84,1.71-1.24,3.47-.9l2.53,.48c.74,.24,1.35,.46,1.8,.63,1.38,.52,1.69,.74,1.85,.88,.3,.25,.4,.48,.44,.64l-.15,.66c-.1,.15-.26,.36-.54,.57-.29,.22-.8,.59-1.84,.76-.91,.14-1.82,.08-2.34,.02Z"/></g><g><path class="cls-1" d="M71.09,67.04l-1.27-.09c-.78-.18-2.58-.67-4.25-1.82-1.57-1.08-2.42-3.29-2.04-4.96,.39-1.67,2.7-2.59,5.33-2.09l3.78,.71c1.1,.4,2,.78,2.67,1.08,2.04,.91,2.48,1.31,2.72,1.57,.43,.47,.56,.92,.61,1.22l-.29,1.31c-.16,.3-.42,.72-.87,1.17-.46,.46-1.26,1.24-2.85,1.66-1.4,.37-2.75,.31-3.54,.24Z"/><path class="cls-4" d="M71.13,67.1l-.85-.08c-.52-.12-1.73-.42-2.88-1.05-1.07-.6-1.71-1.75-1.5-2.58,.21-.84,1.71-1.24,3.47-.9l2.53,.48c.74,.24,1.35,.46,1.8,.63,1.38,.52,1.69,.74,1.85,.88,.3,.25,.4,.48,.44,.64l-.15,.66c-.1,.15-.26,.36-.54,.57-.29,.22-.8,.59-1.84,.76-.91,.14-1.82,.08-2.34,.02Z"/></g><g><path class="cls-1" d="M115.81,67.48h1.27c.79-.11,2.63-.42,4.41-1.29,1.67-.81,2.74-2.6,2.53-4-.21-1.4-2.41-2.29-5.08-2.02l-3.83,.39c-1.13,.27-2.07,.54-2.76,.75-2.12,.64-2.6,.95-2.86,1.16-.47,.37-.65,.73-.73,.98l.15,1.1c.13,.26,.35,.62,.74,1.02,.41,.4,1.13,1.09,2.67,1.53,1.35,.38,2.7,.41,3.49,.39Z"/><path class="cls-4" d="M115.77,67.52l.85-.02c.53-.07,1.76-.25,2.96-.72,1.13-.44,1.87-1.36,1.75-2.06-.12-.71-1.57-1.11-3.36-.93l-2.56,.26c-.76,.16-1.39,.31-1.86,.43-1.42,.36-1.75,.52-1.93,.63-.32,.19-.45,.38-.5,.51l.08,.55c.08,.13,.22,.31,.48,.5,.27,.2,.74,.53,1.75,.73,.89,.17,1.8,.16,2.32,.14Z"/></g><path class="cls-1" d="M76.89,58.41c-1.21,1.06-2.99,2.89-4.66,4.94-1.15,1.41-2.36,2.9-3.49,4.94-.72,1.31-2.33,4.49-2.91,8.64-.93,6.62,1.27,11.98,2.33,14.2,.74,1.69,2.87,5.92,7.48,8.54,2.24,1.27,4.35,1.76,5.85,1.95h22.48c1.66-.25,3.72-.78,5.85-1.95,6.86-3.77,8.86-11.09,9.29-12.86v-10.5c-.15-2.66-.74-4.77-1.23-6.17-1.24-3.5-3.07-5.83-4.32-7.41-.16-.2-1.7-2.12-3.48-3.7-8.14-7.24-18.05-6.79-18.05-6.79-7.52,.29-13.04,4.34-15.14,6.17Z"/><path class="cls-1" d="M131.83,127.52c-.03,1.15-.12,2.35-.29,3.57h0c-.19,1.44-.48,2.89-.91,4.33-2.47,.76-4.92,1.46-7.34,2.07-1.79,.47-3.55,.89-5.29,1.26-7.09,1.52-13.73,2.34-19.3,2.34-6.09,0-16.06-2.53-25.98-5.62-4.22-1.32-8.43-2.73-12.32-4.1-.46-4.23,1.39-10.71,2.78-17.69,1.39-7.05,2.16-8.24,3.16-12.21,.75-2.98,1.09-4.42,1.85-6,.09-.2,.19-.4,.3-.62,.13-.26,.38-.71,.88-1.39,.89-1.2,2.56-3.13,5.8-5.94,2.91-2.51,5.2-4.47,7.37-5.91,.34-.22,.67-.43,1.01-.63,.04-.03,.1-.06,.15-.08,2-1.15,3.96-1.82,6.27-2.02,.05-.01,.08-.01,.12-.01,.06-.01,.1-.01,.16-.01,.11-.02,.24-.02,.36-.02,.31-.02,.64-.03,.98-.03,.11,.01,.22,.03,.35,.04,.54,.07,1.19,.16,1.93,.27,1.44,.2,3.2,.47,5.16,.81,.21,.04,.44,.08,.66,.12,4.63,.82,10.12,2.03,14.48,3.69,1.27,.48,2.79,1.14,4.32,2.47,.22,.19,.43,.38,.62,.58,.66,.66,1.18,1.36,1.64,2.16,.96,1.65,1.62,3.68,2.69,6.52,.02,.04,.03,.1,.06,.15,.98,2.62,1.57,3.98,2.02,4.98,.74,1.57,1.14,2.2,2.24,5.36,.29,.85,.57,1.65,.83,2.39,1.61,4.67,2.51,7.59,2.87,11.15,.01,.01,.01,.03,.01,.04,.13,1.34,.51,4.36,.37,7.98Z"/><ellipse class="cls-1" cx="76.87" cy="84.08" rx="14.37" ry="14.3"/><ellipse class="cls-1" cx="107.74" cy="82.85" rx="14.37" ry="14.3"/><ellipse class="cls-1" cx="89.24" cy="70.55" rx="2" ry="1.73"/><polygon class="cls-1" points="90.72 88.36 85.35 90.06 83.2 78.17 92.03 78.17 90.72 88.36"/><polygon class="cls-1" points="91.83 87.87 97.2 89.49 99.35 78.17 90.52 78.17 91.83 87.87"/><line class="cls-6" x1="92.7" y1="88.16" x2="89.84" y2="76.46"/><path class="cls-2" d="M89.93,75.39c1.04,1.28,.22,4.17-2.02,5.25-2.23,1.07-5.16,.57-6.54-1.13s-.69-3.95,1.55-5.02,5.97-.37,7.01,.91Z"/><path class="cls-2" d="M90.1,76.52c.56-1.45,3.92-2.89,6.45-2.31s3.97,2.6,3.23,4.52-3.39,3.01-5.92,2.43c-2.52-.58-4.32-3.2-3.76-4.64Z"/><path class="cls-4" d="M84.05,71.14c-1.04,1.32,.64,5.41,2.18,6.21s5.57,.81,7.12,0,3.22-4.89,2.18-6.21c-1.69-2.14-9.78-2.14-11.47,0Z"/><ellipse class="cls-1" cx="87.82" cy="71.1" rx="2.74" ry="1.57"/><path class="cls-4" d="M100.3,69.76c.07-.4,.45-.72,.86-.71s.77,.38,.8,.79v-.9s-.05,.02-.09,.01l-.12-.02-.2-.03-.44-.06-.88-.13v1h1.25v-1c-.12,.06-.26,.11-.39,.11-.1,0-.23-.06-.24-.17v.93h0v.05c0-.1,.2-.32,.27-.14,0-.03,0-.13,0-.15,0-.12,0-.24,0-.35s0-.24,0-.35c0-.04,.01-.11,0-.15-.03-.1-.13-.07-.19-.01-.04,.03-.07,.08-.08,.13,0,.03,0,.07,0,.1,0,.17,0,.34,0,.51,0,.14,0,.28,0,.42,0,.03,0,.05,.01,.07,.03,.06,.1,.09,.16,.11,.16,.04,.32-.03,.46-.1,0,0,0-.16,0-.15,0-.12,0-.24,0-.35,0-.04,0-.5,0-.5h-1.25s0,.46,0,.5-.01,.5,0,.5l1.11,.16,.27,.04,.14,.02c.05,0,.12,.03,.17,.02,.04,0,.02,.02,.04-.02,0,0,0-.03,0-.04,0-.08,0-.17,0-.25,0-.25,0-.51,0-.76-.02-.55-.58-.99-1.12-.78-.28,.11-.5,.36-.55,.65,0,.05,0,.1,0,.15,0,.12,0,.24,0,.35s0,.24,0,.35c0,.05,.01,.1,0,.15h0Z"/><path class="cls-4" d="M78.69,70l.54-.43,.27-.21s.05-.05,.06-.05c.01-.02,.02-.02,.02,0v.03s.04,.09,.05,.14c.12,.35,.34,.66,.63,.89v-1c-.66-.21-1.37-.22-2.03-.02v1c.37-.12,.75-.17,1.14-.15,0,0,0-.9,0-.98-.01-.27-.17-.52-.43-.63-.06-.03-.12-.05-.19-.05-.01,0-.03,0-.04,0-.03,0-.04,0-.05,.03-.03,.03-.05,.08-.08,.11l-.32,.47v1c.3-.77,1.56-.83,1.93-.09,0-.02,0-.14,0-.15,0-.12,0-.24,0-.35s0-.24,0-.35c0-.04,.01-.11,0-.15-.37-.73-1.63-.67-1.93,.09-.01,.03,0,.12,0,.15,0,.12,0,.24,0,.35s0,.24,0,.35c0,.03,.02,.13,0,.15l.31-.46,.07-.1c.04-.05,.04-.07,.1-.06s.12,.02,.18,.04c.24,.1,.44,.34,.45,.6v-.98c-.39-.03-.77,.02-1.14,.15,0,0,0,.17,0,.15,0,.12,0,.24,0,.35s0,.24,0,.35c0,.02,0,.15,0,.15,.66-.2,1.37-.19,2.03,.02-.02,0,0-.46,0-.5,0-.12,0-.24,0-.35,0-.02,.01-.13,0-.15-.28-.24-.5-.54-.63-.89-.01-.04-.03-.08-.04-.12,0,0-.01-.06-.02-.06,0,0-.06,.05-.06,.05l-.27,.21-.55,.44s0,.16,0,.15c0,.12,0,.24,0,.35s0,.24,0,.35c0,.02,.01,.14,0,.15h0Z"/><path class="cls-4" d="M118.49,134.36c-.01,.9-.08,2.48-.49,4.4-7.09,1.52-13.73,2.34-19.3,2.34-6.09,0-16.06-2.53-25.98-5.62-.44-4.71,.17-9.98,1.94-15.31,.42-1.24,.82-2.47,1.24-3.71,.11-.27,.73-1.8,1.92-3.72h0c.03-.06,.06-.1,.09-.15,.11-.19,.24-.38,.37-.57,.07-.09,.12-.19,.2-.29,0-.01,.01-.02,.03-.04,0-.01,.01-.02,.03-.04,.37-.54,.8-1.11,1.27-1.69,.02-.03,.04-.06,.07-.09,.12-.15,.25-.29,.38-.44,.38-.44,.8-.88,1.24-1.3,.19-.18,.38-.36,.58-.54,.01-.01,.03-.03,.06-.04l.24-.2,.03-.03c.26-.22,.53-.44,.81-.65h.01s.09-.08,.13-.11c.06-.04,.11-.09,.17-.12,.01-.01,.03-.03,.06-.03,1.88-1.37,4.13-2.45,6.78-2.88,5.45-.89,9.99,1.42,13.16,3.61,.15,.1,.29,.2,.43,.3,.01,0,.02,.01,.03,.02,.53,.37,1.01,.74,1.45,1.08,.08,.06,.15,.11,.21,.16,.07,.06,.13,.11,.19,.16,.1,.08,.2,.15,.29,.22h.01c.16,.12,.3,.25,.45,.38,.17,.12,.33,.26,.48,.4,.26,.21,.51,.43,.75,.65,.38,.36,.76,.72,1.11,1.08,.09,.09,.17,.17,.25,.26,.54,.56,1.05,1.14,1.52,1.72,.12,.13,.24,.28,.34,.43,.07,.07,.12,.15,.18,.21,.2,.26,.39,.53,.58,.79,2.8,3.88,4.41,8.03,5.35,11.56,.19,.73,.36,1.44,.51,2.1,0,.02,.01,.03,.01,.04v.02c.54,2.54,.72,4.58,.8,5.67Z"/><g><path class="cls-1" d="M116.26,96.96c-6.01,3.57-10.17,9.59-11.11,16.05-.22,1.53,.24,3.63,1.93,3.7,.14-2.08,.97-4.11,2.35-5.76-.46,1.26-.46,2.65-.02,3.92l1.98-2.03c.54,.84,1.47,1.47,2.51,1.7,.13-2.8,1.27-5.56,3.19-7.76,1.22-1.4,2.87-2.95,2.37-4.68-4.41,1.24-8.18,4.25-10.1,8.07,3.59-.82,6.04-4.07,6.61-7.4-3.11,1.1-5.72,3.35-7.09,6.12,3.07,.19,6.04-2.22,6.18-5.02-2.31,.8-3.34,3.2-4.11,5.34-.19,.54-.39,1.1-.27,1.66s.64,1.08,1.26,1.03c.36-.03,.66-.24,.93-.45,1.92-1.45,3.67-3.69,2.86-5.83-.17-.45-.49-.9-.99-1.06-.64-.2-1.32,.13-1.88,.48-1.63,1.05-2.99,2.43-3.97,4.01-.34,.55-.65,1.14-1.18,1.54s-1.38,.55-1.91,.14c2.46-4.29,5.51-8.3,9.05-11.91,.44-.45,.95-.92,1.61-.97,.78-.06,1.47,.53,1.73,1.19s.18,1.4,.11,2.1l.09-2.55c.71,.48,1.22,1.18,1.43,1.96-1.42-.79-2.62-1.9-3.47-3.2,1.9-.38,4.03,.62,4.79,2.25-1.14,.56-2.54,.28-3.83,.41s-2.72,1.2-2.21,2.28c0-1.46,.46-2.93,1.32-4.16-7.22,2.41-12.3,9.32-11.98,16.31,.4-2.96,.94-6.19,3.37-8.19-1.43,1.47-2.88,2.98-3.63,4.82s-.63,4.1,.86,5.52c-.81-.93-1.08-2.22-.71-3.35-1.22,1-1.46,2.83-.55,4.06-.04-1.38,.21-2.76,.73-4.05-.75,1.61-1.24,3.31-1.47,5.04l5.83-5.63c-.96,1.32-1.46,2.91-1.42,4.49,.28-.56-.01-1.3-.62-1.57l-.56,2.41c-.46-2.15-.73-4.34-.83-6.53-2.2,2.18-3.49,5.1-3.55,8.06l4.03-4.95,1.53,3.21,3.93-4.22c-.32,.77-.34,1.63-.06,2.41,2.03-4.64,5.14-8.88,9.06-12.38,.38-.34,.8-.74,.77-1.22-.04-.57-.67-.93-1.23-1.19l-4.6-2.13c-.48-.22-.97-.45-1.5-.48-.64-.04-1.25,.18-1.83,.44-3.74,1.66-6.64,4.67-8.47,8.07-1.83,3.4-2.65,7.19-2.95,10.97-.27-8.8,6.97-17.31,16.4-19.29-2.58-.23-5.16,.73-7.2,2.18s-3.61,3.38-5.03,5.35c-1.22,1.69-2.36,3.45-2.93,5.4s-.53,4.11,.55,5.87l-1.24-1.03-.05,2.67c-.13-.69,0-1.41,.34-2.04l-.31,1.02"/><path class="cls-1" d="M114.24,93.51c-5.35,3.39-9.54,8.03-11.77,14.02-1.78,4.77-2.44,11.23,3.55,13.04,2.76,.84,4.74-1.4,5.06-3.86,.2-1.48,.95-2.58,1.81-3.75l-7.31-3.08c-.51,2.15-.51,3.9-.02,6.04,.68,2.95,4.64,3.85,6.69,1.77l1.98-2.03h-5.66c1.22,1.41,2.55,2.11,4.28,2.73,2.68,.96,4.81-1.49,5.06-3.86,.53-4.97,5.61-7.3,5.56-12.44-.03-2.5-2.55-4.68-5.06-3.86-5.36,1.75-9.71,4.96-12.49,9.91-1.65,2.94,1.1,6.94,4.52,5.88,4.91-1.53,8.24-5.18,9.4-10.19,.61-2.64-1.92-6.17-4.92-4.92-4.1,1.7-7.24,4.05-9.48,7.96-1.44,2.51,.36,6.19,3.45,6.02,4.84-.27,9.08-2.96,10.04-7.95,.68-3.5-2.65-6.12-5.88-4.52-3.6,1.79-7.36,7.27-6.22,11.52,1.49,5.56,7.53,4.11,10.47,.83s4.09-9.3-.53-11.66c-1.91-.97-4.12-.56-5.91,.48-1.07,.63-2.16,1.54-3.04,2.43-.56,.59-1.09,1.21-1.56,1.87-1.28,1.21-1.07,1.53,.62,.99l2.39,5.88c1.35-2.28,2.77-4.5,4.42-6.58,.62-.79,1.28-1.55,1.94-2.3,.5-.57,1.01-1.12,1.54-1.67,.89-.75,.65-.8-.7-.16l-2.39-1.84,.23,.95h8l.09-2.55-6.83,2.83,.8,1.15,5.47-5.47c-.81-.43-1.49-1.02-2.03-1.76l-3.45,6.02,1.34,.26,2.39-5.88c-4.4,1.18-8.64,.73-8.98,6.55-.3,5.21,7.49,5.03,8,0l.77-2.15c1.57-2.81-1.09-7.16-4.52-5.88-8.65,3.25-14.93,10.66-14.91,20.16,0,4.34,7.2,5.65,7.86,1.06,.34-2.36,.58-4.67,2.34-6.43l-5.66-5.66c-4.56,4.78-7.24,10.22-2.77,16,2.8,3.62,8.61-1.03,6.28-4.85l-.3-.27c.48-3.43-3.81-7.38-6.69-3.89-2.36,2.86-2.73,5.55-1.18,8.91,1.77,3.83,7.3,1.63,7.45-2.02-.02-1.04,.17-2.04,.59-2.99,1.64-5.03-5.79-6.72-7.71-2.13-.7,1.66-1.17,3.27-1.47,5.04-.65,3.79,3.62,6.85,6.69,3.89l5.83-5.63-6.28-4.85c-1.27,2.07-1.83,4.09-1.96,6.51h8c.05-1.94-.49-3.02-1.79-4.4-2.02-2.14-6.01-1.14-6.69,1.77l-.56,2.41h7.71c-.35-1.83-.56-3.61-.68-5.47-.21-3.24-4.35-5.56-6.83-2.83-2.89,3.19-4.38,6.6-4.72,10.89-.26,3.31,4.67,5.48,6.83,2.83l4.03-4.95-6.28-.81,1.53,3.21c1.1,2.3,4.63,2.58,6.28,.81l3.93-4.22-6.69-3.89c-.35,1.67-.33,2.85-.06,4.54,.52,3.31,5.92,3.96,7.31,.96s2.89-5.58,4.95-8.01c1.6-1.89,4.18-3.48,5.05-5.88,1.91-5.29-5.3-8.01-9.15-9.15-4.77-1.4-9.85,2.61-12.76,6.06-4.11,4.87-5.67,10.8-6.3,17.03h8c.06-7.86,6.15-13.65,13.47-15.44,4.41-1.07,3.43-7.86-1.06-7.86-11.14,0-23.31,13.86-18.07,24.82l6.28-4.85-1.24-1.03c-2.61-2.16-6.76-.84-6.83,2.83l-.05,2.67h8l.19-.98-7.71-2.13-.31,1.02c-1.5,4.94,6.22,7.05,7.71,2.13l.31-1.02c1.5-4.97-6.05-6.95-7.71-2.13-.38,1.12-.49,1.93-.48,3.1,.04,5.15,7.9,5.15,8,0l.05-2.67-6.83,2.83,1.24,1.03c3.51,2.91,8.29-.65,6.28-4.85-1.31-2.73,1.38-5.97,2.97-7.99,2.15-2.72,4.52-4.8,8.19-4.8l-1.06-7.86c-10.78,2.63-19.26,11.81-19.34,23.15-.04,5.24,7.49,5.02,8,0,.43-4.26,1.54-8.55,4.4-11.86,.91-1.05,2.42-2.81,3.83-3.12,1.2-.26,4.86,1.25,4.9,1.33l-.4-3.08c.54-1.59-1.41,1.04-1.79,1.44-1.1,1.14-2.11,2.36-3.07,3.62-1.82,2.38-3.3,4.87-4.55,7.59l7.31,.96,.06-.28c.78-3.7-3.8-6.98-6.69-3.89l-3.93,4.22,6.28,.81-1.53-3.21c-1.04-2.18-4.73-2.72-6.28-.81l-4.03,4.95,6.83,2.83c.17-2.1,.98-3.69,2.38-5.23l-6.83-2.83c.16,2.56,.49,5.07,.97,7.59,.74,3.9,6.85,3.73,7.71,0l.56-2.41-6.69,1.77,.64,.68-1.17-2.83-.02,.89c-.14,5.17,7.71,5.11,8,0-.02-.93,.27-1.76,.87-2.48,2.4-3.93-3.04-7.97-6.28-4.85l-5.83,5.63,6.69,3.89c.3-1.78,.77-3.38,1.47-5.04l-7.71-2.13c-.56,1.71-.8,3.33-.88,5.12l7.45-2.02-.07,.79-6.69-3.89c-.35,2.47-.22,4.25,1.11,6.44l6.28-4.85c-.99-1.29,2.03-3.92,2.77-4.69,3.55-3.72-2.01-9.31-5.66-5.66-2.79,2.79-3.85,6.13-4.4,9.96l7.86,1.06c0-5.74,3.73-10.45,9.04-12.45l-4.52-5.88c-1.15,2.06-1.63,3.86-1.87,6.18h8l.06-1.04-1.17,2.83c.52-.49,3.39-.4,4.21-.62,2.36-.63,3.85-3.73,2.39-5.88-1.96-2.89-4.71-4.43-8.24-4.23-2.7,.16-5.41,3.4-3.45,6.02,1.42,1.9,2.89,3.35,4.9,4.63,3.63,2.31,7.09-2.11,5.47-5.47-.59-1.23-1.07-1.82-2.05-2.77-2.54-2.45-6.71-.64-6.83,2.83l-.09,2.55c-.17,5.18,7.65,5.09,8,0,.33-4.75-3.96-9.24-8.74-6.41s-8.53,9.46-11.21,13.98c-1.29,2.17-.12,5.26,2.39,5.88s4.3,.22,6.13-1.53c.82-.78,1.32-1.82,2.04-2.69,.53-.75,1.19-1.38,1.98-1.88-1.89-1.35-3.54-1.37-4.96-.06l3.08-.4-.82-.29,2.39,1.84c.21,1.09,.45,.91,.72-.52,.29-.89,.89-1.47,1.78-1.75l-5.88-4.52c-.06,1.4-.84,2.1-2.33,2.08l3.45,6.02c1.13-1.97,2.56-3.39,4.69-4.28l-4.92-4.92c-.52,2.25-1.54,3.9-3.81,4.61l4.52,5.88c1.78-3.16,4.27-5.11,7.71-6.23l-5.06-3.86c.01,1.46-3.03,4.17-3.78,5.67-1.09,2.18-1.52,4.37-1.78,6.77l5.06-3.86-.75-.67c-1.4-1.62-4.23-1.46-5.66,0l-1.98,2.03,6.69,1.77,.02-1.79c1.1-4.62-4.69-6.63-7.31-3.08-1.79,2.42-2.51,4.83-2.9,7.78l5.06-3.86c.83,1.43,1.2,1.41,1.09-.06l.31-1.27c.43-1.59,1.13-3.07,1.99-4.47,1.7-2.78,4-4.89,6.74-6.63,4.34-2.75,.33-9.67-4.04-6.91h0Z"/></g><g><path class="cls-1" d="M76.9,102.35c1.91-.17,3.79,.86,5.26,2.37s2.59,3.46,3.64,5.42c-1.77-3.61-5.08-6.01-8.51-6.15,3.26,.68,6.15,3.61,7.33,7.42l-2.82-4.3c2.03,2.2,3.28,5.45,3.38,8.78l-1.3-3.63c.68,.68,1.1,1.73,1.12,2.8,.08-1.95-.14-3.92-.65-5.78,.91,2.18,1.43,4.61,1.52,7.06-.75-2.03-1.8-3.89-3.09-5.45l.76,4.22c-1-1.78-2.19-3.4-3.51-4.81,.72,1.84,1.57,3.59,2.55,5.23-.64-1.85-1.57-3.54-2.72-4.95,.8,1.58,1.14,3.52,.93,5.37-.31-.85-.62-1.7-1.02-2.48-1.47-2.87-4.03-4.57-6.47-6.15,1.45,1.68,2.99,3.26,4.59,4.73-1.48-2.23-3.24-4.18-5.2-5.76,2.89,.79,5.67,2.24,8.13,4.28l-6.77-4.33c2.03,.25,4.01,1.1,5.74,2.44l-3.31-3.39,4.07,2.51c-1.39-2.18-3.77-3.35-6-2.96-.92,.16-1.87,.57-2.76,.23s-1.5-1.92-.77-2.63c.35-.34,.84-.32,1.28-.27,2.17,.29,4.28,1.26,6.06,2.81-.66-2.55-2.92-4.3-5.07-3.93-.24,.04-.49,.12-.65,.34-.26,.36-.16,.92,0,1.37,.4,1.17,1.07,2.2,1.91,2.94l-3.87-2.91c.2-.99,1.33-1.04,2.15-.85,3.42,.76,6.92,1.56,9.91,3.72s5.45,5.99,5.42,10.26c-.98-1.68-1.87-3.44-2.68-5.25,.95,1.36,1.43,3.21,1.31,5-.81-.33-1.57-.9-2.19-1.63,.83,1.2,1.84,2.22,2.96,2.99,.1-1.13-.11-2.3-.61-3.25l.71,2.45-.3-1.09,.09,1.68c-1.48-2.89-3.59-5.29-6.06-6.85-.61-.39-1.27-.73-1.96-.69s-1.4,.57-1.55,1.4,.51,1.78,1.17,1.54l-2.73-2.47,2.23,4.38-1.97-4.84c1.74,1.22,2.84,3.69,2.73,6.15,.6-.89,.93-2.05,.92-3.21l-.38,3.6c.09-.73,.49-1.39,1.03-1.7l3.04,4.06c-.37-1.16-.91-2.23-1.58-3.16l1.82,2.96c.14-1.29,.05-2.62-.26-3.87,1.99,.96,3.73,2.65,4.96,4.8,.22-6.75-4.12-13.27-9.55-14.33,2.29,1.06,4.09,3.61,4.63,6.55"/><path class="cls-1" d="M76.9,106.35c2.77,.03,4.32,3.74,5.44,5.81l6.91-4.04c-2.57-4.71-6.62-7.59-11.97-8.13-4.57-.46-5.31,6.69-1.06,7.86,2.33,.64,3.74,2.38,4.53,4.62l7.31-3.08-2.82-4.3-6.28,4.85c1.42,1.69,2.06,3.78,2.2,5.95l7.86-1.06-1.3-3.63-7.31,3.08c.54,.5,.78,1.11,.72,1.85,.65,4.56,7.82,3.31,7.86-1.06,.02-2.32-.25-4.58-.79-6.84l-7.71,2.13c.75,1.98,1.24,3.89,1.38,6l7.86-1.06c-.94-2.32-1.96-4.41-3.49-6.41-2.74-3.58-8.15-1.57-7.31,3.08l.76,4.22,7.31-3.08c-1.2-2.02-2.57-3.87-4.14-5.62-2.54-2.85-8.21,.15-6.69,3.89,.87,2.13,1.81,4.19,2.95,6.19,2.18,3.81,8.98,1.25,7.31-3.08-.82-2.14-1.74-4.07-3.13-5.91-3.12-4.14-8.96-.72-6.91,4.04,.47,1.09,.45,2.19,.39,3.35l7.86-1.06c-1.9-5.05-4.86-8.11-9.33-11.02-3.97-2.59-7.73,3.02-4.85,6.28,1.46,1.65,2.98,3.22,4.59,4.73,3.17,2.97,8.98-.96,6.28-4.85-1.7-2.44-3.55-4.65-5.83-6.57l-3.89,6.69c2.32,.7,4.44,1.74,6.36,3.25l4.85-6.28-6.77-4.33-3.08,7.31c1.87,.32,3.25,.94,4.78,2.04,3.78,2.7,7.94-3.12,4.85-6.28l-3.31-3.39-4.85,6.28,4.07,2.51c3.22,1.98,7.95-2.18,5.47-5.47-1.83-2.43-3.91-4.28-7-4.83-1.08-.19-2.97-.41-3.98,.14-1.12,.09-1.32,.97-.58,2.63-.9,1.63-.76,2.52,.41,2.68,.63,.56,1.97,.86,2.69,1.42,2.8,2.21,8.14,.3,6.69-3.89s-5.28-8.03-9.99-6.72c-5.88,1.63-3.45,8.2-.52,11.33l4.85-6.28-3.87-2.91,1.44,5.47c-2.24,.62-2.65,1.04-1.23,1.24,.76,.17,1.53,.36,2.28,.57,1.57,.44,3.13,.94,4.52,1.82,2.66,1.69,4.31,4.31,4.46,7.48l7.45-2.02c-.97-1.72-1.86-3.46-2.68-5.25l-6.91,4.04c.63,1.08,.76,1.73,.76,2.98l6.02-3.45c-.57-.19-1.03-.52-1.38-1-3.08-3.13-9.09,1.14-6.28,4.85,1.32,1.75,2.65,3.1,4.4,4.43,2.5,1.9,6.02-.7,6.02-3.45,0-1.53-.19-2.89-.75-4.32-1.83-4.68-9.18-2.93-7.71,2.13l.71,2.45c1.43,4.94,9.08,2.86,7.71-2.13l-.3-1.09c-1.16-4.26-8.09-3.54-7.86,1.06l.09,1.68,7.45-2.02c-2.27-4.13-7.35-10.81-12.88-9.28-5.05,1.4-5.71,9.6-.04,10.55,3.59,.6,7.14-3.75,3.89-6.69l-2.73-2.47c-3.4-3.07-8.37,.76-6.28,4.85l2.23,4.38c2.02,3.96,9.04,1.15,7.31-3.08l-1.97-4.84-6.69,3.89c1.14,.96,1.52,1.82,1.56,3.32,.09,3.79,5.55,5.67,7.45,2.02,.91-1.75,1.3-3.28,1.47-5.23,.46-5.15-7.46-5.05-8,0l-.38,3.6c-.5,4.71,6.48,5.09,7.86,1.06v.07l-6.28-.81,3.04,4.06c2.46,3.28,9.07,1.55,7.31-3.08-.55-1.46-1.14-2.8-1.99-4.12-2.77-4.31-9.62-.37-6.91,4.04l1.82,2.96c2.13,3.46,7.26,1.92,7.45-2.02,.08-1.7-.09-3.26-.4-4.93l-5.88,4.52c1.56,.85,2.59,1.87,3.53,3.37,2.06,3.31,7.47,2.04,7.45-2.02-.04-7.88-4.4-16.14-12.48-18.19-4.32-1.09-7.13,5.06-3.08,7.31,1.71,.95,2.35,2.31,2.8,4.16,1.2,5,8.92,2.89,7.71-2.13-.91-3.8-3.02-7.02-6.47-8.94l-3.08,7.31c4.6,1.17,6.59,6.11,6.61,10.47l7.45-2.02c-1.63-2.62-3.68-4.75-6.4-6.24-3.24-1.76-6.5,1.13-5.88,4.52,.19,.93,.23,1.86,.11,2.81l7.45-2.02-1.82-2.96-6.91,4.04c.5,.68,.9,1.41,1.18,2.21l7.31-3.08-3.04-4.06c-1.51-2.02-4.3-2.8-6.28-.81-1.08,1.08-1.57,2.02-2.06,3.46l7.86,1.06,.38-3.6h-8l-.38,1.19,7.45,2.02c-.08-3.45-1.21-6.71-3.9-8.98s-8.35-.19-6.69,3.89l1.97,4.84,7.31-3.08-2.23-4.38-6.28,4.85,2.73,2.47,3.89-6.69-.63-.11,2.39,1.84c-3.04,1.73-3.55,3.08-1.53,4.04,.44,.37,.85,.76,1.23,1.19,1,1.07,1.73,2.25,2.43,3.53,1.87,3.4,7.66,1.97,7.45-2.02l-.09-1.68-7.86,1.06,.3,1.09,7.71-2.13-.71-2.45-7.71,2.13c.39,.68,.54,1.41,.46,2.19l6.02-3.45c-.57-.46-1.08-.98-1.53-1.56l-6.28,4.85c.9,.91,1.86,1.67,3,2.25,2.66,1.37,6.01-.3,6.02-3.45,0-2.57-.55-4.8-1.85-7.02-2.66-4.52-9.01-.56-6.91,4.04,.82,1.79,1.71,3.54,2.68,5.25,1.91,3.37,7.64,1.99,7.45-2.02-.29-6.38-3.75-12.01-9.47-14.97-4.06-2.1-12.6-5.6-15.47-.18-1.1,2.08-.36,4.12,1.44,5.47l3.87,2.91c3.74,2.82,7.83-3.1,4.85-6.28-.6-1.26-.89-1.39-.87-.41l-1.84,2.39c-1.13,.59-.6-.09-.15,1.2l6.69-3.89c-3.53-2.79-11.78-7.08-14.14-.59-.89,2.45,.2,5.37,2.42,6.73,1.15,.71,2.42,.9,3.76,.82,1.55-.09,2.72-.84,3.86,.69l5.47-5.47-4.07-2.51c-3.91-2.41-8,3.06-4.85,6.28l3.31,3.39,4.85-6.28c-2.03-1.45-4.23-2.42-6.7-2.85-4.36-.76-7.08,4.76-3.08,7.31l6.77,4.33c3.75,2.4,8.46-3.44,4.85-6.28-3.04-2.39-6.17-4.18-9.89-5.31s-7,4.06-3.89,6.69c1.75,1.48,3.27,3.07,4.58,4.95l6.28-4.85c-1.61-1.51-3.13-3.08-4.59-4.73l-4.85,6.28c2.61,1.71,4.52,3.23,5.65,6.24,1.57,4.17,7.61,3.61,7.86-1.06,.14-2.7-.42-4.93-1.48-7.39l-6.91,4.04c.95,1.26,1.75,2.52,2.32,4l7.31-3.08c-.8-1.39-1.54-2.79-2.15-4.28l-6.69,3.89c1.12,1.25,2.03,2.56,2.89,4,2.42,4.08,8.09,1.24,7.31-3.08l-.76-4.22-7.31,3.08c1.08,1.41,2.01,2.84,2.68,4.49,1.54,3.81,8.18,3.85,7.86-1.06-.19-2.83-.66-5.47-1.67-8.13-1.8-4.74-8.94-2.97-7.71,2.13,.38,1.59,.52,3.08,.51,4.71l7.86-1.06c-.2-1.42-.67-2.61-1.52-3.76-2.46-3.32-8.97-1.56-7.31,3.08l1.3,3.63c1.42,3.98,8.17,3.73,7.86-1.06-.29-4.44-1.68-8.19-4.55-11.61s-8.77,1.06-6.28,4.85l2.82,4.3c2.36,3.59,8.91,1.41,7.31-3.08-1.74-4.89-4.97-8.8-10.12-10.21l-1.06,7.86c2.43,.24,3.98,2.19,5.06,4.17,2.46,4.52,9.37,.49,6.91-4.04-2.67-4.92-6.24-9.7-12.35-9.77-5.15-.06-5.15,7.94,0,8h0Z"/></g><g><path class="cls-1" d="M90.47,52.87c-2.19,.06-4.69-.14-6.04-1.86-.96-1.22-1.03-3.06-.17-4.35,.47,1.75,1.15,3.45,2.02,5.04,.26,.48,.55,.96,.95,1.35,.93,.9,2.29,1.15,3.56,1.36-1.76-.83-3.56-1.69-4.86-3.13s-1.99-3.62-1.14-5.37c.03,1.01-.48,2.03-.19,2.99,.14,.48,.47,.88,.82,1.24,1.54,1.61,3.6,2.7,5.8,3.07-1.43-.13-2.76-.78-3.97-1.55-1.04-.65-2.04-1.43-2.68-2.48s-.84-2.43-.25-3.5c-1.36,1.67-.68,4.34,.93,5.76s3.86,1.87,6,2.09c-2-.34-3.83-1.62-4.84-3.38s-1.21-3.97-.5-5.88c-1.31,1.25-2.53,2.84-2.48,4.65,.03,1.36,.81,2.63,1.89,3.45s2.44,1.21,3.8,1.3c-.8-.44-1.68-.99-1.82-1.88-.1-.64,.21-1.26,.52-1.83l1.35-2.52c-.85,.97-1.76,2.24-1.27,3.43,.18,.44,.54,.79,.9,1.11,.76,.67,1.64,1.28,2.65,1.34-1.22-.38-2.27-1.37-2.58-2.61s.22-2.68,1.32-3.33c-.95,.47-1.23,1.78-.85,2.76s1.27,1.69,2.19,2.21c-1.51-1.06-2.29-3.07-1.89-4.88-.82,1.41-.08,3.31,1.19,4.33s2.94,1.37,4.54,1.69c-1.04-.24-2.09-.7-2.74-1.56s-.77-2.16-.07-2.97c-.47,.56-.95,1.14-1.15,1.84s-.06,1.55,.53,1.98c-.33-.8-.66-1.64-.62-2.5s.58-1.77,1.42-1.95c-.61,.83-.69,2.01-.2,2.91s1.53,1.47,2.55,1.41c-2.82,.2-5.67,.06-8.45-.43-1.57-.28-3.43-.97-3.68-2.54-.19-1.16,.61-2.22,1.37-3.12-.9,2.65,.63,5.88,3.25,6.85-1.53-1.19-2.52-3.05-2.66-4.98-.53,.9-1.07,2.01-.61,2.95,.59,1.19,2.25,1.18,3.46,1.72-1.25-.22-2.56-.47-3.54-1.27s-1.47-2.36-.7-3.37c-.35,.79-.41,1.72-.06,2.51,.72,1.64,2.77,2.13,4.54,2.41-1.16-.25-2.39-.19-3.49-.65s-2-1.74-1.48-2.8c-.42,.91,.1,2.03,.91,2.62s1.84,.78,2.82,.96c-.97,.02-1.85-.52-2.67-1.05-1.03-.66-2.15-1.49-2.28-2.71-.1-1.01,.54-1.94,1.23-2.68,.96-1.04,2.08-1.92,3.31-2.62-2.23,.57-4.13,2.28-4.92,4.44,1.03-1.97,2.69-3.59,4.68-4.57-.71,.8-.99,1.9-1.02,2.96-.07,2.46,1.15,4.91,3.16,6.34"/><path class="cls-1" d="M90.47,52.37c-1.59,.04-3.38,.01-4.76-.87-1.55-.99-1.98-3.03-1.01-4.58l-.91-.12c.53,1.96,1.29,3.97,2.38,5.7,1.03,1.63,2.69,2.1,4.5,2.4,.51,.08,.94-.65,.39-.91-1.67-.79-3.41-1.6-4.69-2.98-1.16-1.26-1.88-3.19-1.13-4.84l-.93-.25c0,1.04-.49,2.09-.18,3.13,.26,.87,1.01,1.58,1.68,2.15,1.51,1.29,3.33,2.16,5.28,2.51l.13-.98c-1.77-.19-3.51-1.18-4.87-2.29-1.29-1.05-2.43-2.8-1.59-4.48,.24-.47-.42-1.08-.79-.61-1.39,1.79-.98,4.24,.4,5.92,1.65,2.01,4.44,2.54,6.88,2.79,.56,.06,.69-.88,.13-.98-3.98-.74-6.34-4.81-5-8.64,.17-.49-.5-.81-.84-.49-1.75,1.69-3.31,4.05-2.31,6.54s3.43,3.52,5.87,3.71c.5,.04,.67-.7,.25-.93-.88-.49-1.88-1.1-1.48-2.26s1.14-2.23,1.7-3.29c.26-.48-.4-1.05-.79-.61-.97,1.12-2.1,2.71-1.26,4.22,.73,1.31,2.42,2.37,3.89,2.52,.59,.06,.64-.81,.13-.98-1.04-.35-1.96-1.16-2.23-2.26-.25-1.04,.18-2.19,1.09-2.76,.54-.34,.06-1.18-.5-.86-1.03,.58-1.44,1.82-1.19,2.95,.29,1.32,1.42,2.24,2.53,2.9,.57,.33,1.01-.49,.5-.86-1.33-.98-1.98-2.7-1.66-4.31,.11-.53-.63-.91-.91-.39-.81,1.51-.3,3.3,.82,4.51,1.33,1.43,3.38,1.87,5.22,2.23,.63,.13,.9-.81,.27-.96-.86-.21-1.73-.54-2.33-1.21s-.83-1.74-.25-2.48c.39-.5-.29-1.21-.71-.71-1,1.2-2.22,3.22-.62,4.52,.34,.27,1.05,.03,.84-.49-.45-1.1-1.26-3.36,.45-3.84l-.56-.73c-1.49,2.2,.15,5.14,2.79,5.07v-1c-2.88,.2-5.89,.12-8.72-.49-.92-.2-2.01-.53-2.61-1.32-.87-1.17,.15-2.51,.91-3.43l-.84-.49c-.96,2.98,.71,6.33,3.6,7.46,.46,.18,.87-.53,.49-.84-1.43-1.15-2.35-2.79-2.51-4.63-.04-.47-.67-.71-.93-.25-.69,1.2-1.36,2.82-.22,3.98,.88,.9,2.27,.95,3.38,1.42l.27-.96c-1.16-.21-2.46-.41-3.38-1.2-.77-.66-1.18-1.82-.56-2.71l-.91-.39c-.59,1.46-.29,3.11,.95,4.13,1.08,.89,2.52,1.19,3.87,1.41,.62,.1,.9-.84,.27-.96-1.08-.22-2.24-.18-3.28-.57-.79-.29-1.78-1.22-1.38-2.15l-.91-.39c-.4,1.01,0,2.15,.77,2.88,.89,.85,2.15,1.11,3.32,1.32l.13-.98c-1.07-.02-2.03-.7-2.88-1.29-.75-.52-1.62-1.26-1.57-2.27,.05-1.06,.96-1.95,1.68-2.63,.79-.75,1.67-1.39,2.61-1.93,.49-.28,.16-1.06-.39-.91-2.43,.66-4.37,2.45-5.27,4.79-.2,.53,.65,.88,.91,.39,1.02-1.91,2.57-3.42,4.5-4.39l-.61-.79c-2.6,3.1-.67,7.96,2.23,10.09,.52,.38,1.02-.49,.5-.86-1.27-.93-2.2-2.29-2.64-3.8s-.46-3.44,.61-4.72c.36-.43-.08-1.05-.61-.79-2.07,1.05-3.76,2.71-4.86,4.75l.91,.39c.77-2.01,2.5-3.53,4.58-4.09l-.39-.91c-1.2,.69-2.31,1.54-3.27,2.54-.83,.87-1.65,1.98-1.51,3.26,.13,1.17,.99,2,1.9,2.65,1.04,.76,2.22,1.51,3.54,1.54,.55,.01,.7-.88,.13-.98-1.4-.25-4.18-.94-3.38-2.97,.21-.52-.69-.91-.91-.39-.49,1.15,0,2.32,.96,3.07,1.22,.95,2.86,.83,4.3,1.12l.27-.96c-1.07-.17-2.2-.38-3.13-.95-1.22-.75-1.52-2.06-.99-3.36,.22-.56-.61-.82-.91-.39-.77,1.11-.45,2.57,.37,3.56,1.01,1.22,2.69,1.55,4.17,1.82,.65,.11,.85-.72,.27-.96-.83-.35-1.79-.42-2.57-.88-1.22-.72-.54-2.11,0-3.06l-.93-.25c.18,2.09,1.16,4.02,2.81,5.34l.49-.84c-2.4-.94-3.68-3.81-2.9-6.23,.15-.46-.51-.87-.84-.49-.9,1.08-1.89,2.42-1.42,3.91,.35,1.13,1.39,1.79,2.44,2.19,1.43,.53,3.03,.67,4.54,.8,1.85,.17,3.71,.18,5.57,.05,.64-.04,.65-1.02,0-1-1.92,.05-2.99-1.99-1.92-3.56,.25-.37-.16-.85-.56-.73-.89,.24-1.5,.98-1.71,1.87-.26,1.1,.15,2.19,.56,3.2l.84-.49c-1.11-.9-.05-2.31,.62-3.1l-.71-.71c-.77,.97-.8,2.29-.16,3.35,.68,1.13,1.95,1.71,3.18,2.01l.27-.96c-1.5-.3-3.14-.6-4.36-1.59-1.05-.85-1.76-2.4-1.08-3.69l-.91-.39c-.42,2.09,.41,4.18,2.12,5.44l.5-.86c-.8-.47-1.63-1.07-1.97-1.96-.29-.77-.12-1.73,.63-2.15l-.5-.86c-1.24,.79-1.86,2.28-1.58,3.72,.29,1.52,1.53,2.65,2.96,3.13l.13-.98c-1.08-.11-2.31-.96-2.92-1.85-.75-1.1,.29-2.37,1-3.18l-.79-.61c-.41,.77-.82,1.54-1.23,2.31-.33,.62-.69,1.26-.71,1.98-.04,1.29,1.07,2.07,2.08,2.63l.25-.93c-2.04-.16-4.23-1.09-4.98-3.15s.69-4.01,2.12-5.39l-.84-.49c-1.51,4.31,1.21,9.03,5.7,9.87l.13-.98c-2.03-.21-4.31-.62-5.83-2.12-1.22-1.21-1.89-3.41-.75-4.88l-.79-.61c-2.12,4.23,3.83,7.9,7.33,8.28,.56,.06,.69-.88,.13-.98-1.71-.31-3.34-1.01-4.69-2.12-.58-.48-1.35-1.1-1.58-1.84-.28-.9,.2-1.94,.21-2.86,0-.47-.72-.72-.93-.25-.83,1.85-.36,3.93,.84,5.51,1.34,1.76,3.39,2.75,5.34,3.68l.39-.91c-.78-.13-1.6-.25-2.33-.57-.82-.36-1.34-.96-1.78-1.72-.91-1.6-1.59-3.33-2.07-5.11-.12-.42-.69-.48-.91-.12-1.12,1.79-.78,4.22,.85,5.58s3.81,1.44,5.78,1.39c.64-.02,.64-1.02,0-1h0Z"/></g></g><path class="cls-3" d="M99.99,141.82c-43.19,0-81.97-23.03-98.8-58.68-.47-1-.04-2.19,.95-2.66,1-.47,2.19-.04,2.66,.95,16.17,34.25,53.54,56.39,95.19,56.39s79.01-22.13,95.19-56.39c.47-1,1.67-1.42,2.66-.95,1,.47,1.43,1.66,.96,2.66-16.83,35.65-55.61,58.68-98.8,58.68Z"/><g><path class="cls-3" d="M61.63,170.58H21.92v-7.04H61.63v7.04Zm-3.16,18.69H30.56c-1.65,0-2.97-.46-3.96-1.38-.99-.92-1.48-2.19-1.48-3.81v-11.65H58.47v16.84Zm-.24-27.18h-7.38v-7.57H25.42v-7.04H58.23v14.61Zm-7.09,20.39v-3.25h-18.64v3.25h18.64Z"/><path class="cls-3" d="M87.65,168.74h-19.17c-1.07,0-1.95-.14-2.65-.41-.7-.27-1.26-.66-1.7-1.14-.44-.49-.75-1.06-.92-1.72-.18-.66-.27-1.38-.27-2.16v-15.73h7.38v5.05h9.95v-5.05h7.38v21.16Zm-5.63,2.28c2.23,0,4.38,.1,6.46,.29,2.07,.19,3.9,.62,5.48,1.29,1.59,.66,2.86,1.61,3.81,2.84,.95,1.23,1.43,2.88,1.43,4.95s-.48,3.72-1.43,4.95c-.96,1.23-2.23,2.18-3.81,2.84-1.59,.66-3.41,1.09-5.48,1.29-2.07,.19-4.22,.29-6.46,.29s-4.39-.1-6.46-.29c-2.07-.19-3.9-.62-5.48-1.29-1.59-.66-2.86-1.61-3.81-2.84-.96-1.23-1.43-2.88-1.43-4.95s.48-3.72,1.43-4.95c.95-1.23,2.22-2.18,3.81-2.84,1.58-.66,3.41-1.09,5.48-1.29,2.07-.19,4.22-.29,6.46-.29Zm-1.75-9.32v-2.52h-9.95v2.52h9.95Zm1.75,21.84c1.58,0,3.01-.02,4.27-.07,1.26-.05,2.33-.18,3.2-.39,.87-.21,1.54-.53,1.99-.95,.45-.42,.68-1,.68-1.75s-.23-1.33-.68-1.75c-.45-.42-1.12-.74-1.99-.95-.87-.21-1.94-.34-3.2-.39s-2.69-.07-4.27-.07-3.01,.02-4.27,.07c-1.26,.05-2.33,.18-3.2,.39-.87,.21-1.54,.53-1.99,.95-.45,.42-.68,1-.68,1.75s.23,1.33,.68,1.75c.45,.42,1.12,.74,1.99,.95,.87,.21,1.94,.34,3.2,.39,1.26,.05,2.69,.07,4.27,.07Zm21.16-22.43h-4.61v9.47h-7.38v-24.03h7.38v7.52h4.61v7.04Z"/><path class="cls-3" d="M139.78,189.76h-7.18v-23.49h-1.6v23.49h-7.13v-13.11h-15.19c-2.01,0-3.49-.49-4.46-1.46-.97-.97-1.46-2.33-1.46-4.08v-23.83h7.43v22.33h13.69v-23.06h7.13v12.67h1.6v-12.67h7.18v43.2Z"/><path class="cls-3" d="M167.25,168.74h-19.17c-1.07,0-1.95-.14-2.65-.41-.7-.27-1.26-.66-1.7-1.14-.44-.49-.74-1.06-.92-1.72-.18-.66-.27-1.38-.27-2.16v-15.73h7.38v5.05h9.95v-5.05h7.38v21.16Zm-5.63,2.28c2.23,0,4.38,.1,6.46,.29,2.07,.19,3.9,.62,5.49,1.29,1.58,.66,2.86,1.61,3.81,2.84,.95,1.23,1.43,2.88,1.43,4.95s-.48,3.72-1.43,4.95c-.96,1.23-2.23,2.18-3.81,2.84-1.59,.66-3.42,1.09-5.49,1.29-2.07,.19-4.22,.29-6.46,.29s-4.39-.1-6.46-.29c-2.07-.19-3.9-.62-5.49-1.29-1.59-.66-2.86-1.61-3.81-2.84-.95-1.23-1.43-2.88-1.43-4.95s.48-3.72,1.43-4.95c.95-1.23,2.22-2.18,3.81-2.84,1.59-.66,3.41-1.09,5.49-1.29,2.07-.19,4.22-.29,6.46-.29Zm-1.75-9.32v-2.52h-9.95v2.52h9.95Zm1.75,21.84c1.58,0,3.01-.02,4.27-.07,1.26-.05,2.33-.18,3.2-.39,.87-.21,1.54-.53,1.99-.95,.45-.42,.68-1,.68-1.75s-.23-1.33-.68-1.75c-.45-.42-1.12-.74-1.99-.95-.87-.21-1.94-.34-3.2-.39s-2.69-.07-4.27-.07-3.01,.02-4.27,.07-2.33,.18-3.2,.39c-.87,.21-1.54,.53-1.99,.95s-.68,1-.68,1.75,.23,1.33,.68,1.75,1.12,.74,1.99,.95c.87,.21,1.94,.34,3.2,.39,1.26,.05,2.69,.07,4.27,.07Zm21.16-22.43h-4.61v9.47h-7.38v-24.03h7.38v7.52h4.61v7.04Z"/></g></svg>