<?xml version="1.0" encoding="UTF-8"?><svg id="Layer_1" xmlns="http://www.w3.org/2000/svg" viewBox="0 0 200 200"><defs><style>.cls-1,.cls-2{fill:#fff;}.cls-1,.cls-3,.cls-4{stroke-linecap:round;stroke-miterlimit:10;}.cls-1,.cls-4{stroke:#dbdbdb;}.cls-5{fill:#dbdbdb;}.cls-3{stroke:#f2f2f2;}.cls-3,.cls-4{fill:none;}.cls-6{fill:#d5b693;}</style></defs><g><g><path class="cls-5" d="M132.34,131.67h.01c2.26-1.69,3.88-3.3,4.72-4.15,4.93-5.04,8.15-8.32,10.32-14.24,.66-1.8,1.41-3.86,1.67-6.59,.02-.17,.04-.35,.05-.53,.71-10.21-6.08-22.37-14.62-23.4-.97-.11-4.64-.56-7.75,2.04-3.33,2.77-4.45,7.72-5.4,13-.91,5.05-1.67,10.41-4.06,14.46-.31,.52-1.18,1.93-1.72,4.07-.84,3.33-.34,6.27,0,8.14,.05,.25,.1,.53,.16,.83,.11,.56,.25,1.19,.45,1.87,0,.02,0,.03,0,.04v.02c.39,1.33,.98,2.84,1.96,4.36,.75,1.16,1.67,2.59,3.02,3.47,2.15-.54,4.33-1.16,6.53-1.84l4.65-1.55Z"/><path class="cls-3" d="M132.13,84.45s-1.18,9.54,2.39,15.87,6.39,10.89,9.98,15.11"/><path class="cls-3" d="M126,93.14s-1.16,7.21,2.72,16.12,9.5,13.28,9.5,13.28"/><path class="cls-3" d="M129.6,130.16s-5-3-7-9-2.8-8.71-2.8-8.71"/><path class="cls-3" d="M123.09,102.21s2.38,.51,7.94-2.27c5.57-2.78,10.57-12.78,10.57-12.78"/><path class="cls-3" d="M121.58,109.23s6.21,.29,11.61-1.39,10.41-7.9,10.41-7.9l2.3-4.7"/><path class="cls-3" d="M117.04,119s6.8,.84,11.68,0,15.78-7.74,20.88-12.84"/><path class="cls-3" d="M117.87,125.87c-1-.05,7.67,2.62,17.72-1.71"/></g><g><path class="cls-2" d="M74.72,72.39l-1.13-.08c-.69-.16-2.29-.59-3.78-1.62-1.4-.96-2.16-2.92-1.81-4.41,.34-1.49,2.4-2.3,4.74-1.86l3.37,.63c.98,.36,1.78,.7,2.37,.96,1.81,.81,2.21,1.16,2.42,1.4,.38,.42,.5,.82,.54,1.08l-.26,1.17c-.14,.27-.38,.64-.77,1.04-.41,.41-1.13,1.1-2.54,1.47-1.24,.33-2.45,.28-3.15,.22Z"/><path class="cls-6" d="M74.75,72.44l-.75-.07c-.46-.1-1.54-.37-2.56-.94-.95-.53-1.52-1.55-1.34-2.3,.18-.75,1.52-1.1,3.09-.8l2.25,.42c.66,.21,1.2,.41,1.6,.56,1.23,.47,1.5,.66,1.65,.78,.26,.22,.36,.43,.39,.57l-.13,.59c-.08,.13-.23,.32-.48,.51-.26,.19-.71,.53-1.64,.67-.81,.13-1.62,.07-2.08,.01Z"/></g><g><path class="cls-2" d="M74.72,72.39l-1.13-.08c-.69-.16-2.29-.59-3.78-1.62-1.4-.96-2.16-2.92-1.81-4.41,.34-1.49,2.4-2.3,4.74-1.86l3.37,.63c.98,.36,1.78,.7,2.37,.96,1.81,.81,2.21,1.16,2.42,1.4,.38,.42,.5,.82,.54,1.08l-.26,1.17c-.14,.27-.38,.64-.77,1.04-.41,.41-1.13,1.1-2.54,1.47-1.24,.33-2.45,.28-3.15,.22Z"/><path class="cls-6" d="M74.75,72.44l-.75-.07c-.46-.1-1.54-.37-2.56-.94-.95-.53-1.52-1.55-1.34-2.3,.18-.75,1.52-1.1,3.09-.8l2.25,.42c.66,.21,1.2,.41,1.6,.56,1.23,.47,1.5,.66,1.65,.78,.26,.22,.36,.43,.39,.57l-.13,.59c-.08,.13-.23,.32-.48,.51-.26,.19-.71,.53-1.64,.67-.81,.13-1.62,.07-2.08,.01Z"/></g><g><path class="cls-2" d="M74.72,72.39l-1.13-.08c-.69-.16-2.29-.59-3.78-1.62-1.4-.96-2.16-2.92-1.81-4.41,.34-1.49,2.4-2.3,4.74-1.86l3.37,.63c.98,.36,1.78,.7,2.37,.96,1.81,.81,2.21,1.16,2.42,1.4,.38,.42,.5,.82,.54,1.08l-.26,1.17c-.14,.27-.38,.64-.77,1.04-.41,.41-1.13,1.1-2.54,1.47-1.24,.33-2.45,.28-3.15,.22Z"/><path class="cls-5" d="M74.75,72.44l-.75-.07c-.46-.1-1.54-.37-2.56-.94-.95-.53-1.52-1.55-1.34-2.3,.18-.75,1.52-1.1,3.09-.8l2.25,.42c.66,.21,1.2,.41,1.6,.56,1.23,.47,1.5,.66,1.65,.78,.26,.22,.36,.43,.39,.57l-.13,.59c-.08,.13-.23,.32-.48,.51-.26,.19-.71,.53-1.64,.67-.81,.13-1.62,.07-2.08,.01Z"/></g><g><path class="cls-2" d="M114.5,72.78h1.13c.7-.1,2.34-.38,3.92-1.15,1.48-.72,2.44-2.31,2.25-3.56-.19-1.25-2.15-2.04-4.52-1.8l-3.41,.35c-1.01,.24-1.84,.48-2.46,.67-1.88,.57-2.31,.85-2.54,1.03-.42,.33-.58,.65-.65,.87l.13,.98c.11,.23,.31,.55,.66,.9,.36,.36,1.01,.97,2.37,1.36,1.2,.34,2.4,.36,3.1,.35Z"/><path class="cls-5" d="M114.47,72.81l.75-.02c.47-.06,1.57-.23,2.64-.64,1-.39,1.67-1.21,1.56-1.83-.11-.63-1.4-.99-2.99-.83l-2.28,.23c-.68,.14-1.23,.27-1.65,.38-1.27,.32-1.56,.47-1.71,.56-.29,.17-.4,.34-.45,.45l.07,.49c.07,.12,.2,.27,.43,.45,.24,.17,.65,.47,1.56,.65,.8,.15,1.6,.14,2.06,.12Z"/></g><path class="cls-2" d="M79.88,64.71c-1.08,.95-2.66,2.57-4.14,4.39-1.02,1.26-2.1,2.58-3.11,4.39-.64,1.16-2.07,4-2.59,7.69-.82,5.89,1.13,10.66,2.07,12.63,.66,1.5,2.55,5.27,6.66,7.6,1.99,1.13,3.87,1.56,5.21,1.74h19.99c1.48-.22,3.31-.7,5.2-1.74,6.1-3.36,7.88-9.86,8.26-11.44v-9.34c-.14-2.37-.65-4.24-1.1-5.49-1.1-3.11-2.73-5.19-3.84-6.59-.14-.18-1.51-1.88-3.1-3.3-7.24-6.44-16.05-6.04-16.05-6.04-6.69,.26-11.6,3.86-13.46,5.49Z"/><path class="cls-2" d="M128.76,126.19c-.03,1.02-.11,2.09-.26,3.18h0c-.17,1.28-.43,2.57-.81,3.85-2.2,.68-4.38,1.3-6.53,1.84-1.59,.42-3.16,.79-4.71,1.12-6.31,1.35-12.21,2.08-17.17,2.08-5.42,0-14.29-2.25-23.11-5-3.75-1.17-7.5-2.43-10.96-3.65-.41-3.76,1.24-9.53,2.47-15.74,1.24-6.27,1.92-7.33,2.81-10.86,.67-2.65,.97-3.93,1.65-5.34,.08-.18,.17-.36,.27-.55,.12-.23,.34-.63,.78-1.24,.79-1.07,2.28-2.78,5.16-5.28,2.59-2.23,4.63-3.98,6.56-5.26,.3-.2,.6-.38,.9-.56,.04-.03,.09-.05,.13-.07,1.78-1.02,3.52-1.62,5.58-1.8,.04-.01,.07-.01,.11-.01,.05-.01,.09-.01,.14-.01,.1-.02,.21-.02,.32-.02,.28-.02,.57-.03,.87-.03,.1,.01,.2,.03,.31,.04,.48,.06,1.06,.14,1.72,.24,1.28,.18,2.85,.42,4.59,.72,.19,.04,.39,.07,.59,.11,4.12,.73,9,1.81,12.88,3.28,1.13,.43,2.48,1.01,3.84,2.2,.2,.17,.38,.34,.55,.52,.59,.59,1.05,1.21,1.46,1.92,.85,1.47,1.44,3.27,2.39,5.8,.02,.04,.03,.09,.05,.13,.87,2.33,1.4,3.54,1.8,4.43,.66,1.4,1.01,1.96,1.99,4.77,.26,.76,.51,1.47,.74,2.13,1.43,4.15,2.23,6.75,2.55,9.92,.01,0,.01,.03,.01,.04,.12,1.19,.45,3.88,.33,7.1Z"/><ellipse class="cls-2" cx="79.87" cy="87.55" rx="12.78" ry="12.72"/><ellipse class="cls-2" cx="107.33" cy="86.45" rx="12.78" ry="12.72"/><ellipse class="cls-2" cx="90.87" cy="75.51" rx="1.78" ry="1.54"/><polygon class="cls-2" points="92.18 91.35 87.41 92.87 85.49 82.29 93.35 82.29 92.18 91.35"/><polygon class="cls-2" points="93.17 90.92 97.95 92.36 99.86 82.29 92.01 82.29 93.17 90.92"/><line class="cls-4" x1="93.95" y1="91.17" x2="91.4" y2="80.76"/><path class="cls-1" d="M91.48,79.82c.92,1.14,.19,3.71-1.8,4.67-1.99,.95-4.59,.5-5.82-1.01s-.61-3.51,1.38-4.47,5.31-.33,6.24,.81Z"/><path class="cls-1" d="M91.63,80.82c.5-1.29,3.49-2.57,5.74-2.05s3.53,2.31,2.87,4.02-3.02,2.68-5.26,2.16c-2.25-.51-3.84-2.84-3.34-4.13Z"/><path class="cls-5" d="M86.25,76.04c-.92,1.17,.57,4.81,1.94,5.52s4.95,.72,6.33,0,2.86-4.35,1.94-5.52c-1.5-1.9-8.7-1.9-10.2,0Z"/><ellipse class="cls-2" cx="89.61" cy="76" rx="2.44" ry="1.4"/><path class="cls-5" d="M100.71,74.86c.06-.36,.4-.64,.76-.63s.68,.34,.71,.71v-.91s-.05,.02-.08,.01l-.11-.02-.18-.03-.39-.06-.78-.11v1h1.11v-1c-.11,.05-.23,.1-.35,.1-.09,0-.2-.05-.21-.15v.93h0v.06c0-.09,.18-.29,.24-.13,0-.03,0-.13,0-.15,0-.12,0-.24,0-.35s0-.24,0-.35c0-.04,.01-.11,0-.15-.03-.09-.11-.06-.17-.01-.03,.03-.06,.07-.07,.11,0,.03,0,.07,0,.1,0,.17,0,.34,0,.5,0,.14,0,.28,0,.42,0,.02,0,.04,.01,.07,.03,.05,.09,.08,.14,.1,.14,.03,.29-.03,.41-.09,0,0,0-.16,0-.15,0-.12,0-.24,0-.35,0-.04,0-.5,0-.5h-1.11s0,.46,0,.5-.01,.5,0,.5l.99,.14,.24,.03,.12,.02s.1,.03,.15,.02c.03,0,.02,.02,.03-.02,0,0,0-.03,0-.04,0-.08,0-.17,0-.25,0-.25,0-.5,0-.76-.02-.49-.51-.88-.99-.7-.25,.1-.44,.32-.49,.58,0,.05,0,.1,0,.15,0,.12,0,.24,0,.35s0,.24,0,.35c0,.05,.01,.1,0,.15h0Z"/><path class="cls-5" d="M81.48,75.08l.48-.38,.24-.19s.04-.04,.06-.04c.01-.02,.02-.02,.02,0v.03s.03,.08,.05,.12c.11,.31,.31,.58,.56,.79v-1c-.59-.19-1.22-.2-1.8-.02v1c.33-.11,.67-.15,1.02-.13,0,0,0-.9,0-.98-.01-.24-.15-.46-.38-.56-.05-.02-.11-.04-.17-.05-.01,0-.03,0-.04,0-.02,0-.04,0-.05,.03-.03,.03-.05,.07-.07,.1l-.29,.42v1c.27-.68,1.39-.74,1.72-.08,0-.02,0-.14,0-.15,0-.12,0-.24,0-.35s0-.24,0-.35c0-.04,.01-.11,0-.15-.33-.65-1.45-.6-1.72,.08-.01,.03,0,.12,0,.15,0,.12,0,.24,0,.35s0,.24,0,.35c0,.03,.02,.13,0,.15l.28-.4,.06-.09s.03-.06,.09-.06,.11,.02,.16,.04c.22,.09,.39,.3,.4,.53v-.98c-.34-.02-.69,.02-1.01,.13,0,0,0,.17,0,.15,0,.12,0,.24,0,.35s0,.24,0,.35c0,.02,0,.15,0,.15,.59-.18,1.22-.17,1.8,.02,0,0,0-.17,0-.15,0-.12,0-.24,0-.35s0-.24,0-.35c0-.02,.01-.13,0-.15-.25-.21-.45-.48-.56-.79-.01-.04-.02-.07-.04-.11,0,0,0-.05-.01-.06,0,0-.05,.04-.06,.04l-.24,.19-.49,.39s0,.16,0,.15c0,.12,0,.24,0,.35s0,.24,0,.35c0,.02,.01,.14,0,.15h0Z"/><path class="cls-5" d="M116.89,132.27c0,.8-.07,2.21-.44,3.91-6.31,1.35-12.21,2.08-17.17,2.08-5.42,0-14.29-2.25-23.11-5-.39-4.19,.15-8.88,1.73-13.62,.37-1.1,.73-2.2,1.1-3.3,.1-.24,.65-1.6,1.71-3.31h0s.05-.09,.08-.13c.1-.17,.21-.34,.33-.51,.06-.08,.11-.17,.18-.26,0-.01,.01-.02,.03-.04,0-.01,.01-.02,.03-.04,.33-.48,.71-.99,1.13-1.5,.02-.03,.04-.05,.06-.08,.11-.13,.22-.26,.34-.39,.34-.39,.71-.78,1.1-1.16,.17-.16,.34-.32,.52-.48,.01-.01,.03-.03,.05-.04l.21-.18,.03-.03c.23-.2,.47-.39,.72-.58h.01s.08-.07,.12-.1c.05-.04,.1-.08,.15-.11,.01-.01,.03-.03,.05-.03,1.67-1.22,3.67-2.18,6.03-2.56,4.85-.79,8.89,1.26,11.71,3.21,.13,.09,.26,.18,.38,.27,.01,0,.02,.01,.03,.02,.47,.33,.9,.66,1.29,.96,.07,.05,.13,.1,.19,.14,.06,.05,.12,.1,.17,.14,.09,.07,.18,.13,.26,.2h.01c.14,.11,.27,.22,.4,.34,.15,.11,.29,.23,.43,.36,.23,.19,.45,.38,.67,.58,.34,.32,.68,.64,.99,.96,.08,.08,.15,.15,.22,.23,.48,.5,.93,1.01,1.35,1.53,.11,.12,.21,.25,.3,.38,.06,.06,.11,.13,.16,.19,.18,.23,.35,.47,.52,.7,2.49,3.45,3.92,7.14,4.76,10.28,.17,.65,.32,1.28,.45,1.87,0,.02,.01,.03,.01,.04v.02c.48,2.26,.64,4.07,.71,5.04Z"/><g><path class="cls-2" d="M114.9,99.01c-5.34,3.17-9.05,8.53-9.88,14.28-.2,1.36,.21,3.23,1.72,3.29,.12-1.85,.86-3.66,2.09-5.13-.41,1.12-.41,2.36-.01,3.48l1.76-1.8c.48,.75,1.31,1.31,2.23,1.51,.12-2.49,1.13-4.95,2.83-6.9,1.09-1.25,2.56-2.62,2.11-4.16-3.93,1.1-7.28,3.78-8.99,7.18,3.2-.73,5.38-3.62,5.88-6.58-2.77,.98-5.08,2.98-6.3,5.44,2.73,.17,5.38-1.98,5.5-4.46-2.06,.71-2.97,2.85-3.65,4.75-.17,.48-.34,.98-.24,1.47s.57,.96,1.12,.92c.32-.03,.59-.22,.83-.4,1.7-1.29,3.26-3.28,2.54-5.19-.15-.4-.44-.8-.88-.94-.57-.18-1.18,.11-1.67,.43-1.45,.93-2.66,2.16-3.53,3.56-.3,.49-.58,1.01-1.05,1.37s-1.23,.49-1.7,.13c2.19-3.81,4.9-7.38,8.05-10.59,.39-.4,.85-.82,1.43-.86,.69-.05,1.31,.47,1.54,1.06s.16,1.24,.09,1.87l.08-2.27c.63,.42,1.09,1.05,1.27,1.75-1.26-.7-2.33-1.69-3.09-2.84,1.69-.34,3.58,.55,4.26,2-1.02,.5-2.26,.25-3.41,.37s-2.42,1.07-1.97,2.03c0-1.3,.41-2.6,1.17-3.7-6.42,2.14-10.94,8.29-10.65,14.51,.35-2.63,.84-5.5,3-7.29-1.27,1.31-2.56,2.65-3.23,4.29s-.56,3.65,.76,4.91c-.72-.82-.96-1.98-.63-2.98-1.08,.89-1.3,2.51-.49,3.61-.03-1.23,.19-2.46,.65-3.61-.66,1.43-1.11,2.95-1.31,4.49l5.19-5.01c-.86,1.17-1.3,2.59-1.26,4,.25-.5,0-1.15-.55-1.39l-.49,2.14c-.41-1.92-.65-3.86-.73-5.81-1.96,1.94-3.1,4.54-3.16,7.17l3.59-4.41,1.36,2.86,3.5-3.75c-.28,.68-.3,1.45-.06,2.14,1.81-4.13,4.57-7.9,8.06-11.01,.34-.3,.71-.66,.68-1.09-.04-.51-.6-.82-1.1-1.06l-4.09-1.9c-.42-.2-.86-.4-1.33-.43-.56-.04-1.11,.16-1.62,.39-3.33,1.48-5.91,4.15-7.53,7.18-1.63,3.03-2.36,6.4-2.63,9.76-.24-7.83,6.2-15.4,14.59-17.16-2.3-.2-4.59,.65-6.41,1.94s-3.21,3.01-4.47,4.76c-1.08,1.5-2.1,3.07-2.61,4.8s-.47,3.66,.49,5.23l-1.1-.91-.04,2.38c-.11-.61,0-1.26,.3-1.82l-.27,.91"/><path class="cls-2" d="M112.88,95.55c-4.86,3.08-8.64,7.3-10.67,12.73-1.68,4.5-2.12,10.45,3.47,12.14,2.76,.84,4.74-1.4,5.06-3.86,.16-1.22,.84-2.15,1.55-3.11l-7.31-3.08c-.47,2-.47,3.62-.01,5.61,.68,2.95,4.64,3.85,6.69,1.77l1.76-1.8h-5.66c1.13,1.31,2.4,1.97,4,2.54,2.68,.96,4.81-1.49,5.06-3.86,.47-4.41,4.99-6.43,4.95-11.07-.03-2.5-2.55-4.68-5.06-3.86-4.88,1.59-8.84,4.51-11.38,9.02-1.65,2.94,1.1,6.94,4.52,5.88,4.51-1.41,7.6-4.77,8.67-9.38,.61-2.64-1.92-6.17-4.92-4.92-3.76,1.56-6.64,3.7-8.69,7.28-1.44,2.51,.36,6.19,3.45,6.02,4.49-.25,8.46-2.76,9.36-7.4,.68-3.5-2.65-6.12-5.88-4.52s-6.8,6.78-5.74,10.74c1.42,5.29,7.19,4.08,10.05,.94s3.8-8.85-.56-11.06c-1.85-.94-3.96-.58-5.71,.43-.99,.58-1.98,1.41-2.79,2.23-.53,.55-1.01,1.13-1.46,1.75-1.23,1.25-.88,1.47,1.05,.68l2.39,5.88c1.18-1.99,2.43-3.95,3.86-5.77,.55-.7,1.14-1.38,1.73-2.05,.44-.51,.9-1,1.37-1.48,.89-.77,.54-.78-1.05-.03l-2.39-1.84,.14,.62h8l.08-2.27-6.83,2.83,.64,.94,5.47-5.47c-.66-.34-1.21-.81-1.65-1.41l-3.45,6.02,.81,.02,2.39-5.88c-2.08,.56-3.99,.16-5.89,1.45-1.79,1.22-2.3,2.73-2.42,4.8-.3,5.21,7.49,5.03,8,0l.63-1.69c1.57-2.81-1.09-7.16-4.52-5.88-7.88,2.96-13.6,9.7-13.59,18.36,0,4.34,7.2,5.65,7.86,1.06,.29-2.01,.47-4.03,1.97-5.52l-5.66-5.66c-4.25,4.45-6.6,9.51-2.46,14.86,2.8,3.62,8.61-1.03,6.28-4.85l-.23,.1c.48-3.43-3.81-7.38-6.69-3.89-2.24,2.71-2.59,5.28-1.12,8.46,1.77,3.83,7.3,1.63,7.45-2.02-.02-.89,.15-1.73,.51-2.54,1.64-5.03-5.79-6.72-7.71-2.13-.62,1.48-1.04,2.91-1.31,4.49-.65,3.79,3.62,6.85,6.69,3.89l5.19-5.01-6.28-4.85c-1.17,1.91-1.68,3.78-1.81,6.02h8c.05-1.84-.49-2.92-1.72-4.22-2.02-2.14-6.01-1.14-6.69,1.77l-.49,2.14h7.71c-.3-1.59-.49-3.13-.59-4.74-.21-3.24-4.35-5.56-6.83-2.83-2.65,2.93-4.02,6.06-4.33,10-.26,3.31,4.67,5.48,6.83,2.83l3.59-4.41-6.28-.81,1.36,2.86c1.1,2.3,4.63,2.58,6.28,.81l3.5-3.75-6.69-3.89c-.33,1.56-.3,2.7-.06,4.27,.52,3.31,5.92,3.96,7.31,.96,1.17-2.53,2.53-4.91,4.34-7.04,1.49-1.76,3.79-3.19,4.6-5.43,1.81-4.98-4.78-7.6-8.45-8.68-4.41-1.29-9.07,2.3-11.78,5.5-3.75,4.43-5.16,9.8-5.73,15.46h8c.05-6.8,5.34-11.77,11.66-13.31,4.41-1.07,3.43-7.86-1.06-7.86-10.27,0-21.27,12.69-16.45,22.75l6.28-4.85-1.1-.91c-2.61-2.16-6.76-.84-6.83,2.83l-.04,2.38h8l.16-.75-7.71-2.13-.27,.91c-1.5,4.94,6.22,7.05,7.71,2.13l.27-.91c1.5-4.97-6.05-6.95-7.71-2.13-.35,1.01-.45,1.81-.44,2.88,.04,5.15,7.9,5.15,8,0l.04-2.38-6.83,2.83,1.1,.91c3.51,2.91,8.29-.65,6.28-4.85-1.05-2.2,1.34-5.01,2.61-6.61,1.83-2.31,3.82-4.09,6.94-4.1l-1.06-7.86c-9.78,2.38-17.45,10.74-17.53,21.02-.04,5.24,7.49,5.02,8,0,.37-3.67,1.33-7.38,3.78-10.24,.76-.89,2.12-2.47,3.32-2.7,.99-.05,1.9,.21,2.73,.77,1.4,.87,1.74,.95,1.03,.25l-.4-3.08c.62-1.83-1.02,.6-1.48,1.08-.99,1.03-1.9,2.13-2.77,3.27-1.63,2.13-2.96,4.36-4.09,6.79l7.31,.96,.06-.02c.78-3.7-3.8-6.98-6.69-3.89l-3.5,3.75,6.28,.81-1.36-2.86c-1.04-2.18-4.73-2.72-6.28-.81l-3.59,4.41,6.83,2.83c.14-1.75,.83-3.06,1.99-4.34l-6.83-2.83c.15,2.32,.44,4.59,.88,6.87,.74,3.9,6.85,3.73,7.71,0l.49-2.14-6.69,1.77,.57,.6-1.17-2.83-.02,.79c-.14,5.17,7.71,5.11,8,0-.02-.75,.22-1.41,.71-1.98,2.4-3.93-3.04-7.97-6.28-4.85l-5.19,5.01,6.69,3.89c.27-1.58,.69-3.01,1.31-4.49l-7.71-2.13c-.51,1.55-.73,3.04-.8,4.67l7.45-2.02-.13,1.24-6.69-3.89c-.33,2.32-.22,4.01,1.03,6.07l6.28-4.85c-.56-.72,2.06-3.12,2.46-3.54,3.55-3.72-2.01-9.31-5.66-5.66-2.54,2.54-3.52,5.57-4.02,9.05l7.86,1.06c0-4.9,3.18-8.94,7.72-10.65l-4.52-5.88c-1.06,1.91-1.5,3.57-1.72,5.72h8l.05-.93-1.17,2.83c.22-.21,3.04-.3,3.55-.44,2.36-.63,3.85-3.73,2.39-5.88-1.83-2.69-4.41-4.17-7.72-3.98-2.7,.16-5.41,3.4-3.45,6.02,1.31,1.76,2.66,3.09,4.52,4.28,3.63,2.31,7.09-2.11,5.47-5.47-.53-1.1-1.01-1.7-1.89-2.56-2.54-2.45-6.71-.64-6.83,2.83l-.08,2.27c-.17,5.18,7.65,5.09,8,0,.31-4.57-3.91-8.77-8.44-6.09-4.22,2.5-7.71,8.5-10.13,12.59-1.29,2.17-.12,5.26,2.39,5.88,2.28,.56,4.14,.19,5.88-1.47,.75-.72,1.16-1.67,1.85-2.44,.44-.62,.98-1.14,1.64-1.55-1.78-1.82-3.4-2.09-4.86-.81l3.08-.4-.73-.25,2.39,1.84c.14,1.27,.35,1.26,.64-.02,.22-.73,.7-1.19,1.43-1.4l-5.88-4.52c0,1.05-.54,1.56-1.64,1.53l3.45,6.02c.94-1.65,2.12-2.86,3.91-3.6l-4.92-4.92c-.43,1.84-1.21,3.2-3.08,3.79l4.52,5.88c1.53-2.71,3.64-4.38,6.6-5.34l-5.06-3.86c.01,1.05-2.72,3.64-3.31,4.82-1,2.01-1.4,4.02-1.64,6.24l5.06-3.86-.47-.49c-1.4-1.62-4.23-1.46-5.66,0l-1.76,1.8,6.69,1.77v-1.36c1.11-4.62-4.67-6.63-7.3-3.08-1.64,2.22-2.28,4.44-2.64,7.15l5.06-3.86c.86,1.56,1.28,1.72,1.28,.49l.28-1.13c.39-1.38,.97-2.65,1.72-3.87,1.47-2.41,3.47-4.24,5.84-5.74,4.34-2.75,.33-9.67-4.04-6.91h0Z"/></g><g><path class="cls-2" d="M79.89,103.8c1.7-.15,3.37,.76,4.68,2.1s2.3,3.08,3.24,4.83c-1.57-3.22-4.52-5.35-7.57-5.47,2.9,.61,5.47,3.21,6.52,6.6l-2.51-3.83c1.81,1.95,2.92,4.85,3,7.81l-1.15-3.23c.6,.6,.98,1.54,1,2.49,.07-1.74-.13-3.49-.58-5.14,.81,1.94,1.27,4.1,1.36,6.28-.66-1.8-1.6-3.46-2.75-4.85l.68,3.76c-.89-1.58-1.94-3.02-3.13-4.28,.64,1.63,1.4,3.19,2.27,4.66-.57-1.64-1.4-3.15-2.42-4.41,.72,1.41,1.01,3.13,.83,4.77-.27-.75-.55-1.51-.91-2.21-1.31-2.55-3.58-4.07-5.75-5.47,1.29,1.5,2.66,2.9,4.08,4.21-1.32-1.98-2.88-3.72-4.63-5.12,2.57,.7,5.04,2,7.23,3.81l-6.03-3.86c1.81,.23,3.57,.98,5.11,2.17l-2.94-3.01,3.62,2.23c-1.24-1.94-3.35-2.98-5.34-2.63-.82,.14-1.66,.5-2.45,.21s-1.33-1.7-.68-2.34c.31-.3,.74-.29,1.13-.24,1.93,.26,3.81,1.12,5.39,2.5-.58-2.27-2.6-3.83-4.51-3.49-.21,.04-.44,.1-.58,.3-.23,.32-.14,.82,0,1.22,.36,1.04,.95,1.96,1.7,2.61l-3.44-2.59c.18-.88,1.18-.92,1.91-.76,3.04,.68,6.15,1.39,8.82,3.31s4.85,5.33,4.82,9.13c-.87-1.5-1.67-3.06-2.38-4.67,.84,1.21,1.27,2.85,1.16,4.44-.72-.3-1.4-.8-1.95-1.45,.74,1.07,1.64,1.98,2.63,2.66,.09-1-.1-2.04-.54-2.9l.63,2.18-.26-.97,.08,1.49c-1.31-2.57-3.2-4.7-5.39-6.09-.54-.34-1.13-.65-1.74-.62s-1.24,.51-1.38,1.24,.45,1.58,1.04,1.37l-2.43-2.19,1.99,3.9-1.76-4.3c1.55,1.08,2.52,3.29,2.43,5.47,.53-.8,.83-1.83,.82-2.86l-.34,3.2c.08-.65,.43-1.24,.92-1.51l2.71,3.61c-.33-1.03-.81-1.99-1.41-2.81l1.62,2.63c.12-1.15,.05-2.33-.23-3.44,1.77,.86,3.32,2.36,4.41,4.27,.2-6-3.67-11.8-8.49-12.75,2.04,.94,3.64,3.21,4.12,5.82"/><path class="cls-2" d="M79.89,107.8c2.24,.03,3.56,3.3,4.46,4.95l6.91-4.04c-2.36-4.34-6.11-6.96-11.03-7.45-4.57-.46-5.31,6.69-1.06,7.86,1.92,.53,3.07,1.96,3.72,3.8l7.31-3.08-2.51-3.83-6.28,4.85c1.18,1.4,1.71,3.18,1.83,4.98l7.86-1.06-1.15-3.23-7.31,3.08c.46,.4,.66,.91,.59,1.54,.65,4.56,7.82,3.31,7.86-1.06,.02-2.1-.23-4.16-.72-6.2l-7.71,2.13c.65,1.72,1.09,3.38,1.21,5.22l7.86-1.06c-.85-2.1-1.77-4-3.15-5.8-2.74-3.58-8.15-1.57-7.31,3.08l.68,3.76,7.31-3.08c-1.09-1.83-2.34-3.5-3.75-5.09-2.54-2.85-8.21,.15-6.69,3.89,.79,1.93,1.63,3.8,2.67,5.61,2.18,3.81,8.98,1.25,7.31-3.08-.74-1.94-1.57-3.7-2.83-5.36-3.12-4.14-8.96-.72-6.91,4.04,.38,.89,.33,1.82,.28,2.76l7.86-1.06c-1.73-4.61-4.43-7.41-8.5-10.07s-7.73,3.02-4.85,6.28c1.3,1.47,2.65,2.87,4.08,4.21,3.17,2.97,8.98-.96,6.28-4.85-1.53-2.2-3.2-4.2-5.25-5.93l-3.89,6.69c1.99,.6,3.82,1.49,5.46,2.78l4.85-6.28-6.03-3.86-3.08,7.31c1.64,.28,2.81,.81,4.15,1.77,3.78,2.7,7.94-3.12,4.85-6.28l-2.94-3.01-4.85,6.28,3.62,2.23c3.22,1.98,7.95-2.18,5.47-5.47-1.71-2.28-3.65-4-6.55-4.51-1.02-.18-2.76-.38-3.72,.13-1.14,.12-1.31,1.04-.52,2.76-.93,1.69-.81,2.63,.36,2.81,.58,.47,1.56,.65,2.2,1.15,2.8,2.21,8.14,.3,6.69-3.89-1.32-3.81-4.99-7.52-9.43-6.29-5.59,1.55-3.5,7.79-.65,10.82l4.85-6.28-3.44-2.59,1.44,5.47c-2.35,.62-2.88,1.06-1.59,1.31,.68,.15,1.36,.32,2.03,.5,1.36,.38,2.71,.81,3.91,1.58,2.23,1.42,3.62,3.61,3.75,6.27l7.45-2.02c-.86-1.53-1.65-3.08-2.38-4.67l-6.91,4.04c.53,.9,.62,1.37,.62,2.43l6.02-3.45c-.48-.15-.85-.42-1.14-.82-3.08-3.13-9.09,1.14-6.28,4.85,1.22,1.62,2.45,2.86,4.07,4.1,2.5,1.9,6.02-.7,6.02-3.45,0-1.4-.17-2.66-.68-3.96-1.83-4.68-9.18-2.93-7.71,2.13l.63,2.18c1.43,4.94,9.08,2.86,7.71-2.13l-.26-.97c-1.16-4.26-8.09-3.54-7.86,1.06l.08,1.49,7.45-2.02c-2.12-3.87-6.82-9.89-11.95-8.46s-5.53,9.31-.04,10.23c3.59,.6,7.14-3.75,3.89-6.69l-2.43-2.19c-3.4-3.07-8.37,.76-6.28,4.85l1.99,3.9c2.02,3.96,9.04,1.15,7.31-3.08l-1.76-4.3-6.69,3.89c.94,.79,1.23,1.41,1.26,2.64,.09,3.79,5.55,5.67,7.45,2.02,.85-1.63,1.21-3.06,1.37-4.88,.46-5.15-7.46-5.05-8,0l-.34,3.2c-.5,4.71,6.48,5.09,7.86,1.06l-.11,.26-6.28-.81,2.71,3.61c2.46,3.28,9.07,1.55,7.31-3.08-.5-1.33-1.04-2.57-1.81-3.77-2.77-4.31-9.62-.37-6.91,4.04l1.62,2.63c2.13,3.46,7.26,1.92,7.45-2.02,.08-1.55-.09-2.98-.37-4.5l-5.88,4.52c1.32,.72,2.19,1.57,2.98,2.84,2.06,3.31,7.47,2.04,7.45-2.02-.03-7.21-4.05-14.73-11.43-16.6-4.32-1.09-7.13,5.06-3.08,7.31,1.43,.8,1.91,1.89,2.28,3.43,1.2,5,8.92,2.89,7.71-2.13-.84-3.48-2.8-6.45-5.96-8.22l-3.08,7.31c3.9,.99,5.54,5.21,5.56,8.89l7.45-2.02c-1.49-2.39-3.36-4.35-5.85-5.71-3.24-1.76-6.5,1.13-5.88,4.52,.16,.79,.19,1.58,.08,2.38l7.45-2.02-1.62-2.63-6.91,4.04c.43,.57,.76,1.19,1.01,1.86l7.31-3.08-2.71-3.61c-1.51-2.02-4.3-2.8-6.28-.81-1.01,1.01-1.49,1.93-1.95,3.27l7.86,1.06,.34-3.2h-8l-.27,.84,7.45,2.02c-.08-3.18-1.12-6.2-3.6-8.3-2.68-2.27-8.35-.19-6.69,3.89l1.76,4.3,7.31-3.08-1.99-3.9-6.28,4.85,2.43,2.19,3.89-6.69-.56-.09,2.39,1.84c-3.32,1.75-4.01,3.13-2.06,4.13,.39,.33,.75,.68,1.09,1.05,.86,.93,1.48,1.95,2.09,3.05,1.87,3.4,7.66,1.97,7.45-2.02l-.08-1.49-7.86,1.06,.26,.97,7.71-2.13-.63-2.18-7.71,2.13c.33,.57,.47,1.18,.4,1.83l6.02-3.45c-.44-.37-.84-.78-1.2-1.23l-6.28,4.85c.82,.84,1.71,1.54,2.76,2.07,2.66,1.37,6.01-.3,6.02-3.45,0-2.36-.51-4.43-1.71-6.46-2.66-4.52-9.01-.56-6.91,4.04,.73,1.6,1.52,3.15,2.38,4.67,1.91,3.37,7.64,1.99,7.45-2.02-.27-5.82-3.42-10.99-8.64-13.69-3.85-1.99-11.67-5.09-14.37,0-1.1,2.08-.36,4.12,1.44,5.47l3.44,2.59c3.74,2.82,7.83-3.1,4.85-6.28-.6-1.11-.82-1.09-.66,.06l-1.84,2.39c-1.23,.64-1.15-.24-.79,.8l6.69-3.89c-3.4-2.69-11.04-6.51-13.29-.39-.88,2.39,.18,5.2,2.33,6.54,1.1,.69,2.34,.87,3.62,.79,1.15-.07,2.16-.72,3,.4l5.47-5.47-3.62-2.23c-3.91-2.41-8,3.06-4.85,6.28l2.94,3.01,4.85-6.28c-1.83-1.31-3.84-2.19-6.06-2.58-4.36-.76-7.08,4.76-3.08,7.31l6.03,3.86c3.75,2.4,8.46-3.44,4.85-6.28-2.77-2.17-5.61-3.81-8.99-4.83-3.67-1.11-7,4.06-3.89,6.69,1.52,1.29,2.86,2.67,4,4.31l6.28-4.85c-1.43-1.34-2.78-2.74-4.08-4.21l-4.85,6.28c2.22,1.45,3.86,2.73,4.82,5.29,1.57,4.17,7.61,3.61,7.86-1.06,.13-2.49-.4-4.53-1.38-6.79l-6.91,4.04c.82,1.08,1.53,2.18,2.02,3.45l7.31-3.08c-.69-1.2-1.34-2.42-1.86-3.7l-6.69,3.89c.97,1.09,1.76,2.22,2.5,3.47,2.42,4.08,8.09,1.24,7.31-3.08l-.68-3.76-7.31,3.08c.93,1.22,1.76,2.46,2.34,3.89,1.54,3.81,8.18,3.85,7.86-1.06-.17-2.55-.59-4.95-1.5-7.35-1.8-4.74-8.94-2.97-7.71,2.13,.33,1.38,.45,2.66,.44,4.07l7.86-1.06c-.18-1.29-.62-2.4-1.4-3.45-2.46-3.32-8.97-1.56-7.31,3.08l1.15,3.23c1.42,3.98,8.17,3.73,7.86-1.06-.27-4.07-1.54-7.51-4.18-10.64-2.92-3.47-8.77,1.06-6.28,4.85l2.51,3.83c2.36,3.59,8.91,1.41,7.31-3.08s-4.58-8.09-9.31-9.39l-1.06,7.86c1.99,.2,3.24,1.89,4.12,3.49,2.46,4.52,9.37,.49,6.91-4.04s-5.77-8.84-11.37-8.91c-5.15-.06-5.15,7.94,0,8h0Z"/></g><g><path class="cls-2" d="M91.96,59.78c-1.95,.06-4.17-.12-5.37-1.65-.85-1.09-.91-2.72-.15-3.87,.42,1.56,1.02,3.07,1.8,4.49,.24,.43,.49,.86,.84,1.2,.82,.8,2.04,1.02,3.17,1.21-1.56-.74-3.17-1.51-4.33-2.79s-1.77-3.22-1.02-4.78c.02,.9-.43,1.81-.17,2.66,.13,.43,.42,.78,.73,1.1,1.37,1.43,3.21,2.4,5.16,2.73-1.27-.12-2.46-.7-3.53-1.38-.92-.58-1.82-1.27-2.38-2.2s-.74-2.16-.22-3.12c-1.21,1.48-.61,3.86,.83,5.13s3.43,1.67,5.33,1.86c-1.78-.31-3.4-1.44-4.31-3s-1.07-3.54-.45-5.23c-1.17,1.11-2.25,2.53-2.21,4.14,.03,1.21,.72,2.34,1.69,3.07s2.17,1.07,3.38,1.15c-.71-.39-1.49-.88-1.62-1.68-.09-.57,.19-1.12,.46-1.63l1.2-2.24c-.75,.86-1.56,1.99-1.13,3.05,.16,.4,.48,.71,.8,.99,.67,.59,1.46,1.14,2.36,1.2-1.09-.33-2.02-1.22-2.29-2.32s.19-2.38,1.17-2.96c-.84,.42-1.1,1.58-.75,2.46s1.13,1.5,1.95,1.97c-1.34-.95-2.04-2.73-1.68-4.34-.73,1.26-.07,2.95,1.06,3.85s2.62,1.21,4.04,1.5c-.93-.21-1.86-.63-2.43-1.39s-.69-1.92-.06-2.64c-.42,.5-.84,1.01-1.03,1.63s-.05,1.38,.48,1.76c-.29-.71-.59-1.45-.55-2.22s.51-1.57,1.26-1.74c-.54,.73-.61,1.79-.18,2.59s1.36,1.31,2.27,1.25c-2.51,.18-5.04,.05-7.52-.38-1.4-.25-3.05-.86-3.28-2.26-.17-1.03,.55-1.97,1.22-2.77-.8,2.35,.56,5.23,2.89,6.09-1.36-1.06-2.24-2.71-2.37-4.43-.47,.8-.95,1.78-.54,2.62,.52,1.06,2,1.05,3.08,1.53-1.11-.2-2.28-.42-3.15-1.13s-1.31-2.1-.62-3c-.31,.7-.36,1.53-.05,2.23,.64,1.46,2.46,1.9,4.03,2.15-1.03-.22-2.13-.17-3.1-.57s-1.78-1.55-1.31-2.49c-.37,.81,.09,1.81,.81,2.33s1.63,.7,2.51,.85c-.86,.02-1.65-.47-2.37-.93-.91-.59-1.92-1.33-2.03-2.41-.09-.9,.48-1.73,1.09-2.39,.85-.92,1.85-1.71,2.94-2.33-1.98,.51-3.67,2.03-4.38,3.95,.91-1.75,2.39-3.19,4.16-4.07-.63,.71-.88,1.69-.91,2.64-.06,2.19,1.03,4.37,2.81,5.64"/><path class="cls-2" d="M91.96,59.28c-1.41,.04-3,.01-4.23-.78-1.35-.87-1.7-2.64-.86-3.99l-.91-.12c.48,1.75,1.15,3.52,2.11,5.06s2.41,1.91,4.05,2.18c.51,.08,.94-.65,.39-.91-1.48-.7-3.02-1.42-4.15-2.63-1.02-1.1-1.66-2.8-1.01-4.25l-.93-.25c-.01,.94-.43,1.86-.15,2.8,.23,.79,.9,1.42,1.5,1.93,1.35,1.16,2.98,1.93,4.73,2.25l.13-.98c-1.55-.17-3.07-1.03-4.27-2s-2.17-2.46-1.43-3.94c.29-.59-.48-1.01-.86-.5-1.23,1.6-.74,3.87,.49,5.31,1.48,1.74,3.95,2.2,6.1,2.43,.56,.06,.69-.88,.13-.98-3.52-.66-5.59-4.23-4.41-7.62,.17-.49-.5-.82-.84-.49-1.55,1.5-2.94,3.6-2.09,5.83s3.08,3.21,5.3,3.39c.5,.04,.67-.7,.25-.93-.85-.47-1.67-1-1.24-2.09,.38-.96,.97-1.87,1.45-2.78,.26-.48-.4-1.05-.79-.61-.9,1.05-1.92,2.51-1.08,3.9,.69,1.15,2.14,2.05,3.46,2.19,.59,.06,.64-.81,.13-.98-.91-.3-1.72-1.01-1.94-1.97-.21-.91,.15-1.89,.94-2.4,.54-.35,.06-1.18-.5-.86-.93,.53-1.3,1.62-1.09,2.64,.24,1.21,1.27,2.05,2.28,2.65,.57,.33,1.01-.49,.5-.86-1.16-.86-1.73-2.36-1.45-3.77,.1-.53-.63-.92-.91-.39-.73,1.38-.28,3,.75,4.1,1.19,1.27,3.01,1.66,4.65,1.99,.63,.13,.9-.81,.27-.96-.77-.19-1.57-.48-2.09-1.11-.47-.56-.66-1.47-.18-2.08,.39-.5-.29-1.21-.71-.71-.92,1.1-1.99,2.92-.55,4.1,.34,.28,1.05,.03,.84-.49-.38-.94-1.12-2.93,.36-3.34l-.56-.73c-1.35,2,.13,4.65,2.53,4.59v-1c-2.55,.17-5.19,.1-7.7-.43-.81-.17-1.78-.45-2.31-1.13-.79-1.02,.12-2.21,.78-3.01l-.84-.49c-.86,2.69,.64,5.68,3.24,6.71,.46,.18,.87-.53,.49-.84-1.26-1.02-2.08-2.46-2.22-4.08-.04-.47-.67-.71-.93-.25-.62,1.08-1.21,2.53-.21,3.59,.78,.83,2.05,.88,3.05,1.3l.27-.96c-.98-.17-2.07-.34-2.87-.96-.73-.56-1.16-1.61-.6-2.44l-.91-.39c-.53,1.31-.26,2.79,.84,3.71,.97,.81,2.27,1.09,3.49,1.28,.62,.1,.9-.84,.27-.96-.93-.18-1.91-.17-2.81-.47-.7-.23-1.67-1.02-1.31-1.87l-.91-.39c-.35,.91,0,1.92,.66,2.59,.79,.79,1.94,1.03,3,1.21l.13-.98c-.96-.03-1.82-.63-2.58-1.17-.68-.48-1.46-1.18-1.31-2.1s.91-1.61,1.53-2.19c.68-.64,1.44-1.19,2.25-1.65,.49-.28,.16-1.06-.39-.91-2.18,.59-3.92,2.19-4.73,4.3-.21,.53,.65,.88,.91,.39,.91-1.69,2.27-3.02,3.98-3.89l-.61-.79c-2.34,2.79-.62,7.14,2,9.06,.52,.38,1.02-.49,.5-.86-1.13-.83-1.96-2.04-2.34-3.4s-.39-2.99,.54-4.09c.36-.43-.08-1.05-.61-.79-1.85,.94-3.36,2.42-4.34,4.25l.91,.39c.69-1.77,2.21-3.1,4.03-3.6l-.39-.91c-1.06,.61-2.05,1.36-2.9,2.25-.75,.78-1.47,1.76-1.38,2.89,.08,1.02,.81,1.78,1.59,2.37,.97,.73,2.07,1.44,3.31,1.48,.55,.02,.7-.88,.13-.98-1.22-.22-3.65-.8-2.97-2.57,.2-.52-.69-.91-.91-.39-.44,1.05-.01,2.11,.86,2.79,1.09,.86,2.56,.75,3.86,1.01l.27-.96c-.94-.15-1.93-.33-2.76-.83-1.07-.65-1.33-1.8-.88-2.93,.22-.55-.61-.82-.91-.39-.69,1.01-.41,2.34,.34,3.24,.91,1.09,2.41,1.39,3.73,1.62,.64,.11,.85-.72,.27-.96-.73-.3-1.58-.37-2.26-.77-1.06-.62-.46-1.83,.02-2.65l-.93-.25c.17,1.88,1.04,3.6,2.51,4.79l.49-.84c-2.11-.83-3.22-3.35-2.54-5.48,.15-.46-.51-.87-.84-.49-.79,.95-1.64,2.1-1.31,3.41,.26,1.06,1.21,1.7,2.17,2.08,1.26,.49,2.68,.61,4.01,.73,1.68,.16,3.38,.17,5.07,.06,.64-.04,.65-1.02,0-1-1.67,.04-2.59-1.72-1.66-3.08,.25-.37-.16-.85-.56-.73-.77,.22-1.31,.83-1.53,1.59-.29,1.01,.09,2.05,.47,2.98l.84-.49c-.96-.78-.03-1.99,.55-2.68l-.71-.71c-.68,.86-.73,2-.2,2.96,.59,1.07,1.78,1.62,2.92,1.9l.27-.96c-1.29-.26-2.69-.52-3.77-1.33-.97-.73-1.65-2.13-1.04-3.29l-.91-.39c-.37,1.89,.37,3.76,1.91,4.9l.5-.86c-.7-.41-1.43-.93-1.73-1.72-.25-.66-.11-1.48,.54-1.85l-.5-.86c-1.12,.71-1.68,2.05-1.44,3.36,.26,1.38,1.38,2.4,2.68,2.84l.13-.98c-.93-.1-1.91-.8-2.47-1.52-.76-.97,.16-2.11,.8-2.86l-.79-.61c-.36,.68-.73,1.36-1.09,2.04-.29,.55-.62,1.13-.65,1.77-.05,1.19,.95,1.91,1.88,2.43l.25-.93c-1.81-.14-3.77-.98-4.4-2.83s.65-3.47,1.9-4.67l-.84-.49c-1.35,3.87,1.08,8.09,5.11,8.85l.13-.98c-1.8-.19-3.83-.55-5.17-1.89-1.13-1.13-1.59-3.01-.57-4.35l-.86-.5c-1.89,3.82,3.41,7.1,6.57,7.45,.56,.06,.69-.88,.13-.98-1.51-.27-2.94-.89-4.14-1.86-.55-.45-1.27-1.03-1.42-1.75-.16-.78,.21-1.61,.22-2.4,0-.47-.72-.72-.93-.25-.74,1.65-.34,3.5,.72,4.92,1.2,1.6,3.04,2.49,4.8,3.33l.39-.91c-.71-.12-1.45-.23-2.12-.53-.72-.33-1.17-.88-1.55-1.56-.79-1.4-1.37-2.91-1.8-4.46-.12-.42-.69-.48-.91-.12-.98,1.59-.72,3.74,.71,4.98s3.45,1.35,5.24,1.3c.64-.02,.64-1.02,0-1h0Z"/></g></g><path class="cls-2" d="M100.43,139.13c-38.51,0-73.08-20.54-88.09-52.33-.47-1-.04-2.19,.95-2.66,1-.47,2.19-.04,2.66,.95,14.35,30.39,47.51,50.03,84.47,50.03s70.12-19.64,84.47-50.03c.47-1,1.67-1.42,2.66-.95,1,.47,1.43,1.66,.96,2.66-15.01,31.79-49.59,52.33-88.09,52.33Z"/><g><path class="cls-2" d="M66.3,164.49H30.98v-6.26h35.32v6.26Zm-2.81,16.62h-24.83c-1.47,0-2.64-.41-3.52-1.23-.88-.82-1.32-1.95-1.32-3.39v-10.36h29.67v14.98Zm-.22-24.18h-6.56v-6.74h-22.63v-6.26h29.19v13Zm-6.3,18.14v-2.89h-16.58v2.89h16.58Z"/><path class="cls-2" d="M89.45,162.85h-17.06c-.95,0-1.73-.12-2.35-.37-.62-.24-1.12-.58-1.51-1.01s-.66-.94-.82-1.53c-.16-.59-.24-1.23-.24-1.92v-13.99h6.56v4.49h8.85v-4.49h6.56v18.83Zm-5.01,2.03c1.99,0,3.9,.09,5.74,.26s3.47,.55,4.88,1.14c1.41,.59,2.54,1.43,3.39,2.53,.85,1.09,1.27,2.56,1.27,4.41s-.42,3.31-1.27,4.4c-.85,1.09-1.98,1.94-3.39,2.53-1.41,.59-3.04,.97-4.88,1.14s-3.76,.26-5.74,.26-3.9-.09-5.74-.26c-1.84-.17-3.47-.55-4.88-1.14s-2.54-1.43-3.39-2.53c-.85-1.09-1.27-2.56-1.27-4.4s.42-3.31,1.27-4.41c.85-1.09,1.98-1.94,3.39-2.53s3.04-.97,4.88-1.14c1.84-.17,3.76-.26,5.74-.26Zm-1.55-8.29v-2.25h-8.85v2.25h8.85Zm1.55,19.43c1.41,0,2.68-.02,3.8-.07,1.12-.04,2.07-.16,2.85-.34,.78-.19,1.37-.47,1.77-.84,.4-.37,.6-.89,.6-1.55s-.2-1.18-.6-1.55c-.4-.37-.99-.65-1.77-.84s-1.73-.3-2.85-.35c-1.12-.04-2.39-.07-3.8-.07s-2.68,.02-3.8,.07c-1.12,.04-2.07,.16-2.85,.35s-1.37,.47-1.77,.84-.6,.89-.6,1.55,.2,1.18,.6,1.55c.4,.38,.99,.66,1.77,.84,.78,.19,1.73,.3,2.85,.34,1.12,.04,2.39,.07,3.8,.07Zm18.83-19.95h-4.1v8.42h-6.56v-21.37h6.56v6.69h4.1v6.26Z"/><path class="cls-2" d="M135.83,181.55h-6.39v-20.9h-1.43v20.9h-6.35v-11.66h-13.52c-1.79,0-3.11-.43-3.97-1.3-.86-.86-1.3-2.07-1.3-3.63v-21.2h6.61v19.86h12.18v-20.51h6.35v11.27h1.43v-11.27h6.39v38.43Z"/><path class="cls-2" d="M160.27,162.85h-17.06c-.95,0-1.73-.12-2.35-.37-.62-.24-1.12-.58-1.51-1.01s-.66-.94-.82-1.53c-.16-.59-.24-1.23-.24-1.92v-13.99h6.56v4.49h8.85v-4.49h6.56v18.83Zm-5.01,2.03c1.99,0,3.9,.09,5.74,.26s3.47,.55,4.88,1.14c1.41,.59,2.54,1.43,3.39,2.53,.85,1.09,1.27,2.56,1.27,4.41s-.42,3.31-1.27,4.4c-.85,1.09-1.98,1.94-3.39,2.53-1.41,.59-3.04,.97-4.88,1.14s-3.76,.26-5.74,.26-3.9-.09-5.74-.26c-1.84-.17-3.47-.55-4.88-1.14s-2.54-1.43-3.39-2.53c-.85-1.09-1.27-2.56-1.27-4.4s.42-3.31,1.27-4.41c.85-1.09,1.98-1.94,3.39-2.53s3.04-.97,4.88-1.14c1.84-.17,3.76-.26,5.74-.26Zm-1.55-8.29v-2.25h-8.85v2.25h8.85Zm1.55,19.43c1.41,0,2.68-.02,3.8-.07,1.12-.04,2.07-.16,2.85-.34,.78-.19,1.37-.47,1.77-.84,.4-.37,.6-.89,.6-1.55s-.2-1.18-.6-1.55c-.4-.37-.99-.65-1.77-.84s-1.73-.3-2.85-.35c-1.12-.04-2.39-.07-3.8-.07s-2.68,.02-3.8,.07c-1.12,.04-2.07,.16-2.85,.35s-1.37,.47-1.77,.84-.6,.89-.6,1.55,.2,1.18,.6,1.55c.4,.38,.99,.66,1.77,.84,.78,.19,1.73,.3,2.85,.34,1.12,.04,2.39,.07,3.8,.07Zm18.83-19.95h-4.1v8.42h-6.56v-21.37h6.56v6.69h4.1v6.26Z"/></g></svg>