<?xml version="1.0" encoding="UTF-8"?><svg id="Layer_1" xmlns="http://www.w3.org/2000/svg" viewBox="0 0 144 144"><defs><style>.cls-1{fill:#939393;}.cls-2,.cls-3{stroke:#ededed;}.cls-2,.cls-3,.cls-4,.cls-5{stroke-miterlimit:10;}.cls-2,.cls-3,.cls-5{fill:none;}.cls-2,.cls-4,.cls-5{stroke-linecap:round;}.cls-4,.cls-5{stroke:#939393;}.cls-4,.cls-6{fill:#ededed;}</style></defs><g><path class="cls-6" d="M72.13,1c39.08,0,70.87,31.79,70.87,70.87,0,10.42-2.21,20.45-6.55,29.79l-.67,1.4-6.08,10.14c-2.38,3.32-5.05,6.44-7.94,9.26l-11.93,9.42-.57,.37c-3.41,2.1-7.02,3.92-10.73,5.4-1.47,.6-2.95,1.14-4.5,1.63-7.04,2.29-14.41,3.45-21.89,3.45-1.95,0-3.9-.08-5.8-.23-7.16-.58-14.14-2.23-20.71-4.9l-3.72-1.62c-4.83-2.28-9.4-5.12-13.6-8.43h0l-.38-.31C10.98,113.72,1.27,93.53,1.27,71.87,1.27,32.79,33.06,1,72.13,1M72.13,0C32.44,0,.27,32.17,.27,71.87c0,22.74,10.56,43,27.03,56.16h0c4.34,3.48,9.09,6.45,14.18,8.86l3.75,1.63c6.57,2.67,13.64,4.38,21.02,4.98,1.93,.16,3.89,.24,5.88,.24,7.75,0,15.21-1.23,22.2-3.5,1.55-.5,3.07-1.05,4.57-1.66,3.79-1.52,7.43-3.36,10.87-5.47l.63-.41,12.01-9.49c2.98-2.9,5.7-6.08,8.11-9.46l6.13-10.22,.69-1.44c4.27-9.19,6.65-19.43,6.65-30.22C144,32.17,111.83,0,72.13,0h0Z"/><g><g><path class="cls-1" d="M110.41,132.69l12.01-9.49c2.98-2.9,5.7-6.08,8.11-9.46l6.13-10.22c.04-.29,.08-.57,.1-.86,.03-.22,.05-.46,.07-.69,.93-13.34-7.94-29.23-19.1-30.58-1.27-.14-6.06-.73-10.13,2.67-4.35,3.62-5.81,10.09-7.06,16.99-1.19,6.6-2.18,13.6-5.31,18.89-.41,.68-1.54,2.52-2.25,5.32-1.1,4.35-.44,8.19,0,10.64,.07,.33,.13,.69,.21,1.08,.14,.73,.33,1.55,.59,2.44,0,.03,.01,.04,.01,.05v.03c.51,1.74,1.28,3.71,2.56,5.7,.69,1.07,1.5,2.33,2.55,3.37,3.79-1.52,7.43-3.36,10.87-5.47l.63-.41Z"/><path class="cls-2" d="M130.28,111.72c-1.05-1.23-1.18-.84-2.61-2.61-1.99-2.67-3.97-4.68-5.92-7.91-1.27-2.12-2.57-4.38-3.97-6.86-.5-.88-.93-1.8-1.28-2.76-3.08-8.04-1.86-17.98-1.86-17.98"/><path class="cls-2" d="M122.44,122.17c-.71-.57-3.25-1.75-6.14-5.62-2.03-2.7-4.22-6.22-6.1-10.54-.08-.17-.16-.35-.22-.52-1.4-3.32-2.27-6.45-2.8-9.23-1.27-6.72-.54-11.3-.54-11.3"/><path class="cls-2" d="M98.54,110.19s.85,2.9,2.86,9.02c.25,.74,.51,1.53,.78,2.37,.97,2.89,2.46,5.24,3.97,7.07,1.36,1.67,2.74,2.89,3.74,3.66h0"/><path class="cls-2" d="M102.83,96.82s3.11,.66,10.38-2.97c7.27-3.63,13.81-16.7,13.81-16.7"/><path class="cls-2" d="M100.86,105.99s8.11,.38,15.18-1.82c7.06-2.2,13.6-10.32,13.6-10.32l3-6.14"/><path class="cls-2" d="M94.93,118.75s8.89,1.1,15.26,0c6.37-1.1,18.66-8.21,25.32-14.87"/><path class="cls-2" d="M96.02,127.72c-1.31-.07,9.37,2.73,22.5-2.93"/></g><g><path class="cls-6" d="M39.64,57.84l-1.48-.1c-.91-.21-3-.78-4.94-2.12-1.82-1.25-2.82-3.82-2.37-5.76,.45-1.94,3.13-3.01,6.2-2.43l4.4,.83c1.28,.47,2.33,.91,3.1,1.25,2.37,1.06,2.88,1.52,3.16,1.82,.5,.55,.65,1.07,.71,1.42l-.33,1.53c-.18,.35-.49,.84-1.01,1.36-.53,.53-1.47,1.44-3.32,1.93-1.62,.43-3.2,.37-4.11,.28Z"/><path class="cls-6" d="M39.68,57.91l-.98-.1c-.61-.13-2.01-.49-3.34-1.23-1.25-.69-1.98-2.03-1.75-3,.24-.97,1.99-1.44,4.04-1.05l2.94,.55c.86,.28,1.57,.53,2.1,.73,1.6,.61,1.96,.86,2.15,1.02,.34,.29,.47,.56,.51,.74l-.18,.77c-.11,.17-.3,.41-.63,.66-.34,.25-.93,.69-2.14,.88-1.06,.17-2.11,.09-2.72,.02Z"/></g><g><path class="cls-6" d="M39.64,57.84l-1.48-.1c-.91-.21-3-.78-4.94-2.12-1.82-1.25-2.82-3.82-2.37-5.76,.45-1.94,3.13-3.01,6.2-2.43l4.4,.83c1.28,.47,2.33,.91,3.1,1.25,2.37,1.06,2.88,1.52,3.16,1.82,.5,.55,.65,1.07,.71,1.42l-.33,1.53c-.18,.35-.49,.84-1.01,1.36-.53,.53-1.47,1.44-3.32,1.93-1.62,.43-3.2,.37-4.11,.28Z"/><path class="cls-6" d="M39.68,57.91l-.98-.1c-.61-.13-2.01-.49-3.34-1.23-1.25-.69-1.98-2.03-1.75-3,.24-.97,1.99-1.44,4.04-1.05l2.94,.55c.86,.28,1.57,.53,2.1,.73,1.6,.61,1.96,.86,2.15,1.02,.34,.29,.47,.56,.51,.74l-.18,.77c-.11,.17-.3,.41-.63,.66-.34,.25-.93,.69-2.14,.88-1.06,.17-2.11,.09-2.72,.02Z"/></g><g><path class="cls-6" d="M39.64,57.84l-1.48-.1c-.91-.21-3-.78-4.94-2.12-1.82-1.25-2.82-3.82-2.37-5.76,.45-1.94,3.13-3.01,6.2-2.43l4.4,.83c1.28,.47,2.33,.91,3.1,1.25,2.37,1.06,2.88,1.52,3.16,1.82,.5,.55,.65,1.07,.71,1.42l-.33,1.53c-.18,.35-.49,.84-1.01,1.36-.53,.53-1.47,1.44-3.32,1.93-1.62,.43-3.2,.37-4.11,.28Z"/><path class="cls-1" d="M39.68,57.91l-.98-.1c-.61-.13-2.01-.49-3.34-1.23-1.25-.69-1.98-2.03-1.75-3,.24-.97,1.99-1.44,4.04-1.05l2.94,.55c.86,.28,1.57,.53,2.1,.73,1.6,.61,1.96,.86,2.15,1.02,.34,.29,.47,.56,.51,.74l-.18,.77c-.11,.17-.3,.41-.63,.66-.34,.25-.93,.69-2.14,.88-1.06,.17-2.11,.09-2.72,.02Z"/></g><g><path class="cls-6" d="M91.62,58.35h1.48c.92-.13,3.05-.49,5.13-1.5,1.94-.94,3.19-3.02,2.94-4.65-.25-1.63-2.81-2.66-5.91-2.35l-4.45,.45c-1.32,.32-2.4,.63-3.21,.87-2.46,.75-3.02,1.11-3.32,1.34-.55,.43-.76,.85-.85,1.14l.18,1.28c.15,.3,.4,.72,.87,1.18,.48,.47,1.31,1.27,3.1,1.77,1.57,.44,3.14,.47,4.05,.45Z"/><path class="cls-1" d="M91.57,58.4l.99-.03c.62-.08,2.05-.29,3.45-.84,1.31-.51,2.18-1.58,2.04-2.4-.14-.82-1.83-1.3-3.9-1.09l-2.98,.3c-.89,.18-1.61,.36-2.16,.49-1.65,.42-2.03,.61-2.24,.73-.37,.22-.52,.44-.59,.59l.1,.64c.09,.15,.26,.36,.56,.58,.31,.23,.86,.62,2.04,.84,1.04,.2,2.09,.19,2.7,.16Z"/></g><path class="cls-6" d="M46.38,47.81c-1.41,1.24-3.47,3.36-5.41,5.74-1.34,1.64-2.75,3.37-4.06,5.74-.84,1.52-2.71,5.22-3.38,10.05-1.08,7.69,1.47,13.93,2.71,16.51,.86,1.97,3.33,6.88,8.7,9.93,2.61,1.48,5.06,2.04,6.8,2.27h26.13c1.93-.29,4.33-.91,6.8-2.27,7.97-4.38,10.29-12.89,10.8-14.95v-12.2c-.18-3.1-.86-5.54-1.44-7.18-1.44-4.06-3.57-6.78-5.02-8.61-.19-.24-1.97-2.46-4.05-4.31-9.46-8.41-20.98-7.89-20.98-7.89-8.74,.34-15.16,5.04-17.59,7.18Z"/><path class="cls-6" d="M110.24,128.14c-.04,1.33-.34,4.16-.34,4.16h0c-.04,.27-.08,.54-.12,.8-3.44,2.12-7.08,3.96-10.87,5.47-1.5,.61-3.02,1.16-4.57,1.66-6.99,2.27-14.45,3.5-22.2,3.5-1.99,0-3.95-.08-5.88-.24-5.92-.82-13.38-2.7-21.02-4.98l-3.75-1.63c-5.08-2.4-9.84-5.38-14.18-8.85h0c.5-4.51,1.96-10.1,3.12-15.99,1.62-8.19,2.51-9.58,3.67-14.19,.88-3.46,1.27-5.14,2.16-6.98,.1-.24,.22-.47,.35-.72,.16-.3,.44-.82,1.02-1.62,1.03-1.4,2.98-3.63,6.74-6.9,3.38-2.91,6.05-5.2,8.57-6.87,.39-.26,.78-.5,1.18-.73,.03-.01,.05-.04,.08-.04,.03-.03,.07-.04,.09-.05,2.26-1.29,4.47-2.08,7.07-2.33,.08-.01,.14-.01,.22-.03,.05-.01,.09-.01,.14-.01,.07-.01,.12-.01,.18-.01,.07-.01,.13-.01,.21-.01,.07-.01,.13-.01,.2-.01h.03c.37-.03,.73-.04,1.12-.04,.13,.01,.26,.04,.41,.05h.01c.63,.08,1.37,.18,2.23,.31,1.66,.24,3.7,.55,5.96,.93,.01,.01,.03,.01,.04,.01,.25,.05,.51,.09,.77,.14,5.38,.95,11.76,2.37,16.83,4.29,1.48,.56,3.24,1.32,5.02,2.87,.26,.22,.5,.44,.72,.68h.01v.03c.77,.76,1.36,1.57,1.89,2.48,1.11,1.92,1.88,4.27,3.12,7.58,.03,.05,.04,.12,.07,.17,1.14,3.03,1.83,4.61,2.35,5.78h0c.86,1.84,1.32,2.57,2.6,6.25,.34,.99,.67,1.92,.97,2.78,1.87,5.42,2.91,8.81,3.33,12.95h0s.01,.05,.01,.07c.16,1.55,.59,5.07,.43,9.28Z"/><ellipse class="cls-6" cx="46.36" cy="77.65" rx="16.71" ry="16.62"/><ellipse class="cls-6" cx="82.24" cy="76.21" rx="16.71" ry="16.62"/><ellipse class="cls-6" cx="60.73" cy="61.92" rx="2.33" ry="2.01"/><polygon class="cls-6" points="62.45 82.62 56.21 84.6 53.71 70.78 63.97 70.78 62.45 82.62"/><polygon class="cls-6" points="63.75 82.05 69.99 83.93 72.49 70.78 62.22 70.78 63.75 82.05"/><line class="cls-5" x1="64.75" y1="82.39" x2="61.43" y2="68.78"/><path class="cls-4" d="M61.53,67.55c1.21,1.49,.25,4.85-2.35,6.1-2.6,1.25-6,.66-7.61-1.32s-.8-4.59,1.8-5.83,6.94-.44,8.15,1.05Z"/><path class="cls-4" d="M61.73,68.86c.65-1.68,4.56-3.36,7.49-2.68s4.61,3.02,3.75,5.26-3.94,3.5-6.88,2.83c-2.93-.67-5.02-3.72-4.37-5.4Z"/><path class="cls-1" d="M54.7,62.61c-1.21,1.53,.74,6.29,2.53,7.22s6.47,.94,8.27,0,3.74-5.68,2.53-7.22c-1.96-2.49-11.37-2.49-13.33,0Z"/><ellipse class="cls-6" cx="59.08" cy="62.56" rx="3.18" ry="1.83"/><path class="cls-1" d="M73.59,60.92c.09-.55,.69-.95,1.23-.78,.27,.08,.49,.29,.61,.55,.03,.06,.05,.12,.06,.18,0,.03,.01,.06,.02,.1v-.8s-.05,0-.08-.01l-.59-.09-1.34-.19v1h1.45v-1c-.14,.07-.3,.13-.46,.12-.12,0-.27-.07-.28-.2v.98c.01-.12,.24-.37,.31-.16,0-.03,0-.13,0-.15,0-.12,0-.24,0-.35s0-.24,0-.35c0-.04,.01-.11,0-.15-.04-.11-.15-.08-.22-.02-.04,.04-.08,.09-.09,.15,0,.04,0,.07,0,.11,0,.17,0,.34,0,.51,0,.14,0,.28,0,.42,0,.03,0,.05,.02,.08,.03,.07,.11,.11,.18,.12,.18,.04,.38-.04,.54-.11,0,0,0-.16,0-.15,0-.12,0-.24,0-.35,0-.04,0-.5,0-.5h-1.45s-.03,.99,0,1l1.3,.19,.31,.05,.16,.02c.06,0,.14,.03,.2,.03,.04,0,.03,.02,.04-.02,0-.01,0-.04,0-.05,0-.09,0-.17,0-.26,0-.25,0-.51,0-.76-.03-.64-.67-1.15-1.3-.9-.32,.13-.58,.41-.64,.76-.03,.16,0,.34,0,.5,0,.12,0,.24,0,.35,0,.05,.01,.1,0,.15h0Z"/><path class="cls-1" d="M48.47,61.2l.63-.5,.31-.25s.05-.06,.07-.06c.02-.02,.02-.02,.02,0v.04c.02,.05,.04,.11,.06,.16,.14,.41,.4,.76,.73,1.04v-1c-.76-.25-1.59-.26-2.36-.02v1c.43-.14,.88-.2,1.33-.17,0,0,0-.9,0-.98-.02-.32-.2-.6-.5-.73-.07-.03-.14-.05-.22-.06-.02,0-.03,0-.05,0-.03,0-.05,0-.06,.04-.04,.03-.06,.09-.09,.13l-.38,.55v1c.35-.89,1.81-.96,2.24-.11,0-.02,0-.14,0-.15,0-.12,0-.24,0-.35s0-.24,0-.35c0-.04,.01-.11,0-.15-.43-.85-1.9-.78-2.24,.11-.01,.03,0,.12,0,.15,0,.12,0,.24,0,.35s0,.24,0,.35c0,.03,.02,.13,0,.15l.36-.53,.08-.11c.04-.06,.04-.08,.12-.07s.14,.02,.21,.05c.29,.11,.51,.39,.52,.7v-.98c-.45-.03-.9,.03-1.33,.17-.03,0,0,.46,0,.5,0,.12,0,.24,0,.35,0,.02,0,.15,0,.15,.77-.23,1.59-.22,2.36,.02-.02,0,0-.46,0-.5,0-.12,0-.24,0-.35,0-.02,.01-.13,0-.15-.33-.27-.59-.63-.73-1.04-.02-.05-.03-.1-.05-.14,0,0-.01-.07-.02-.07,0,0-.07,.05-.07,.06l-.31,.25-.65,.51s0,.16,0,.15c0,.12,0,.24,0,.35s0,.24,0,.35c0,.02,.01,.14,0,.15h0Z"/><path class="cls-1" d="M94.73,136.09c-.01,.89-.07,2.35-.39,4.14-6.99,2.27-14.45,3.5-22.2,3.5-1.99,0-3.95-.08-5.88-.24-6-.3-13.48-2.03-21.02-4.98l-3.75-1.63c-.43-5.34,.3-11.29,2.3-17.3,.48-1.44,.95-2.87,1.44-4.31,.13-.31,.85-2.09,2.23-4.33h0c.04-.07,.07-.12,.1-.17,.13-.22,.27-.44,.43-.67,0,0,0-.01,.01-.01,.07-.1,.13-.21,.22-.33,0-.01,.01-.03,.04-.05,0-.01,.01-.03,.04-.05,.43-.63,.93-1.29,1.48-1.96,.03-.04,.05-.07,.08-.1,.14-.17,.29-.34,.44-.51,.44-.51,.93-1.02,1.44-1.52h.01c.22-.22,.43-.42,.67-.63,.01-.01,.04-.04,.07-.05l.27-.24h.01l.03-.04c.3-.26,.61-.51,.94-.76h.01c.05-.05,.1-.09,.16-.13,.07-.05,.13-.1,.2-.14,.01-.01,.04-.04,.07-.04,0,0,.01,0,.01-.01,2.18-1.58,4.78-2.84,7.87-3.33,6.34-1.03,11.62,1.65,15.3,4.19,.17,.12,.34,.24,.5,.35t.03,.01h.01c.61,.44,1.18,.88,1.69,1.27,.09,.07,.17,.13,.25,.18,.08,.07,.16,.13,.22,.18,.12,.09,.24,.17,.34,.26h.01c.18,.14,.35,.29,.52,.44,.2,.14,.38,.3,.56,.47,.3,.25,.59,.5,.88,.76,.44,.42,.89,.84,1.29,1.25,.1,.1,.2,.2,.29,.3,.63,.65,1.22,1.32,1.76,2,.14,.16,.27,.33,.39,.5,.08,.08,.14,.17,.21,.25,.24,.3,.46,.61,.68,.91h0c3.25,4.52,5.12,9.33,6.22,13.43,.22,.85,.42,1.67,.59,2.44,0,.03,.01,.04,.01,.05v.03c.63,2.95,.84,5.32,.93,6.59Z"/><g><path class="cls-6" d="M92.14,92.62c-6.98,4.15-11.82,11.14-12.91,18.66-.26,1.78,.27,4.22,2.24,4.3,.16-2.41,1.12-4.78,2.74-6.7-.53,1.47-.54,3.08-.02,4.55l2.3-2.35c.63,.98,1.71,1.71,2.92,1.98,.16-3.26,1.47-6.46,3.7-9.02,1.42-1.63,3.34-3.43,2.76-5.44-5.13,1.44-9.51,4.94-11.75,9.38,4.18-.95,7.03-4.73,7.68-8.6-3.62,1.28-6.64,3.89-8.24,7.11,3.57,.22,7.02-2.58,7.19-5.83-2.69,.93-3.88,3.72-4.77,6.21-.22,.62-.45,1.28-.32,1.93s.75,1.26,1.47,1.2c.41-.04,.76-.28,1.08-.52,2.23-1.69,4.27-4.28,3.32-6.78-.2-.53-.57-1.04-1.15-1.23-.74-.24-1.54,.15-2.18,.56-1.89,1.22-3.48,2.82-4.62,4.66-.4,.64-.75,1.32-1.37,1.79s-1.6,.64-2.21,.17c2.86-4.98,6.4-9.65,10.52-13.84,.51-.52,1.11-1.07,1.87-1.13,.9-.07,1.71,.61,2.01,1.39s.21,1.63,.12,2.44l.1-2.97c.82,.55,1.42,1.38,1.66,2.28-1.65-.92-3.05-2.2-4.03-3.71,2.21-.44,4.68,.72,5.57,2.61-1.33,.65-2.95,.32-4.45,.48s-3.16,1.39-2.57,2.65c0-1.7,.53-3.4,1.53-4.84-8.39,2.8-14.3,10.84-13.92,18.95,.46-3.44,1.09-7.19,3.91-9.53-1.66,1.71-3.35,3.47-4.22,5.6s-.73,4.77,1,6.42c-.94-1.08-1.26-2.58-.82-3.9-1.41,1.16-1.7,3.28-.64,4.72-.04-1.6,.25-3.21,.85-4.71-.87,1.87-1.45,3.85-1.71,5.86l6.78-6.55c-1.12,1.53-1.7,3.39-1.65,5.22,.32-.65-.01-1.51-.72-1.82l-.65,2.8c-.53-2.5-.85-5.04-.96-7.59-2.56,2.53-4.05,5.93-4.13,9.37l4.69-5.76,1.78,3.73,4.57-4.9c-.37,.89-.39,1.9-.07,2.8,2.36-5.39,5.97-10.33,10.53-14.39,.44-.39,.93-.86,.89-1.42-.05-.66-.78-1.08-1.44-1.38l-5.35-2.48c-.55-.26-1.13-.52-1.74-.56-.74-.05-1.46,.21-2.12,.51-4.35,1.93-7.72,5.42-9.85,9.38-2.12,3.95-3.08,8.36-3.43,12.75-.32-10.23,8.1-20.12,19.07-22.43-3-.26-6,.84-8.37,2.53-2.37,1.69-4.19,3.93-5.84,6.22-1.41,1.96-2.74,4.01-3.41,6.27s-.61,4.78,.64,6.83l-1.44-1.19-.06,3.1c-.15-.8,0-1.64,.39-2.37l-.36,1.18"/><path class="cls-6" d="M90.12,89.17c-5.94,3.75-10.7,8.94-13.26,15.55-2.01,5.19-3.18,12.68,3.54,14.72,2.76,.84,4.74-1.4,5.06-3.86,.24-1.85,1.11-3.22,2.19-4.68l-7.31-3.08c-.57,2.39-.56,4.3-.02,6.68,.68,2.95,4.64,3.85,6.69,1.77l2.3-2.35h-5.66c1.34,1.55,2.79,2.33,4.68,3.01,2.68,.96,4.81-1.49,5.06-3.86,.61-5.72,6.83-8.62,6.46-14.46-.15-2.47-2.45-4.7-5.06-3.86-6.07,1.95-11,5.6-14.14,11.22-1.64,2.94,1.09,6.94,4.52,5.88,5.5-1.71,9.17-5.8,10.48-11.4,.62-2.66-1.91-6.15-4.92-4.92-4.6,1.87-8.16,4.57-10.63,8.95-1.43,2.55,.35,6.15,3.45,6.02,5.29-.22,10.08-3.3,11.05-8.77,.61-3.49-2.61-6.14-5.88-4.52-3.92,1.95-8.18,8-6.93,12.65,1.66,6.17,8.26,4,11.3,.48s4.18-9.92-.7-12.33c-2.04-1.01-4.33-.54-6.22,.56-1.2,.7-2.42,1.73-3.4,2.72-.93,.93-3.52,3.05-1.72,3.49l2.39,5.88c1.6-2.7,3.29-5.33,5.24-7.78,.72-.91,1.48-1.8,2.26-2.68,.58-.66,1.18-1.31,1.79-1.94,.88-.72,.82-.84-.18-.36l-2.39-1.84,.36,1.43h8l.1-2.97-6.83,2.83,1.03,1.47,5.47-5.47c-1.04-.56-1.91-1.32-2.6-2.28l-3.45,6.02,2.11,.63,2.39-5.88c-4.22,1.13-10.37,.68-9.96,6.99,.34,5.2,7.48,5.08,8,0l.99-2.82c1.57-2.82-1.09-7.16-4.52-5.88-9.77,3.65-16.9,12.09-16.86,22.81,.02,4.34,7.2,5.66,7.86,1.06,.41-2.86,.73-5.65,2.89-7.76l-5.66-5.66c-4.99,5.2-8.15,11.3-3.22,17.68,2.8,3.62,8.61-1.03,6.28-4.85l-.42-.82c.48-3.43-3.81-7.38-6.69-3.89-2.54,3.08-2.94,5.95-1.27,9.57,1.77,3.83,7.3,1.63,7.45-2.02-.03-1.27,.21-2.49,.71-3.65,1.64-5.03-5.79-6.72-7.71-2.13-.81,1.93-1.36,3.8-1.71,5.86-.65,3.79,3.62,6.85,6.69,3.89l6.78-6.55-6.28-4.85c-1.41,2.31-2.04,4.54-2.19,7.24h8c.06-2.09-.49-3.17-1.89-4.65-2.02-2.14-6.01-1.14-6.69,1.77l-.65,2.8h7.71c-.41-2.18-.68-4.31-.82-6.53-.21-3.24-4.35-5.56-6.83-2.83-3.24,3.57-4.91,7.4-5.3,12.2-.26,3.31,4.67,5.48,6.83,2.83l4.69-5.76-6.28-.81,1.78,3.73c1.1,2.3,4.63,2.58,6.28,.81l4.57-4.9-6.69-3.89c-.39,1.84-.37,3.07-.07,4.93,.52,3.31,5.92,3.96,7.31,.96,1.69-3.65,3.71-7.05,6.39-10.07,1.69-1.89,4.27-3.5,5.17-5.92,2.09-5.65-6.43-9.1-10.61-10.01-5.44-1.18-11.12,3.74-14.24,7.66-4.34,5.43-6,11.93-6.67,18.73h8c.06-9.41,7.35-16.44,16.13-18.57,4.44-1.08,3.4-7.8-1.06-7.86-12.47-.17-26.27,15.69-20.44,27.88l6.28-4.85-1.44-1.19c-2.61-2.16-6.76-.84-6.83,2.83l-.06,3.1h8l.25-1.31-7.71-2.13-.36,1.18c-1.5,4.94,6.22,7.05,7.71,2.13l.36-1.18c1.5-4.97-6.05-6.95-7.71-2.13-.44,1.27-.54,2.09-.53,3.44,.04,5.15,7.9,5.15,8,0l.06-3.1-6.83,2.83,1.44,1.19c3.51,2.91,8.29-.65,6.28-4.85-1.67-3.5,1.46-7.42,3.5-10,2.62-3.33,5.58-5.9,10.03-5.83l-1.06-7.86c-12.24,2.96-21.93,13.39-22,26.28-.03,5.24,7.51,5.03,8,0s1.85-10.28,5.3-14.25c1.22-1.4,3.31-3.65,5.2-4.05,.94-.2,5.4,1.15,5.97,2.1l-.4-3.08c.35-1.03-1.9,1.6-2.25,1.96-1.26,1.31-2.42,2.7-3.52,4.15-2.09,2.74-3.8,5.62-5.24,8.75l7.31,.96,.07-.68c.78-3.7-3.8-6.98-6.69-3.89l-4.57,4.9,6.28,.81-1.78-3.73c-1.04-2.18-4.73-2.72-6.28-.81l-4.69,5.76,6.83,2.83c.21-2.63,1.2-4.61,2.95-6.54l-6.83-2.83c.19,2.92,.56,5.78,1.1,8.65,.74,3.9,6.85,3.73,7.71,0l.65-2.8-6.69,1.77,.74,.79-1.17-2.83-.03,1.04c-.14,5.17,7.71,5.11,8,0-.03-1.2,.34-2.27,1.1-3.21,2.4-3.93-3.04-7.97-6.28-4.85l-6.78,6.55,6.69,3.89c.35-2.07,.9-3.93,1.71-5.86l-7.71-2.13c-.63,1.94-.91,3.75-1,5.78l7.45-2.02,.02,.13-6.69-3.89c-.38,2.7-.23,4.59,1.22,6.98l6.28-4.85c-1.52-1.97,1.99-5.09,3.22-6.37,3.57-3.72-1.97-9.26-5.66-5.66-3.2,3.12-4.33,6.96-4.94,11.29l7.86,1.06c-.03-6.97,4.56-12.69,10.99-15.1l-4.52-5.88c-1.28,2.29-1.82,4.27-2.08,6.86h8c.15,2.31,2.38,1.18,4.08,.73,2.36-.63,3.85-3.73,2.39-5.88-2.16-3.18-5.15-4.82-9.02-4.59-2.7,.16-5.41,3.4-3.45,6.02,1.58,2.11,3.23,3.72,5.47,5.15,3.63,2.31,7.09-2.11,5.47-5.47-.68-1.42-1.14-1.99-2.28-3.09-2.54-2.45-6.71-.64-6.83,2.83l-.1,2.97c-.17,5.18,7.65,5.09,8,0s-4.03-9.95-9.18-6.89-9.75,10.87-12.8,16.01c-1.29,2.17-.12,5.26,2.39,5.88,2.71,.66,5.02,.11,6.88-2.03,.98-1.13,1.55-2.42,2.63-3.52,2.63-1.28,2.35-2.15-.83-2.59-.59,1.01-1.42,1.73-2.5,2.17l3.08-.4-.95-.33,2.39,1.84c-.13-.22,2.1-3.01,3.14-3.53l-5.88-4.52c-.33,1.87-1.32,2.81-3.33,2.9l3.45,6.02c1.38-2.45,3.21-4.2,5.84-5.27l-4.92-4.92c-.66,2.84-2.02,4.92-4.89,5.81l4.52,5.88c2.12-3.8,5.22-6.22,9.35-7.55l-5.06-3.86c.12,1.9-3.62,5.18-4.49,6.92-1.2,2.42-1.69,4.87-1.98,7.54l5.06-3.86-1.15-.95c-1.4-1.62-4.23-1.46-5.66,0l-2.3,2.35,6.69,1.77,.02-2.43c1.1-4.62-4.69-6.63-7.31-3.08-2.01,2.72-2.84,5.4-3.28,8.72l5.06-3.86c.75,1.22,1.01,.96,.8-.78,.2-.93,.44-1.85,.75-2.75,.52-1.49,1.21-2.92,2.05-4.26,2.04-3.26,4.78-5.8,8.03-7.85,4.34-2.74,.33-9.67-4.04-6.91h0Z"/></g><g><path class="cls-6" d="M46.39,98.89c2.22-.2,4.4,1,6.11,2.75s3.01,4.02,4.23,6.31c-2.06-4.2-5.91-6.98-9.89-7.15,3.79,.8,7.15,4.2,8.52,8.62l-3.28-5c2.36,2.55,3.82,6.34,3.92,10.2l-1.51-4.22c.79,.79,1.28,2.01,1.3,3.26,.09-2.27-.17-4.56-.76-6.71,1.06,2.54,1.67,5.36,1.77,8.21-.87-2.36-2.09-4.52-3.59-6.33l.88,4.91c-1.16-2.06-2.54-3.95-4.08-5.59,.83,2.13,1.83,4.17,2.96,6.08-.74-2.14-1.82-4.11-3.17-5.76,.94,1.84,1.33,4.09,1.08,6.24-.36-.99-.72-1.97-1.19-2.89-1.71-3.33-4.68-5.31-7.52-7.15,1.69,1.96,3.47,3.79,5.33,5.5-1.72-2.59-3.77-4.86-6.05-6.69,3.36,.91,6.59,2.61,9.45,4.97l-7.87-5.04c2.36,.29,4.67,1.27,6.67,2.84l-3.85-3.94,4.73,2.91c-1.62-2.54-4.38-3.9-6.97-3.44-1.07,.19-2.17,.66-3.21,.27s-1.74-2.23-.89-3.05c.4-.39,.97-.38,1.48-.31,2.52,.33,4.97,1.47,7.05,3.27-.76-2.96-3.39-5-5.89-4.57-.28,.05-.57,.14-.76,.39-.3,.42-.19,1.07-.01,1.59,.47,1.36,1.24,2.56,2.22,3.41l-4.49-3.38c.24-1.16,1.55-1.2,2.5-.99,3.97,.89,8.04,1.81,11.52,4.32s6.33,6.96,6.3,11.93c-1.14-1.96-2.18-4-3.11-6.11,1.1,1.59,1.66,3.73,1.52,5.81-.95-.39-1.82-1.04-2.54-1.89,.97,1.4,2.14,2.58,3.44,3.48,.12-1.31-.13-2.67-.7-3.78l.82,2.85-.35-1.27,.1,1.95c-1.72-3.36-4.18-6.14-7.05-7.96-.71-.45-1.48-.85-2.28-.8s-1.63,.66-1.8,1.62,.59,2.07,1.36,1.78l-3.17-2.87,2.6,5.09-2.3-5.62c2.02,1.41,3.3,4.29,3.17,7.15,.7-1.04,1.08-2.39,1.07-3.73l-.44,4.18c.1-.85,.57-1.61,1.2-1.97l3.54,4.72c-.43-1.34-1.06-2.6-1.84-3.68l2.12,3.44c.16-1.5,.06-3.05-.3-4.5,2.31,1.12,4.34,3.08,5.77,5.58,.26-7.84-4.79-15.42-11.1-16.65,2.67,1.23,4.76,4.19,5.39,7.61"/><path class="cls-6" d="M46.39,102.89c3.54,.04,5.44,4.41,6.89,7.07l6.91-4.04c-2.87-5.26-7.37-8.53-13.35-9.13-4.57-.46-5.31,6.69-1.06,7.86,2.94,.81,4.72,3.01,5.72,5.83l7.31-3.08-3.28-5-6.28,4.85c1.77,2.1,2.57,4.66,2.75,7.37l7.86-1.06-1.51-4.22-7.31,3.08c.65,.63,.95,1.4,.9,2.3,.65,4.56,7.82,3.31,7.86-1.06,.03-2.65-.28-5.2-.9-7.78l-7.71,2.13c.89,2.35,1.46,4.64,1.63,7.15l7.86-1.06c-1.07-2.64-2.25-5.02-3.99-7.29-2.74-3.58-8.15-1.57-7.31,3.08l.88,4.91,7.31-3.08c-1.37-2.3-2.93-4.41-4.71-6.4-2.54-2.85-8.21,.15-6.69,3.89,.99,2.42,2.06,4.76,3.37,7.04,2.18,3.81,8.98,1.25,7.31-3.08-.93-2.43-1.99-4.62-3.57-6.71-3.12-4.14-8.96-.72-6.91,4.04,.6,1.39,.62,2.74,.54,4.22l7.86-1.06c-2.14-5.7-5.5-9.13-10.54-12.43-3.97-2.59-7.73,3.02-4.85,6.28,1.7,1.92,3.46,3.75,5.33,5.5,3.17,2.97,8.98-.96,6.28-4.85-1.94-2.79-4.07-5.3-6.67-7.5l-3.89,6.69c2.82,.85,5.36,2.12,7.68,3.94l4.85-6.28-7.87-5.04-3.08,7.31c2.21,.38,3.9,1.14,5.72,2.44,3.78,2.7,7.94-3.12,4.85-6.28l-3.85-3.94-4.85,6.28,4.73,2.91c3.22,1.98,7.95-2.18,5.47-5.47-1.99-2.65-4.29-4.72-7.66-5.31-1.08-.19-3.38-.51-4.37,.15-1.13,.76-1.01,4.13-.2,4.92,.69,.68,2.6,1.18,3.41,1.82,2.8,2.21,8.14,.3,6.69-3.89s-5.7-8.78-10.81-7.36c-6.31,1.75-3.37,8.82-.31,12.08l4.85-6.28-4.49-3.38,1.44,5.47c-2.08,.6-2.31,.98-.69,1.15,.89,.2,1.77,.42,2.65,.66,1.88,.53,3.75,1.13,5.41,2.18,3.3,2.08,5.32,5.34,5.5,9.25l7.45-2.02c-1.13-2-2.16-4.02-3.11-6.11l-6.91,4.04c.78,1.33,.98,2.26,.97,3.79l6.02-3.45c-.7-.25-1.28-.67-1.73-1.27-3.08-3.13-9.09,1.14-6.28,4.85,1.46,1.93,2.95,3.45,4.88,4.92,2.5,1.9,6.02-.7,6.02-3.45,0-1.73-.22-3.23-.85-4.85-1.83-4.68-9.18-2.93-7.71,2.13l.82,2.85c1.43,4.94,9.08,2.86,7.71-2.13l-.35-1.27c-1.16-4.26-8.09-3.54-7.86,1.06l.1,1.95,7.45-2.02c-2.48-4.51-8.15-12.18-14.23-10.49-5.3,1.47-5.97,10.01-.05,11.01,3.59,.6,7.14-3.75,3.89-6.69l-3.17-2.87c-3.4-3.07-8.37,.76-6.28,4.85l2.6,5.09c2.02,3.96,9.04,1.15,7.31-3.08l-2.3-5.62-6.69,3.89c1.45,1.22,1.95,2.42,2,4.32,.09,3.79,5.55,5.67,7.45,2.02,1-1.93,1.43-3.6,1.62-5.75,.46-5.15-7.46-5.05-8,0l-.44,4.18c-.5,4.71,6.48,5.09,7.86,1.06l.17-.21-6.28-.81,3.54,4.72c2.46,3.28,9.07,1.55,7.31-3.08-.62-1.65-1.29-3.14-2.24-4.63-2.77-4.31-9.62-.37-6.91,4.04l2.12,3.44c2.13,3.46,7.26,1.92,7.45-2.02,.09-1.93-.09-3.67-.44-5.56l-5.88,4.52c1.91,1.04,3.19,2.31,4.33,4.15,2.06,3.31,7.47,2.04,7.45-2.02-.04-8.88-4.92-18.2-14.03-20.51-4.32-1.09-7.13,5.06-3.08,7.31,2.13,1.18,3,2.92,3.55,5.22,1.2,5,8.92,2.89,7.71-2.13-1.02-4.26-3.35-7.84-7.22-10l-3.08,7.31c5.64,1.43,8.14,7.44,8.16,12.8l7.45-2.02c-1.84-2.95-4.14-5.34-7.2-7.02-3.24-1.76-6.5,1.13-5.88,4.52,.24,1.14,.29,2.28,.15,3.43l7.45-2.02-2.12-3.44-6.91,4.04c.61,.83,1.09,1.74,1.44,2.72l7.31-3.08-3.54-4.72c-1.51-2.02-4.3-2.8-6.28-.81-1.18,1.19-1.69,2.16-2.23,3.74l7.86,1.06,.44-4.18h-8l-.53,1.71,7.45,2.02c-.09-3.85-1.34-7.44-4.34-9.98-2.68-2.27-8.35-.19-6.69,3.89l2.3,5.62,7.31-3.08-2.6-5.09-6.28,4.85,3.17,2.87,3.89-6.69-.73-.12,2.39,1.84c-2.61,1.72-2.87,3.02-.76,3.91,.51,.43,.98,.89,1.43,1.38,1.2,1.29,2.08,2.7,2.92,4.24,1.87,3.4,7.66,1.97,7.45-2.02l-.1-1.95-7.86,1.06,.35,1.27,7.71-2.13-.82-2.85-7.71,2.13c.47,.84,.66,1.75,.56,2.72l6.02-3.45c-.76-.6-1.43-1.28-2.01-2.05l-6.28,4.85c1.01,1.03,2.07,1.86,3.35,2.52,2.66,1.37,6.01-.3,6.02-3.45,0-2.87-.61-5.35-2.06-7.83-2.66-4.52-9.01-.56-6.91,4.04,.95,2.09,1.98,4.11,3.11,6.11,1.91,3.37,7.64,1.99,7.45-2.02-.33-7.19-4.25-13.51-10.68-16.83-4.37-2.26-13.98-6.33-17.09-.44-1.1,2.08-.36,4.12,1.44,5.47l4.49,3.38c3.74,2.82,7.83-3.1,4.85-6.28-.39-1.37-.79-1.74-1.18-1.11l-1.84,2.39c-.62,.32,.44,.82,.77,1.78l6.69-3.89c-3.65-2.88-12.98-7.97-15.38-.9-.87,2.57,.22,5.58,2.54,7.01,2.92,1.81,6.92-.89,9.09,1.99l5.47-5.47-4.73-2.91c-3.91-2.41-8,3.06-4.85,6.28l3.85,3.94,4.85-6.28c-2.33-1.66-4.81-2.75-7.63-3.24-4.36-.76-7.08,4.76-3.08,7.31l7.87,5.04c3.75,2.4,8.46-3.44,4.85-6.28s-7.01-4.73-11.21-6c-3.67-1.11-7,4.06-3.89,6.69,2.07,1.75,3.87,3.65,5.42,5.88l6.28-4.85c-1.87-1.76-3.63-3.58-5.33-5.5l-4.85,6.28c3.19,2.09,5.49,3.97,6.87,7.65,1.57,4.17,7.61,3.61,7.86-1.06,.16-3.02-.45-5.51-1.63-8.26l-6.91,4.04c1.14,1.51,2.08,3.03,2.76,4.8l7.31-3.08c-.95-1.67-1.83-3.35-2.56-5.13l-6.69,3.89c1.34,1.5,2.44,3.06,3.46,4.78,2.42,4.08,8.09,1.24,7.31-3.08l-.88-4.91-7.31,3.08c1.29,1.69,2.38,3.4,3.18,5.38,1.54,3.81,8.18,3.85,7.86-1.06-.21-3.23-.76-6.24-1.91-9.27-1.8-4.74-8.94-2.97-7.71,2.13,.46,1.9,.63,3.7,.61,5.65l7.86-1.06c-.23-1.61-.74-2.91-1.71-4.21-2.46-3.32-8.97-1.56-7.31,3.08l1.51,4.22c1.42,3.98,8.17,3.73,7.86-1.06s-1.88-9.2-5.1-13.03c-2.92-3.47-8.77,1.06-6.28,4.85l3.28,5c2.36,3.59,8.91,1.41,7.31-3.08-1.95-5.47-5.56-9.84-11.31-11.41l-1.06,7.86c3.07,.31,5.06,2.63,6.44,5.17,2.46,4.52,9.37,.49,6.91-4.04-2.99-5.51-6.94-10.95-13.79-11.04-5.15-.06-5.15,7.94,0,8h0Z"/></g></g><g><path class="cls-6" d="M58.24,42.67c-2.54,.07-5.45-.16-7.02-2.16-1.11-1.42-1.19-3.56-.2-5.06,.54,2.04,1.33,4.01,2.35,5.86,.31,.56,.64,1.12,1.1,1.57,1.08,1.05,2.66,1.34,4.14,1.58-2.04-.96-4.14-1.97-5.65-3.64s-2.31-4.21-1.33-6.24c.03,1.17-.56,2.36-.22,3.48,.17,.56,.55,1.02,.95,1.44,1.79,1.87,4.19,3.14,6.74,3.57-1.66-.15-3.21-.91-4.62-1.8-1.21-.76-2.37-1.66-3.11-2.88s-.97-2.82-.29-4.07c-1.59,1.94-.79,5.05,1.08,6.7s4.48,2.18,6.97,2.43c-2.33-.4-4.45-1.88-5.63-3.92s-1.4-4.62-.59-6.84c-1.53,1.45-2.94,3.3-2.89,5.41,.04,1.58,.94,3.06,2.2,4.01s2.84,1.4,4.41,1.51c-.92-.51-1.95-1.15-2.12-2.19-.12-.74,.25-1.47,.6-2.13l1.56-2.93c-.99,1.13-2.04,2.6-1.47,3.98,.21,.52,.62,.92,1.04,1.29,.88,.77,1.91,1.49,3.08,1.56-1.42-.44-2.64-1.59-2.99-3.04s.25-3.11,1.53-3.87c-1.1,.55-1.43,2.07-.98,3.21s1.48,1.96,2.54,2.57c-1.76-1.24-2.66-3.57-2.2-5.67-.95,1.64-.1,3.85,1.39,5.03s3.42,1.59,5.28,1.96c-1.21-.28-2.43-.82-3.18-1.81s-.9-2.51-.08-3.45c-.54,.65-1.1,1.32-1.34,2.13s-.07,1.81,.62,2.3c-.38-.93-.77-1.9-.72-2.91s.67-2.06,1.65-2.27c-.71,.96-.8,2.33-.23,3.38s1.78,1.71,2.97,1.63c-3.28,.23-6.59,.07-9.83-.5-1.83-.32-3.99-1.12-4.28-2.96-.22-1.35,.71-2.58,1.59-3.63-1.05,3.08,.73,6.83,3.78,7.96-1.78-1.39-2.93-3.55-3.09-5.79-.62,1.05-1.24,2.33-.71,3.42,.68,1.38,2.61,1.38,4.03,2-1.45-.26-2.98-.54-4.12-1.48s-1.71-2.75-.81-3.92c-.4,.92-.47,2-.07,2.92,.83,1.91,3.22,2.48,5.27,2.81-1.35-.29-2.78-.22-4.05-.75s-2.33-2.02-1.72-3.26c-.49,1.06,.12,2.36,1.06,3.05s2.13,.91,3.28,1.11c-1.13,.02-2.15-.61-3.1-1.22-1.19-.77-2.5-1.73-2.65-3.15-.12-1.17,.62-2.25,1.43-3.12,1.12-1.2,2.42-2.23,3.85-3.04-2.59,.66-4.8,2.65-5.72,5.16,1.19-2.28,3.13-4.17,5.44-5.32-.83,.93-1.16,2.21-1.19,3.45-.08,2.86,1.34,5.71,3.67,7.37"/><path class="cls-6" d="M58.24,42.17c-1.88,.05-3.99,0-5.62-1.05-1.81-1.18-2.31-3.59-1.16-5.41l-.91-.12c.61,2.26,1.48,4.54,2.72,6.54s3.11,2.47,5.22,2.82c.51,.08,.94-.65,.39-.91-1.95-.92-3.99-1.88-5.48-3.49-1.37-1.48-2.2-3.77-1.32-5.71l-.93-.25c0,1.21-.57,2.41-.21,3.61,.31,1.02,1.18,1.83,1.97,2.5,1.73,1.47,3.83,2.46,6.07,2.86l.13-.98c-2.09-.22-4.16-1.39-5.76-2.72-1.5-1.24-2.82-3.32-1.82-5.28,.24-.47-.42-1.08-.79-.61-1.62,2.07-1.08,4.95,.54,6.86,1.91,2.24,5.09,2.84,7.86,3.13,.56,.06,.69-.88,.13-.98-2.08-.38-3.98-1.58-5.14-3.38-1.3-2.01-1.52-4.53-.73-6.77,.17-.49-.5-.81-.84-.49-1.99,1.91-3.79,4.6-2.69,7.45s3.94,4.11,6.78,4.33c.5,.04,.67-.7,.25-.93-1.07-.59-2.22-1.33-1.77-2.72,.21-.65,.61-1.26,.93-1.86l1.06-1.99c.26-.48-.4-1.05-.79-.61-1.1,1.27-2.38,3.06-1.46,4.78,.42,.8,1.22,1.42,1.95,1.93,.76,.54,1.58,.89,2.52,.98,.59,.06,.64-.81,.13-.98-1.24-.41-2.33-1.38-2.64-2.69s.22-2.62,1.3-3.3c.54-.34,.06-1.18-.5-.86-1.17,.65-1.61,2.05-1.35,3.31,.31,1.52,1.64,2.59,2.91,3.34,.57,.33,1.01-.49,.5-.86-1.57-1.15-2.35-3.2-1.97-5.1,.11-.53-.63-.91-.91-.39-.94,1.75-.32,3.84,1,5.21,1.54,1.6,3.87,2.09,5.97,2.51,.63,.13,.9-.81,.27-.96-1.05-.25-2.14-.67-2.84-1.53-.64-.79-.88-2.05-.2-2.9,.4-.49-.29-1.2-.71-.71-.68,.81-1.39,1.68-1.55,2.75-.13,.88,.12,1.82,.83,2.38,.34,.27,1.05,.03,.84-.49-.53-1.31-1.47-4.01,.58-4.56l-.56-.73c-1.71,2.49,.16,5.87,3.17,5.77v-1c-3.36,.23-6.88,.14-10.18-.58-1.1-.24-2.42-.65-3.09-1.62-.97-1.39,.22-2.95,1.11-4.03l-.84-.49c-1.11,3.41,.82,7.29,4.13,8.57,.46,.18,.87-.53,.49-.84-1.68-1.34-2.76-3.29-2.94-5.44-.04-.47-.67-.71-.93-.25-.78,1.34-1.55,3.13-.33,4.47,.98,1.08,2.56,1.1,3.83,1.64l.39-.91c-1.36-.24-2.88-.48-3.96-1.41-.92-.79-1.42-2.2-.67-3.26l-.91-.39c-.69,1.68-.33,3.57,1.1,4.73,1.25,1.01,2.9,1.36,4.45,1.61,.62,.1,.9-.83,.27-.96-1.27-.26-2.63-.21-3.85-.67-.96-.36-2.11-1.49-1.62-2.6l-.91-.39c-.46,1.14,0,2.42,.85,3.25,1.02,1,2.49,1.29,3.84,1.53l.13-.98c-1.26-.02-2.38-.81-3.38-1.5-.89-.62-1.91-1.47-1.89-2.66s1.05-2.28,1.89-3.09c.95-.92,2-1.69,3.15-2.35,.49-.28,.16-1.06-.39-.91-2.79,.75-5.04,2.82-6.07,5.51-.2,.53,.65,.88,.91,.39,1.19-2.23,3-4,5.26-5.14l-.61-.79c-1.46,1.72-1.59,4.17-1.05,6.29s1.85,4.01,3.63,5.31c.52,.38,1.02-.49,.5-.86-1.52-1.11-2.62-2.73-3.12-4.53s-.51-4.02,.75-5.5c.37-.43-.08-1.05-.61-.79-2.39,1.21-4.36,3.13-5.62,5.49l.91,.39c.9-2.36,2.94-4.16,5.37-4.81l-.39-.91c-1.4,.8-2.69,1.79-3.8,2.96-.94,.99-1.87,2.25-1.71,3.7,.15,1.32,1.12,2.26,2.14,3,1.2,.88,2.57,1.77,4.1,1.8,.55,0,.7-.88,.13-.98-1.06-.19-2.21-.37-3.1-1.02-.8-.58-1.28-1.57-.89-2.53,.21-.52-.69-.9-.91-.39-.58,1.32,.04,2.67,1.14,3.5,1.4,1.06,3.28,.91,4.93,1.25l.27-.96c-1.27-.21-2.61-.45-3.71-1.15-1.4-.89-1.76-2.45-1.14-3.96,.23-.56-.61-.82-.91-.39-.9,1.28-.5,2.98,.47,4.1,1.17,1.36,3.09,1.73,4.77,2.03,.51,.09,.95-.68,.39-.91-1.01-.43-2.2-.52-3.15-1.09-1.44-.87-.64-2.52,0-3.65l-.93-.25c.2,2.4,1.35,4.64,3.24,6.15l.49-.84c-2.82-1.09-4.36-4.49-3.43-7.34,.15-.46-.51-.87-.84-.49-1.02,1.22-2.15,2.74-1.65,4.42,.4,1.35,1.67,2.13,2.92,2.57,1.69,.6,3.58,.75,5.35,.9,2.08,.18,4.17,.18,6.25,.04,.64-.04,.65-1.02,0-1-2.29,.08-3.6-2.39-2.31-4.26,.26-.37-.17-.84-.56-.73-.98,.26-1.65,1.07-1.91,2.03-.34,1.28,.15,2.58,.63,3.76l.84-.49c-1.34-1.07-.08-2.77,.72-3.72l-.71-.71c-.87,1.09-.9,2.57-.2,3.76,.77,1.32,2.26,2,3.68,2.34l.27-.96c-1.76-.35-3.67-.71-5.1-1.86-1.25-1.01-2.09-2.87-1.27-4.39l-.91-.39c-.48,2.38,.47,4.8,2.43,6.23l.5-.86c-.97-.57-2-1.31-2.37-2.43-.3-.9-.06-2.02,.81-2.5l-.5-.86c-1.42,.9-2.12,2.62-1.8,4.26s1.76,3.02,3.38,3.55l.13-.98c-1.28-.12-2.81-1.15-3.5-2.24-.83-1.31,.37-2.78,1.2-3.75l-.79-.61-1.34,2.51c-.39,.74-.86,1.5-.91,2.36-.09,1.51,1.21,2.42,2.38,3.07l.25-.93c-2.42-.19-5.02-1.31-5.88-3.77s.82-4.68,2.5-6.3l-.84-.49c-.87,2.47-.6,5.32,.83,7.54,1.29,2,3.4,3.4,5.73,3.84l.13-.98c-2.37-.25-5.02-.73-6.8-2.46-1.47-1.43-2.27-4.06-.9-5.82l-.79-.61c-1.12,2.22-.05,4.67,1.67,6.22,1.84,1.66,4.29,3.01,6.78,3.28,.56,.06,.69-.88,.13-.98-2-.36-3.89-1.18-5.47-2.47-.7-.57-1.59-1.29-1.87-2.19-.33-1.06,.24-2.27,.24-3.35,0-.47-.72-.72-.93-.25-.97,2.13-.39,4.55,1,6.36,1.55,2.01,3.91,3.15,6.15,4.21l.39-.91c-.92-.15-1.88-.3-2.74-.68-.97-.42-1.59-1.15-2.1-2.05-1.06-1.86-1.84-3.87-2.4-5.93-.12-.43-.69-.48-.91-.12-1.29,2.06-.88,4.86,1.01,6.4s4.38,1.63,6.64,1.57c.64-.02,.64-1.02,0-1h0Z"/></g></g><circle class="cls-3" cx="72.42" cy="71.74" r="71.34"/></svg>